<?xml version="1.0" encoding="UTF-8" standalone="no"?>
<svg
   version="1.2"
   width="78mm"
   height="12.862mm"
   viewBox="0 0 44.386308 7.3191881"
   id="svg190"
   sodipodi:docname="balken.svg"
   inkscape:export-filename="balken.svg"
   inkscape:export-xdpi="9.2327576"
   inkscape:export-ydpi="9.2327576"
   xmlns:inkscape="http://www.inkscape.org/namespaces/inkscape"
   xmlns:sodipodi="http://sodipodi.sourceforge.net/DTD/sodipodi-0.dtd"
   xmlns:xlink="http://www.w3.org/1999/xlink"
   xmlns="http://www.w3.org/2000/svg"
   xmlns:svg="http://www.w3.org/2000/svg">
  <defs
     id="defs194">
    <clipPath
       clipPathUnits="userSpaceOnUse"
       id="clipPath766">
      <rect
         style="fill:#000000;stroke-width:0.150563"
         id="rect768"
         width="45.726341"
         height="8.8502598"
         x="-1.9667245"
         y="-0.84288186" />
    </clipPath>
  </defs>
  <sodipodi:namedview
     id="namedview192"
     pagecolor="#ffffff"
     bordercolor="#000000"
     borderopacity="0.25"
     inkscape:showpageshadow="2"
     inkscape:pageopacity="0.0"
     inkscape:pagecheckerboard="0"
     inkscape:deskcolor="#d1d1d1"
     inkscape:document-units="mm"
     showgrid="false" />
  <style
     type="text/css"
     id="style2"><![CDATA[
tspan { white-space: pre; }
]]></style>
  <g
     id="g708"
     clip-path="url(#clipPath766)">
    <g
       transform="translate(7.0854351e-7,5.779)"
       id="g6">
      <line
         stroke-linejoin="round"
         stroke-linecap="round"
         stroke-width="0.1"
         stroke="currentColor"
         x1="0.050000001"
         y1="0"
         x2="42.622898"
         y2="0"
         id="line4" />
    </g>
    <g
       transform="translate(7.0854351e-7,4.779)"
       id="g10">
      <line
         stroke-linejoin="round"
         stroke-linecap="round"
         stroke-width="0.1"
         stroke="currentColor"
         x1="0.050000001"
         y1="0"
         x2="42.622898"
         y2="0"
         id="line8" />
    </g>
    <g
       transform="translate(7.0854351e-7,3.779)"
       id="g14">
      <line
         stroke-linejoin="round"
         stroke-linecap="round"
         stroke-width="0.1"
         stroke="currentColor"
         x1="0.050000001"
         y1="0"
         x2="42.622898"
         y2="0"
         id="line12" />
    </g>
    <g
       transform="translate(7.0854351e-7,2.779)"
       id="g18">
      <line
         stroke-linejoin="round"
         stroke-linecap="round"
         stroke-width="0.1"
         stroke="currentColor"
         x1="0.050000001"
         y1="0"
         x2="42.622898"
         y2="0"
         id="line16" />
    </g>
    <g
       transform="translate(7.0854351e-7,1.779)"
       id="g22">
      <line
         stroke-linejoin="round"
         stroke-linecap="round"
         stroke-width="0.1"
         stroke="currentColor"
         x1="0.050000001"
         y1="0"
         x2="42.622898"
         y2="0"
         id="line20" />
    </g>
    <g
       transform="translate(42.482901,3.779)"
       id="g26">
      <rect
         x="0"
         y="-2"
         width="0.19"
         height="4"
         ry="0.0000"
         fill="currentColor"
         id="rect24" />
    </g>
    <a
       style="color:inherit"
       xlink:href="textedit://D:/Jakob%20Krueger/Downloads/test.ly:3:40:41"
       id="a32"
       transform="translate(-17.071699,-7.9116)">
      <g
         transform="translate(54.3095,13.6906)"
         id="g30">
        <path
           transform="scale(0.004,-0.004)"
           d="m 218,136 c 55,0 108,-28 108,-89 0,-71 -55,-121 -102,-149 -35,-21 -75,-34 -116,-34 -55,0 -108,28 -108,89 0,71 55,121 102,149 35,21 75,34 116,34 z"
           fill="currentColor"
           id="path28" />
      </g>
    </a>
    <g
       transform="translate(27.260201,3.779)"
       id="g36">
      <rect
         x="-0.064999998"
         y="-1"
         width="0.13"
         height="2.8138001"
         ry="0.039999999"
         fill="currentColor"
         id="rect34" />
    </g>
    <g
       transform="translate(34.772801,3.779)"
       id="g40">
      <rect
         x="-0.064999998"
         y="-1"
         width="0.13"
         height="2.8138001"
         ry="0.039999999"
         fill="currentColor"
         id="rect38" />
    </g>
    <a
       style="color:inherit"
       xlink:href="textedit://D:/Jakob%20Krueger/Downloads/test.ly:3:36:37"
       id="a46"
       transform="translate(-17.071699,-7.9116)">
      <g
         transform="translate(50.6053,13.6906)"
         id="g44">
        <path
           transform="scale(0.004,-0.004)"
           d="m 218,136 c 55,0 108,-28 108,-89 0,-71 -55,-121 -102,-149 -35,-21 -75,-34 -116,-34 -55,0 -108,28 -108,89 0,71 55,121 102,149 35,21 75,34 116,34 z"
           fill="currentColor"
           id="path42" />
      </g>
    </a>
    <g
       transform="translate(32.268601,3.779)"
       id="g50">
      <rect
         x="-0.064999998"
         y="-1"
         width="0.13"
         height="2.8138001"
         ry="0.039999999"
         fill="currentColor"
         id="rect48" />
    </g>
    <a
       style="color:inherit"
       xlink:href="textedit://D:/Jakob%20Krueger/Downloads/test.ly:3:31:32"
       id="a56"
       transform="translate(-17.071699,-7.9116)">
      <g
         transform="translate(48.1011,13.6906)"
         id="g54">
        <path
           transform="scale(0.004,-0.004)"
           d="m 218,136 c 55,0 108,-28 108,-89 0,-71 -55,-121 -102,-149 -35,-21 -75,-34 -116,-34 -55,0 -108,28 -108,89 0,71 55,121 102,149 35,21 75,34 116,34 z"
           fill="currentColor"
           id="path52" />
      </g>
    </a>
    <g
       transform="translate(29.764401,3.779)"
       id="g60">
      <rect
         x="-0.064999998"
         y="-1"
         width="0.13"
         height="2.8138001"
         ry="0.039999999"
         fill="currentColor"
         id="rect58" />
    </g>
    <a
       style="color:inherit"
       xlink:href="textedit://D:/Jakob%20Krueger/Downloads/test.ly:3:27:28"
       id="a66"
       transform="translate(-17.071699,-7.9116)">
      <g
         transform="translate(45.5969,13.6906)"
         id="g64">
        <path
           transform="scale(0.004,-0.004)"
           d="m 218,136 c 55,0 108,-28 108,-89 0,-71 -55,-121 -102,-149 -35,-21 -75,-34 -116,-34 -55,0 -108,28 -108,89 0,71 55,121 102,149 35,21 75,34 116,34 z"
           fill="currentColor"
           id="path62" />
      </g>
    </a>
    <a
       style="color:inherit"
       xlink:href="textedit://D:/Jakob%20Krueger/Downloads/test.ly:3:39:40"
       id="a76"
       transform="translate(-17.071699,-7.9116)">
      <g
         transform="translate(51.7795,10.6906)"
         id="g70">
        <polygon
           stroke-linejoin="round"
           stroke-linecap="round"
           stroke-width="0.08"
           fill="currentColor"
           stroke="currentColor"
           points="6.2984,-0.2 6.2984,0.2 0.04,0.2 0.04,-0.2 "
           id="polygon68" />
      </g>
      <g
         transform="translate(55.4837,11.5006)"
         id="g74">
        <polygon
           stroke-linejoin="round"
           stroke-linecap="round"
           stroke-width="0.08"
           fill="currentColor"
           stroke="currentColor"
           points="2.5942,-0.2 2.5942,0.2 0.04,0.2 0.04,-0.2 "
           id="polygon72" />
      </g>
    </a>
    <a
       style="color:inherit"
       xlink:href="textedit://D:/Jakob%20Krueger/Downloads/test.ly:3:22:23"
       id="a86"
       transform="translate(-17.071699,-7.9116)">
      <g
         transform="translate(41.7627,10.6906)"
         id="g80">
        <polygon
           stroke-linejoin="round"
           stroke-linecap="round"
           stroke-width="0.08"
           fill="currentColor"
           stroke="currentColor"
           points="7.6026,-0.2 7.6026,0.2 0.04,0.2 0.04,-0.2 "
           id="polygon78" />
      </g>
      <g
         transform="translate(41.7627,11.5006)"
         id="g84">
        <polygon
           stroke-linejoin="round"
           stroke-linecap="round"
           stroke-width="0.08"
           fill="currentColor"
           stroke="currentColor"
           points="7.6026,-0.2 7.6026,0.2 0.04,0.2 0.04,-0.2 "
           id="polygon82" />
      </g>
    </a>
    <a
       style="color:inherit"
       xlink:href="textedit://D:/Jakob%20Krueger/Downloads/test.ly:3:13:14"
       id="a92"
       transform="translate(-17.071699,-7.9116)">
      <g
         transform="translate(34.3543,10.6906)"
         id="g90">
        <polygon
           stroke-linejoin="round"
           stroke-linecap="round"
           stroke-width="0.08"
           fill="currentColor"
           stroke="currentColor"
           points="3.7942,-0.2 3.7942,0.2 0.04,0.2 0.04,-0.2 "
           id="polygon88" />
      </g>
    </a>
    <a
       style="color:inherit"
       xlink:href="textedit://D:/Jakob%20Krueger/Downloads/test.ly:3:5:6"
       id="a98"
       transform="translate(-17.071699,-7.9116)">
      <g
         transform="translate(26.9459,10.6906)"
         id="g96">
        <polygon
           stroke-linejoin="round"
           stroke-linecap="round"
           stroke-width="0.08"
           fill="currentColor"
           stroke="currentColor"
           points="3.7942,-0.2 3.7942,0.2 0.04,0.2 0.04,-0.2 "
           id="polygon94" />
      </g>
    </a>
    <g
       transform="translate(38.477001,3.779)"
       id="g102">
      <rect
         x="-0.064999998"
         y="-1"
         width="0.13"
         height="2.8138001"
         ry="0.039999999"
         fill="currentColor"
         id="rect100" />
    </g>
    <g
       transform="translate(40.981201,3.779)"
       id="g106">
      <rect
         x="-0.064999998"
         y="-1"
         width="0.13"
         height="2.8138001"
         ry="0.039999999"
         fill="currentColor"
         id="rect104" />
    </g>
    <a
       style="color:inherit"
       xlink:href="textedit://D:/Jakob%20Krueger/Downloads/test.ly:3:44:45"
       id="a112"
       transform="translate(-17.071699,-7.9116)">
      <g
         transform="translate(56.8137,13.6906)"
         id="g110">
        <path
           transform="scale(0.004,-0.004)"
           d="m 218,136 c 55,0 108,-28 108,-89 0,-71 -55,-121 -102,-149 -35,-21 -75,-34 -116,-34 -55,0 -108,28 -108,89 0,71 55,121 102,149 35,21 75,34 116,34 z"
           fill="currentColor"
           id="path108" />
      </g>
    </a>
    <a
       style="color:inherit"
       xlink:href="textedit://D:/Jakob%20Krueger/Downloads/test.ly:3:23:24"
       id="a118"
       transform="translate(-17.071699,-7.9116)">
      <g
         transform="translate(43.0927,13.6906)"
         id="g116">
        <path
           transform="scale(0.004,-0.004)"
           d="m 218,136 c 55,0 108,-28 108,-89 0,-71 -55,-121 -102,-149 -35,-21 -75,-34 -116,-34 -55,0 -108,28 -108,89 0,71 55,121 102,149 35,21 75,34 116,34 z"
           fill="currentColor"
           id="path114" />
      </g>
    </a>
    <g
       transform="translate(13.643401,3.779)"
       id="g122">
      <rect
         x="-0.064999998"
         y="-1"
         width="0.13"
         height="2.8138001"
         ry="0.039999999"
         fill="currentColor"
         id="rect120" />
    </g>
    <a
       style="color:inherit"
       xlink:href="textedit://D:/Jakob%20Krueger/Downloads/test.ly:3:6:7"
       id="a128"
       transform="translate(-17.071699,-7.9116)">
      <g
         transform="translate(29.4759,13.6906)"
         id="g126">
        <path
           transform="scale(0.004,-0.004)"
           d="m 218,136 c 55,0 108,-28 108,-89 0,-71 -55,-121 -102,-149 -35,-21 -75,-34 -116,-34 -55,0 -108,28 -108,89 0,71 55,121 102,149 35,21 75,34 116,34 z"
           fill="currentColor"
           id="path124" />
      </g>
    </a>
    <g
       transform="translate(9.9392007,3.779)"
       id="g132">
      <rect
         x="-0.064999998"
         y="-1"
         width="0.13"
         height="2.8138001"
         ry="0.039999999"
         fill="currentColor"
         id="rect130" />
    </g>
    <g
       transform="translate(5.0000007,3.779)"
       id="g136">
      <path
         transform="scale(0.004,-0.004)"
         d="m 359,27 c -49,0 -75,42 -75,75 0,38 27,77 72,77 4,0 9,0 14,-1 -28,37 -72,59 -120,59 C 144,237 137,164 137,51 V 0 -51 c 0,-113 7,-187 113,-187 80,0 139,70 158,151 2,7 7,10 12,10 6,0 13,-4 13,-12 0,-94 -105,-174 -183,-174 -68,0 -137,21 -184,70 C 17,-142 0,-71 0,0 c 0,71 17,142 66,193 47,49 116,69 184,69 87,0 160,-63 175,-149 1,-5 1,-10 1,-14 0,-40 -30,-72 -67,-72 z"
         fill="currentColor"
         id="path134" />
    </g>
    <g
       transform="translate(0.80000071,4.779)"
       id="g140">
      <path
         transform="scale(0.004,-0.004)"
         d="m 266,-635 h -6 c -108,0 -195,88 -195,197 0,58 53,103 112,103 54,0 95,-47 95,-103 0,-52 -43,-95 -95,-95 -11,0 -21,2 -31,6 26,-39 68,-65 117,-65 h 4 z m 195,432 c 68,24 113,95 113,164 0,90 -66,179 -173,190 24,-116 46,-231 60,-354 z M 74,28 c 0,-135 129,-247 264,-247 28,0 55,2 82,6 C 406,-86 383,32 357,151 278,143 233,90 233,32 c 0,-44 25,-91 81,-123 5,-5 7,-10 7,-15 0,-11 -10,-22 -22,-22 -3,0 -6,1 -9,2 -80,43 -117,115 -117,185 0,88 58,174 160,197 -14,58 -29,117 -46,175 C 180,310 74,188 74,28 Z M 335,-262 C 147,-262 2,-90 2,112 c 0,177 131,306 248,441 -19,62 -37,125 -45,190 -6,52 -7,104 -7,156 0,115 55,224 149,292 6,5 14,5 20,0 71,-84 133,-245 133,-358 0,-143 -86,-255 -180,-364 21,-68 39,-138 56,-207 4,0 9,1 13,1 155,0 256,-128 256,-261 0,-76 -33,-154 -107,-210 -22,-17 -47,-28 -73,-36 3,-35 5,-70 5,-105 0,-19 -1,-39 -2,-58 -7,-119 -88,-225 -202,-228 l 1,43 c 93,2 153,92 159,191 1,18 2,37 2,55 0,31 -1,61 -4,92 -29,-5 -58,-8 -89,-8 z m 93,1178 c 0,55 -4,79 -20,129 -99,-48 -162,-149 -162,-259 0,-74 18,-133 36,-194 80,97 146,198 146,324 z"
         fill="currentColor"
         id="path138" />
    </g>
    <a
       style="color:inherit"
       xlink:href="textedit://D:/Jakob%20Krueger/Downloads/test.ly:3:2:3"
       id="a146"
       transform="translate(-17.071699,-7.9116)">
      <g
         transform="translate(25.7717,13.6906)"
         id="g144">
        <path
           transform="scale(0.004,-0.004)"
           d="m 218,136 c 55,0 108,-28 108,-89 0,-71 -55,-121 -102,-149 -35,-21 -75,-34 -116,-34 -55,0 -108,28 -108,89 0,71 55,121 102,149 35,21 75,34 116,34 z"
           fill="currentColor"
           id="path142" />
      </g>
    </a>
    <g
       transform="translate(21.051801,3.779)"
       id="g150">
      <rect
         x="-0.064999998"
         y="-1"
         width="0.13"
         height="2.8138001"
         ry="0.039999999"
         fill="currentColor"
         id="rect148" />
    </g>
    <a
       style="color:inherit"
       xlink:href="textedit://D:/Jakob%20Krueger/Downloads/test.ly:3:14:15"
       id="a156"
       transform="translate(-17.071699,-7.9116)">
      <g
         transform="translate(36.8843,13.6906)"
         id="g154">
        <path
           transform="scale(0.004,-0.004)"
           d="m 218,136 c 55,0 108,-28 108,-89 0,-71 -55,-121 -102,-149 -35,-21 -75,-34 -116,-34 -55,0 -108,28 -108,89 0,71 55,121 102,149 35,21 75,34 116,34 z"
           fill="currentColor"
           id="path152" />
      </g>
    </a>
    <a
       style="color:inherit"
       xlink:href="textedit://D:/Jakob%20Krueger/Downloads/test.ly:3:18:19"
       id="a162"
       transform="translate(-17.071699,-7.9116)">
      <g
         transform="translate(40.5885,13.6906)"
         id="g160">
        <path
           transform="scale(0.004,-0.004)"
           d="m 218,136 c 55,0 108,-28 108,-89 0,-71 -55,-121 -102,-149 -35,-21 -75,-34 -116,-34 -55,0 -108,28 -108,89 0,71 55,121 102,149 35,21 75,34 116,34 z"
           fill="currentColor"
           id="path158" />
      </g>
    </a>
    <g
       transform="translate(17.347601,3.779)"
       id="g166">
      <rect
         x="-0.064999998"
         y="-1"
         width="0.13"
         height="2.8138001"
         ry="0.039999999"
         fill="currentColor"
         id="rect164" />
    </g>
    <a
       style="color:inherit"
       xlink:href="textedit://D:/Jakob%20Krueger/Downloads/test.ly:3:10:11"
       id="a172"
       transform="translate(-17.071699,-7.9116)">
      <g
         transform="translate(33.1801,13.6906)"
         id="g170">
        <path
           transform="scale(0.004,-0.004)"
           d="m 218,136 c 55,0 108,-28 108,-89 0,-71 -55,-121 -102,-149 -35,-21 -75,-34 -116,-34 -55,0 -108,28 -108,89 0,71 55,121 102,149 35,21 75,34 116,34 z"
           fill="currentColor"
           id="path168" />
      </g>
    </a>
    <g
       transform="translate(24.756001,3.779)"
       id="g176">
      <rect
         x="-0.064999998"
         y="-1"
         width="0.13"
         height="2.8138001"
         ry="0.039999999"
         fill="currentColor"
         id="rect174" />
    </g>
  </g>
</svg>
