<?xml version="1.0" encoding="UTF-8" standalone="no"?>
<!-- Created with Inkscape (http://www.inkscape.org/) -->

<svg
   version="1.1"
   id="svg2"
   width="1517.3333"
   height="1305.3333"
   viewBox="0 0 1517.3333 1305.3333"
   sodipodi:docname="logo_buebuebue.svg"
   inkscape:version="1.1.2 (0a00cf5339, 2022-02-04)"
   xmlns:inkscape="http://www.inkscape.org/namespaces/inkscape"
   xmlns:sodipodi="http://sodipodi.sourceforge.net/DTD/sodipodi-0.dtd"
   xmlns="http://www.w3.org/2000/svg"
   xmlns:svg="http://www.w3.org/2000/svg">
  <defs
     id="defs6" />
  <sodipodi:namedview
     id="namedview4"
     pagecolor="#ffffff"
     bordercolor="#666666"
     borderopacity="1.0"
     inkscape:pageshadow="2"
     inkscape:pageopacity="0.0"
     inkscape:pagecheckerboard="0"
     showgrid="false"
     inkscape:zoom="0.52170585"
     inkscape:cx="643.08268"
     inkscape:cy="651.70823"
     inkscape:window-width="1920"
     inkscape:window-height="996"
     inkscape:window-x="0"
     inkscape:window-y="0"
     inkscape:window-maximized="1"
     inkscape:current-layer="g8" />
  <g
     inkscape:groupmode="layer"
     inkscape:label="Image"
     id="g8">
    <g
       id="g969"
       transform="translate(-0.01487183)">
      <path
         style="fill:#91847d;stroke-width:1.33333"
         d="m 22.333333,1304.3923 c 1.65,-0.3178 4.35,-0.3178 6,0 1.65,0.3178 0.3,0.5779 -3,0.5779 -3.3,0 -4.65,-0.2601 -3,-0.5779 z m 1460.083267,-2.6365 c 0.9626,-0.3851 2.1126,-0.3378 2.5556,0.1052 0.4431,0.4431 -0.3445,0.7582 -1.75,0.7003 -1.5533,-0.064 -1.8692,-0.3799 -0.8056,-0.8055 z m 9.3334,0 c 0.9625,-0.3851 2.1125,-0.3378 2.5556,0.1052 0.443,0.4431 -0.3446,0.7582 -1.75,0.7003 -1.5534,-0.064 -1.8692,-0.3799 -0.8056,-0.8055 z M 7.2494548,1297 l -3.9161215,-4.3334 4.3333332,3.9162 c 4.0392735,3.6503 4.9462025,4.7505 3.9161215,4.7505 -0.229466,0 -2.1794663,-1.95 -4.3333332,-4.3333 z m 122.0838752,-2.1528 c 90.20623,-30.442 174.01648,-86.9164 244.71112,-164.8951 103.40149,-114.0556 216.8976,-309.80335 312.18611,-538.43024 5.45836,-13.0963 9.67118,-24.06457 9.36184,-24.37391 -0.30935,-0.30935 -1.90638,2.56158 -3.54895,6.37985 -13.47756,31.32942 -62.39684,128.60388 -90.7594,180.47218 -70.62387,129.15413 -145.50377,242.12753 -220.31201,332.39092 -26.0981,31.4899 -41.49261,47.2817 -67.63871,69.3843 -52.64368,44.5023 -120.32881,83.071 -194.88362,111.0495 -22.693924,8.5165 -50.258725,17.4688 -51.968919,16.8782 -0.58865,-0.2033 3.299555,-4.8696 8.640457,-10.3696 24.327643,-25.0523 91.127802,-101.5714 139.677952,-160 C 349.52021,951.20074 501.10272,752.97598 626.46281,574.99999 l 27.47024,-39 h 36.15132 c 19.88323,0 49.75585,0.39593 66.3836,0.87984 l 30.23228,0.87984 4.08923,6.64584 c 2.24906,3.6552 21.27465,26.80928 42.27905,51.45349 21.00441,24.6442 55.56854,65.20765 76.80917,90.14098 21.24064,24.93334 43.23464,50.73333 48.87556,57.33333 5.64093,6.6 26.5956,31.2 46.56594,54.66667 239.8019,281.78552 249.4348,292.84742 315.231,362.00002 45.5828,47.908 98.9507,104.6072 99.7423,105.9683 1.8653,3.2071 -36.0853,-4.0028 -66.9592,-12.721 -58.3156,-16.4672 -108.364,-39.3506 -154.6667,-70.7175 -35.803,-24.254 -64.8759,-51.525 -110.0151,-103.1965 -5.125,-5.8667 -9.6353,-10.9667 -10.0229,-11.3333 -0.3875,-0.3667 -6.9951,-8.1667 -14.6835,-17.3334 C 989.57423,961.99564 909.84755,848.50995 835.33601,725.25657 814.76673,691.23188 780.13826,631.32124 768.13946,608.99998 c -3.84348,-7.15 -7.24993,-13 -7.56988,-13 -0.80113,0 24.61067,50.68736 42.44712,84.66667 132.92812,253.23457 258.6349,430.89065 352.9833,498.85645 20.1469,14.5132 83.619,52.0669 118.6666,70.2099 l 20.6667,10.6984 -11.5897,-0.8842 c -17.6454,-1.3463 -55.1969,-8.0335 -79.7436,-14.2009 C 1090.5859,1216.8512 995.04475,1160.7289 928.53271,1083.5326 840.87149,981.78985 759.89706,809.31497 734.18228,669.56773 c -1.79796,-9.77108 -3.51734,-18.01389 -3.8208,-18.31737 -0.30348,-0.30348 -1.29622,5.89104 -2.20608,13.76558 -6.10224,52.81275 -26.30568,132.51748 -49.07871,193.62068 -47.72006,128.03961 -111.83534,224.53698 -191.74337,288.58528 -86.09241,69.0053 -208.01779,121.9482 -340.69676,147.9385 -36.8452,7.2175 -39.4772,7.1699 -17.30323,-0.3132 z m -85.999998,2.4861 c 1.327315,-1.4667 2.7133,-2.6667 3.079967,-2.6667 0.366667,0 -0.419319,1.2 -1.746633,2.6667 -1.327315,1.4667 -2.7133,2.6667 -3.079967,2.6667 -0.366667,0 0.419319,-1.2 1.746633,-2.6667 z m 1465.333268,-4 c 1.3274,-1.4667 2.7134,-2.6667 3.08,-2.6667 0.3667,0 -0.4193,1.2 -1.7466,2.6667 -1.3274,1.4667 -2.7134,2.6667 -3.08,2.6667 -0.3667,0 0.4193,-1.2 1.7466,-2.6667 z m -46,-6 c -3.2386,-3.3 -5.5885,-6 -5.2218,-6 0.3666,0 3.3165,2.7 6.5552,6 3.2386,3.3 5.5885,6 5.2218,6 -0.3666,0 -3.3165,-2.7 -6.5552,-6 z m -1413.333268,2.8299 c 0,-0.2768 1.05,-1.3268 2.333334,-2.3333 2.114741,-1.6585 2.161901,-1.6113 0.503406,0.5034 -1.741825,2.221 -2.83674,2.9273 -2.83674,1.8299 z m 5.333333,-6.6666 c 0,-0.2769 1.05,-1.3269 2.333334,-2.3334 2.114741,-1.6585 2.161901,-1.6113 0.503406,0.5034 -1.741825,2.221 -2.83674,2.9273 -2.83674,1.83 z m 6,-7.4966 c 1.327315,-1.4667 2.7133,-2.6667 3.079967,-2.6667 0.366667,0 -0.419319,1.2 -1.746633,2.6667 -1.327315,1.4666 -2.7133,2.6666 -3.079967,2.6666 -0.366667,0 0.419319,-1.2 1.746633,-2.6666 z m 1388.594935,-3.6667 -4.595,-5 5,4.5949 c 4.6539,4.2768 5.6131,5.4051 4.595,5.4051 -0.2228,0 -2.4728,-2.25 -5,-5 z M 63.999999,1271.4966 c 0,-0.2769 1.05,-1.3269 2.333333,-2.3334 2.114741,-1.6585 2.161901,-1.6113 0.503407,0.5034 -1.741826,2.221 -2.83674,2.9273 -2.83674,1.83 z M 1436.5828,1258.3333 1432.6666,1254 1437,1257.9161 c 4.0393,3.6504 4.9462,4.7505 3.9161,4.7505 -0.2295,0 -2.1795,-1.95 -4.3333,-4.3333 z m -1364.582802,2.4966 c 0,-0.2769 1.05,-1.3269 2.333334,-2.3333 2.114741,-1.6585 2.161901,-1.6114 0.503406,0.5034 -1.741825,2.221 -2.83674,2.9273 -2.83674,1.8299 z M 1505.2616,1247 l -4.595,-5 5,4.5949 c 2.75,2.5271 5,4.7771 5,5 0,1.0181 -1.1282,0.059 -5.405,-4.5949 z m -80,-1.3334 -4.595,-5 5,4.5949 c 2.75,2.5272 5,4.7772 5,5 0,1.0182 -1.1282,0.059 -5.405,-4.5949 z m -1343.928268,3.1633 c 0,-0.2769 1.05,-1.3269 2.333333,-2.3333 2.114741,-1.6585 2.161901,-1.6114 0.503406,0.5034 -1.741825,2.221 -2.836739,2.9273 -2.836739,1.8299 z m -66.666666,-4 c 0,-0.2769 1.05,-1.3269 2.333334,-2.3333 2.114741,-1.6585 2.161901,-1.6114 0.503406,0.5034 -1.741825,2.221 -2.83674,2.9273 -2.83674,1.8299 z m 70.666665,-1.3333 c 0,-0.2769 1.05,-1.3269 2.333334,-2.3334 2.114741,-1.6585 2.161901,-1.6113 0.503406,0.5034 -1.741825,2.221 -2.83674,2.9273 -2.83674,1.83 z m 4,-5.3334 c 0,-0.2768 1.05,-1.3268 2.333334,-2.3333 2.114741,-1.6585 2.161901,-1.6113 0.503406,0.5034 -1.741825,2.221 -2.83674,2.9273 -2.83674,1.8299 z m 1325.261569,-4.4966 -4.5949,-5 5,4.5949 c 2.75,2.5272 5,4.7772 5,5 0,1.0182 -1.1283,0.059 -5.4051,-4.5949 z m 79.3212,0.6667 L 1490,1230 l 4.3333,3.9161 c 4.0393,3.6504 4.9463,4.7505 3.9161,4.7505 -0.2294,0 -2.1794,-1.95 -4.3333,-4.3333 z M 93.333331,1232.8299 c 0,-0.2769 1.05,-1.3269 2.333334,-2.3333 2.114741,-1.6585 2.161901,-1.6114 0.503406,0.5034 -1.741825,2.221 -2.83674,2.9273 -2.83674,1.8299 z M 1481.9372,1221 l -5.2706,-5.6667 5.6667,5.2706 c 5.27,4.9016 6.2793,6.0627 5.2705,6.0627 -0.2177,0 -2.7677,-2.55 -5.6666,-5.6666 z m -79.3715,-0.6667 -3.2324,-3.6667 3.6667,3.2324 c 2.0166,1.7779 3.6666,3.4279 3.6666,3.6667 0,1.0457 -1.0797,0.1947 -4.1009,-3.2324 z m -1295.89904,-4.8367 c 0,-0.2769 1.05,-1.3269 2.33334,-2.3334 2.11474,-1.6585 2.1619,-1.6113 0.5034,0.5034 -1.74182,2.221 -2.83674,2.9273 -2.83674,1.83 z m 1284.60384,-7.83 L 1386,1202 l 5.6666,5.2706 c 5.27,4.9016 6.2794,6.0627 5.2706,6.0627 -0.2178,0 -2.7678,-2.55 -5.6667,-5.6667 z m 79.3244,0.6667 -4.5949,-5 5,4.5949 c 2.75,2.5272 5,4.7772 5,5 0,1.0182 -1.1283,0.059 -5.4051,-4.5949 z m -1359.92824,1.8299 c 0,-0.2768 1.05,-1.3268 2.33334,-2.3333 2.11474,-1.6585 2.1619,-1.6113 0.5034,0.5034 -1.74182,2.221 -2.83674,2.9273 -2.83674,1.8299 z m -67.999994,-2.6666 c 0,-0.2769 1.05,-1.3269 2.333333,-2.3334 2.114741,-1.6585 2.161901,-1.6113 0.503407,0.5034 -1.741826,2.221 -2.83674,2.9273 -2.83674,1.83 z m 4,-5.3334 c 0,-0.2768 1.05,-1.3268 2.333333,-2.3333 2.114741,-1.6585 2.161901,-1.6113 0.503407,0.5034 -1.741826,2.221 -2.83674,2.9273 -2.83674,1.8299 z M 1379.9282,1195 l -4.5949,-5 5,4.5949 c 2.75,2.5271 5,4.7771 5,5 0,1.0181 -1.1283,0.059 -5.4051,-4.5949 z M 120,1198.1632 c 0,-0.2768 1.05,-1.3268 2.33333,-2.3333 2.11474,-1.6585 2.1619,-1.6113 0.50341,0.5034 -1.74183,2.221 -2.83674,2.9273 -2.83674,1.8299 z M 1457.9161,1194.3333 1454,1190 l 4.3333,3.9161 c 4.0393,3.6504 4.9463,4.7505 3.9161,4.7505 -0.2294,0 -2.1794,-1.95 -4.3333,-4.3333 z M 124,1192.8299 c 0,-0.2769 1.05,-1.3269 2.33333,-2.3333 2.11474,-1.6585 2.1619,-1.6114 0.50341,0.5034 -1.74183,2.221 -2.83674,2.9273 -2.83674,1.8299 z m -68.000001,-2.6667 c 0,-0.2768 1.05,-1.3268 2.333333,-2.3333 2.114741,-1.6585 2.161901,-1.6113 0.503407,0.5034 -1.741826,2.221 -2.83674,2.9273 -2.83674,1.8299 z M 128,1187.4966 c 0,-0.2769 1.05,-1.3269 2.33333,-2.3334 2.11474,-1.6585 2.1619,-1.6113 0.50341,0.5034 -1.74183,2.221 -2.83674,2.9273 -2.83674,1.83 z m -68.000001,-2.6667 c 0,-0.2769 1.05,-1.3269 2.333333,-2.3333 2.114741,-1.6585 2.161901,-1.6114 0.503407,0.5034 -1.741826,2.221 -2.83674,2.9273 -2.83674,1.8299 z M 1367.2494,1181 l -3.9161,-4.3334 4.3333,3.9162 c 4.0394,3.6503 4.9463,4.7505 3.9162,4.7505 -0.2295,0 -2.1795,-1.95 -4.3334,-4.3333 z m 78.6667,0 -3.9161,-4.3334 4.3333,3.9162 c 4.0393,3.6503 4.9463,4.7505 3.9161,4.7505 -0.2294,0 -2.1794,-1.95 -4.3333,-4.3333 z M 134,1180 c 1.32732,-1.4667 2.7133,-2.6667 3.07997,-2.6667 0.36667,0 -0.41932,1.2 -1.74664,2.6667 -1.32732,1.4666 -2.7133,2.6666 -3.07997,2.6666 -0.36666,0 0.41932,-1.2 1.74664,-2.6666 z m -68.666668,-1.8368 c 0,-0.2768 1.05,-1.3268 2.333333,-2.3333 2.114741,-1.6585 2.161901,-1.6113 0.503407,0.5034 -1.741825,2.221 -2.83674,2.9273 -2.83674,1.8299 z m 71.999998,-2.6666 c 0,-0.2769 1.05,-1.3269 2.33333,-2.3334 2.11475,-1.6585 2.16191,-1.6113 0.50342,0.5034 -1.74183,2.221 -2.83675,2.9273 -2.83675,1.83 z m 1219.92827,-5.83 -4.595,-5 5,4.5949 c 4.6539,4.2768 5.6131,5.4051 4.595,5.4051 -0.2228,0 -2.4728,-2.25 -5,-5 z m -1285.928268,1 c 1.327314,-1.4666 2.7133,-2.6666 3.079966,-2.6666 0.366667,0 -0.419318,1.2 -1.746633,2.6666 -1.327315,1.4667 -2.7133,2.6667 -3.079967,2.6667 -0.366666,0 0.419319,-1.2 1.746634,-2.6667 z m 1362.582768,-3 -3.9161,-4.3333 4.3333,3.9161 c 4.0393,3.6504 4.9463,4.7506 3.9161,4.7506 -0.2294,0 -2.1794,-1.95 -4.3333,-4.3334 z M 143.33333,1168 c 1.32732,-1.4667 2.71331,-2.6667 3.07997,-2.6667 0.36667,0 -0.41932,1.2 -1.74664,2.6667 -1.32732,1.4666 -2.7133,2.6666 -3.07997,2.6666 -0.36667,0 0.41932,-1.2 1.74664,-2.6666 z m -68.666665,-1.8368 c 0,-0.2768 1.05,-1.3268 2.333333,-2.3333 2.114742,-1.6585 2.161902,-1.6113 0.503407,0.5034 -1.741825,2.221 -2.83674,2.9273 -2.83674,1.8299 z m 71.999995,-2.6666 c 0,-0.2769 1.05,-1.3269 2.33334,-2.3334 2.11474,-1.6585 2.1619,-1.6113 0.50341,0.5034 -1.74183,2.221 -2.83675,2.9273 -2.83675,1.83 z m 1198.59494,-7.1633 -4.595,-5 5,4.5949 c 4.6539,4.2768 5.6131,5.4051 4.595,5.4051 -0.2228,0 -2.4728,-2.25 -5,-5 z m 77.3333,-1.3333 -4.5949,-5 5,4.5949 c 2.75,2.5272 5,4.7772 5,5 0,1.0181 -1.1283,0.059 -5.4051,-4.5949 z M 85.999998,1152 c 1.327315,-1.4667 2.7133,-2.6667 3.079967,-2.6667 0.366666,0 -0.419319,1.2 -1.746634,2.6667 -1.327314,1.4666 -2.7133,2.6666 -3.079966,2.6666 -0.366667,0 0.419318,-1.2 1.746633,-2.6666 z M 156,1151.4966 c 0,-0.2769 1.05,-1.3269 2.33333,-2.3334 2.11475,-1.6585 2.16191,-1.6113 0.50341,0.5034 -1.74182,2.221 -2.83674,2.9273 -2.83674,1.83 z m 1178.5949,-7.1633 -4.5949,-5 5,4.5949 c 4.6538,4.2768 5.613,5.4051 4.5949,5.4051 -0.2228,0 -2.4728,-2.25 -5,-5 z m -1245.261569,3.1633 c 0,-0.2769 1.05,-1.3269 2.333334,-2.3334 2.114741,-1.6585 2.161901,-1.6113 0.503406,0.5034 -1.741825,2.221 -2.83674,2.9273 -2.83674,1.83 z M 162,1144 c 1.32732,-1.4667 2.7133,-2.6667 3.07997,-2.6667 0.36667,0 -0.41932,1.2 -1.74664,2.6667 -1.32732,1.4666 -2.71331,2.6666 -3.07997,2.6666 -0.36667,0 0.41932,-1.2 1.74664,-2.6666 z m 1247.9372,-3 -5.2706,-5.6667 5.6667,5.2706 c 5.27,4.9016 6.2793,6.0627 5.2705,6.0627 -0.2177,0 -2.7677,-2.55 -5.6666,-5.6666 z M 94.666665,1140.8299 c 0,-0.2769 1.05,-1.3269 2.333333,-2.3333 2.114741,-1.6585 2.161901,-1.6114 0.503407,0.5034 -1.741826,2.221 -2.83674,2.9273 -2.83674,1.8299 z m 70.666665,-1.3333 c 0,-0.2769 1.05,-1.3269 2.33333,-2.3334 2.11475,-1.6585 2.16191,-1.6113 0.50342,0.5034 -1.74183,2.221 -2.83675,2.9273 -2.83675,1.83 z m 1157.91607,-7.83 -3.9161,-4.3333 4.3333,3.9161 c 4.0393,3.6504 4.9462,4.7506 3.9162,4.7506 -0.2295,0 -2.1795,-1.95 -4.3334,-4.3334 z m -1223.249402,2.4966 c 0,-0.2768 1.050002,-1.3268 2.333332,-2.3333 2.11474,-1.6585 2.1619,-1.6113 0.50341,0.5034 -1.74183,2.221 -2.836742,2.9273 -2.836742,1.8299 z M 1399.2705,1129 1394,1123.3333 l 5.6666,5.2706 c 5.27,4.9016 6.2794,6.0627 5.2706,6.0627 -0.2178,0 -2.7678,-2.55 -5.6667,-5.6666 z m -1228.60384,3.8299 c 0,-0.2769 1.05,-1.3269 2.33334,-2.3333 2.11474,-1.6585 2.1619,-1.6114 0.50341,0.5034 -1.74183,2.221 -2.83675,2.9273 -2.83675,1.8299 z m -65.33333,-5.3333 c 0,-0.2769 1.05,-1.3269 2.33333,-2.3334 2.11475,-1.6585 2.16191,-1.6113 0.50341,0.5034 -1.74182,2.221 -2.83674,2.9273 -2.83674,1.83 z m 69.33333,0 c 0,-0.2769 1.05,-1.3269 2.33334,-2.3334 2.11474,-1.6585 2.1619,-1.6113 0.50341,0.5034 -1.74183,2.221 -2.83675,2.9273 -2.83675,1.83 z m 1137.91614,-7.83 -3.9162,-4.3333 4.3334,3.9161 c 2.3833,2.1539 4.3333,4.1039 4.3333,4.3334 0,1.03 -1.1002,0.1232 -4.7505,-3.9162 z m -1203.24947,2.4966 c 0,-0.2768 1.05,-1.3268 2.33333,-2.3333 2.11475,-1.6585 2.16191,-1.6113 0.50341,0.5034 -1.74182,2.221 -2.83674,2.9273 -2.83674,1.8299 z M 180,1120.8299 c 0,-0.2769 1.05,-1.3269 2.33333,-2.3333 2.11475,-1.6585 2.16191,-1.6114 0.50341,0.5034 -1.74182,2.221 -2.83674,2.9273 -2.83674,1.8299 z M 1386.5949,1115 1382,1110 l 5,4.5949 c 2.75,2.5272 5,4.7772 5,5 0,1.0181 -1.1283,0.059 -5.4051,-4.5949 z m -1271.92824,0.4966 c 0,-0.2769 1.05,-1.3269 2.33334,-2.3334 2.11474,-1.6585 2.1619,-1.6113 0.5034,0.5034 -1.74182,2.221 -2.83674,2.9273 -2.83674,1.83 z m 70.66667,-1.3334 c 0,-0.2768 1.05,-1.3268 2.33333,-2.3333 2.11475,-1.6585 2.16191,-1.6113 0.50342,0.5034 -1.74183,2.221 -2.83675,2.9273 -2.83675,1.8299 z m 1115.24947,-7.8299 -3.9162,-4.3333 4.3334,3.9161 c 4.0393,3.6504 4.9462,4.7505 3.9161,4.7505 -0.2295,0 -2.1795,-1.95 -4.3333,-4.3333 z M 120,1108.8299 c 0,-0.2769 1.05,-1.3269 2.33333,-2.3333 2.11474,-1.6585 2.1619,-1.6114 0.50341,0.5034 -1.74183,2.221 -2.83674,2.9273 -2.83674,1.8299 z m 1255.2705,-6.4966 -5.2705,-5.6667 5.6666,5.2706 c 5.27,4.9016 6.2794,6.0628 5.2706,6.0628 -0.2178,0 -2.7678,-2.55 -5.6667,-5.6667 z m -1249.93717,-0.1701 c 0,-0.2768 1.05,-1.3268 2.33333,-2.3333 2.11475,-1.6585 2.16191,-1.6113 0.50341,0.5034 -1.74182,2.221 -2.83674,2.9273 -2.83674,1.8299 z m 69.33333,0 c 0,-0.2768 1.05,-1.3268 2.33334,-2.3333 2.11474,-1.6585 2.1619,-1.6113 0.50341,0.5034 -1.74183,2.221 -2.83675,2.9273 -2.83675,1.8299 z M 1289.9161,1094.3333 1286,1090 l 4.3333,3.9161 c 4.0393,3.6504 4.9462,4.7505 3.9161,4.7505 -0.2294,0 -2.1794,-1.95 -4.3333,-4.3333 z m -1089.24944,0.3333 c 1.32732,-1.4666 2.71331,-2.6666 3.07998,-2.6666 0.36666,0 -0.41932,1.2 -1.74664,2.6666 -1.32732,1.4667 -2.71331,2.6667 -3.07998,2.6667 -0.36666,0 0.41932,-1.2 1.74664,-2.6667 z m -70,0.83 c 0,-0.2769 1.05,-1.3269 2.33334,-2.3334 2.11474,-1.6585 2.1619,-1.6113 0.50341,0.5034 -1.74183,2.221 -2.83675,2.9273 -2.83675,1.83 z m 1231.24944,-7.83 -3.9161,-4.3333 4.3333,3.9161 c 4.0393,3.6504 4.9463,4.7506 3.9161,4.7506 -0.2294,0 -2.1794,-1.95 -4.3333,-4.3334 z M 206,1088 c 1.32732,-1.4667 2.7133,-2.6667 3.07997,-2.6667 0.36667,0 -0.41932,1.2 -1.74664,2.6667 -1.32732,1.4666 -2.71331,2.6666 -3.07997,2.6666 -0.36667,0 0.41932,-1.2 1.74664,-2.6666 z m -68,-1.3334 c 1.32732,-1.4666 2.7133,-2.6666 3.07997,-2.6666 0.36667,0 -0.41932,1.2 -1.74664,2.6666 -1.32732,1.4667 -2.71331,2.6667 -3.07997,2.6667 -0.36667,0 0.41932,-1.2 1.74664,-2.6667 z m 1140.5949,-5 -4.5949,-5 5,4.5949 c 2.75,2.5272 5,4.7772 5,5 0,1.0182 -1.1283,0.059 -5.4051,-4.5949 z m -1069.26157,1.83 c 0,-0.2769 1.05,-1.3269 2.33333,-2.3334 2.11475,-1.6585 2.16191,-1.6113 0.50342,0.5034 -1.74183,2.221 -2.83675,2.9273 -2.83675,1.83 z m -66,-3.4966 c 1.32732,-1.4667 2.71331,-2.6667 3.07997,-2.6667 0.36667,0 -0.41932,1.2 -1.74664,2.6667 -1.32732,1.4666 -2.7133,2.6666 -3.07997,2.6666 -0.36667,0 0.41932,-1.2 1.74664,-2.6666 z m 1207.91607,-4.3334 -3.9161,-4.3333 4.3333,3.9161 c 4.0394,3.6504 4.9463,4.7506 3.9162,4.7506 -0.2295,0 -2.1795,-1.95 -4.3334,-4.3334 z m -1136.58274,1.1633 c 0,-0.2769 1.05,-1.3269 2.33334,-2.3333 2.11474,-1.6585 2.1619,-1.6114 0.50341,0.5034 -1.74183,2.221 -2.83675,2.9273 -2.83675,1.8299 z m -68,-1.3333 c 0,-0.2769 1.05,-1.3269 2.33334,-2.3334 2.11474,-1.6585 2.1619,-1.6113 0.50341,0.5034 -1.74183,2.221 -2.83675,2.9273 -2.83675,1.83 z M 1267.2706,1069 1262,1063.3333 l 5.6666,5.2706 c 5.27,4.9016 6.2794,6.0627 5.2706,6.0627 -0.2178,0 -2.7678,-2.55 -5.6666,-5.6666 z m -1046.60394,0.3333 c 1.32732,-1.4667 2.71331,-2.6667 3.07998,-2.6667 0.36666,0 -0.41932,1.2 -1.74664,2.6667 -1.32732,1.4667 -2.71331,2.6667 -3.07998,2.6667 -0.36666,0 0.41932,-1.2 1.74664,-2.6667 z M 154,1066.6666 c 1.32732,-1.4666 2.7133,-2.6666 3.07997,-2.6666 0.36667,0 -0.41932,1.2 -1.74664,2.6666 -1.32732,1.4667 -2.71331,2.6667 -3.07997,2.6667 -0.36667,0 0.41932,-1.2 1.74664,-2.6667 z m 1185.2494,-4.3333 -3.9161,-4.3333 4.3333,3.9161 c 4.0394,3.6504 4.9463,4.7505 3.9162,4.7505 -0.2295,0 -2.1795,-1.95 -4.3334,-4.3333 z m -1113.91607,1.1633 c 0,-0.2769 1.05,-1.3269 2.33333,-2.3334 2.11475,-1.6585 2.16191,-1.6113 0.50341,0.5034 -1.74182,2.221 -2.83674,2.9273 -2.83674,1.83 z m -66,-3.4966 c 1.32732,-1.4667 2.71331,-2.6667 3.07997,-2.6667 0.36667,0 -0.41932,1.2 -1.74664,2.6667 -1.32732,1.4666 -2.7133,2.6666 -3.07997,2.6666 -0.36667,0 0.41932,-1.2 1.74664,-2.6666 z m 1096.59487,-3.6667 -4.5949,-5 5,4.5949 c 2.75,2.5272 5,4.7772 5,5 0,1.0182 -1.1283,0.059 -5.4051,-4.5949 z M 231.33333,1056 c 1.32732,-1.4667 2.7133,-2.6667 3.07997,-2.6667 0.36667,0 -0.41932,1.2 -1.74664,2.6667 -1.32732,1.4666 -2.71331,2.6666 -3.07997,2.6666 -0.36667,0 0.41932,-1.2 1.74664,-2.6666 z m -66.66667,-2.6667 c 1.32732,-1.4667 2.71331,-2.6667 3.07998,-2.6667 0.36666,0 -0.41932,1.2 -1.74664,2.6667 -1.32732,1.4667 -2.71331,2.6667 -3.07998,2.6667 -0.36666,0 0.41932,-1.2 1.74664,-2.6667 z M 1327.2706,1049 1322,1043.3333 l 5.6666,5.2706 c 5.27,4.9016 6.2794,6.0627 5.2706,6.0627 -0.2178,0 -2.7678,-2.55 -5.6666,-5.6666 z m -1090.60394,0.3333 c 1.32732,-1.4667 2.71331,-2.6667 3.07997,-2.6667 0.36667,0 -0.41932,1.2 -1.74664,2.6667 -1.32732,1.4667 -2.7133,2.6667 -3.07997,2.6667 -0.36667,0 0.41932,-1.2 1.74664,-2.6667 z M 1245.9161,1045 1242,1040.6666 l 4.3333,3.9162 c 4.0393,3.6503 4.9462,4.7505 3.9161,4.7505 -0.2294,0 -2.1794,-1.95 -4.3333,-4.3333 z m -1076.58277,2.4966 c 0,-0.2769 1.05,-1.3269 2.33333,-2.3334 2.11475,-1.6585 2.16191,-1.6113 0.50342,0.5034 -1.74183,2.221 -2.83675,2.9273 -2.83675,1.83 z m 70.66666,-2.6667 c 0,-0.2769 1.05,-1.3269 2.33334,-2.3333 2.11474,-1.6585 2.1619,-1.6114 0.50341,0.5034 -1.74183,2.221 -2.83675,2.9273 -2.83675,1.8299 z m -63.33333,-6.1633 c 1.32732,-1.4666 2.71331,-2.6666 3.07998,-2.6666 0.36666,0 -0.41932,1.2 -1.74664,2.6666 -1.32732,1.4667 -2.71331,2.6667 -3.07998,2.6667 -0.36666,0 0.41932,-1.2 1.74664,-2.6667 z m 1138.60394,-3 L 1310,1030 l 5.6666,5.2706 c 3.1167,2.8988 5.6667,5.4488 5.6667,5.6666 0,1.0088 -1.1611,-6e-4 -6.0627,-5.2706 z m -81.3545,-4 -3.9161,-4.3333 4.3333,3.9161 c 4.0393,3.6504 4.9462,4.7506 3.9161,4.7506 -0.2294,0 -2.1794,-1.95 -4.3333,-4.3334 z M 182,1032 c 1.32732,-1.4667 2.7133,-2.6667 3.07997,-2.6667 0.36667,0 -0.41932,1.2 -1.74664,2.6667 -1.32732,1.4666 -2.71331,2.6666 -3.07997,2.6666 -0.36667,0 0.41932,-1.2 1.74664,-2.6666 z m 67.33333,0.8299 c 0,-0.2769 1.05,-1.3269 2.33333,-2.3333 2.11475,-1.6585 2.16191,-1.6114 0.50341,0.5034 -1.74182,2.221 -2.83674,2.9273 -2.83674,1.8299 z m -62,-7.4966 c 1.32732,-1.4667 2.71331,-2.6667 3.07997,-2.6667 0.36667,0 -0.41932,1.2 -1.74664,2.6667 -1.32732,1.4667 -2.7133,2.6667 -3.07997,2.6667 -0.36667,0 0.41932,-1.2 1.74664,-2.6667 z m 66,2.1633 c 0,-0.2769 1.05,-1.3269 2.33333,-2.3334 2.11475,-1.6585 2.16191,-1.6113 0.50341,0.5034 -1.74182,2.221 -2.83674,2.9273 -2.83674,1.83 z M 1303.9282,1023 l -4.5949,-5 5,4.5949 c 2.75,2.5272 5,4.7772 5,5 0,1.0181 -1.1283,0.059 -5.4051,-4.5949 z m -81.3333,-4 -4.5949,-5 5,4.5949 c 4.6539,4.2768 5.613,5.4051 4.5949,5.4051 -0.2228,0 -2.4728,-2.25 -5,-5 z m -965.26157,3.1632 c 0,-0.2768 1.05,-1.3268 2.33333,-2.3333 2.11475,-1.6585 2.16191,-1.6113 0.50341,0.5034 -1.74182,2.221 -2.83674,2.9273 -2.83674,1.8299 z M 192,1019.4966 c 0,-0.2769 1.05,-1.3269 2.33333,-2.3334 2.11475,-1.6585 2.16191,-1.6113 0.50341,0.5034 -1.74182,2.221 -2.83674,2.9273 -2.83674,1.83 z M 1291.2706,1009 1286,1003.3333 l 5.6666,5.2706 c 5.27,4.9016 6.2794,6.0627 5.2706,6.0627 -0.2178,0 -2.7678,-2.55 -5.6666,-5.6666 z m -1093.93727,3.8299 c 0,-0.2769 1.05,-1.3269 2.33333,-2.3333 2.11475,-1.6585 2.16191,-1.6114 0.50342,0.5034 -1.74183,2.221 -2.83675,2.9273 -2.83675,1.8299 z m 69.33333,-2.6667 c 0,-0.2768 1.05,-1.3268 2.33333,-2.3333 2.11475,-1.6585 2.16191,-1.6113 0.50342,0.5034 -1.74183,2.221 -2.83675,2.9273 -2.83675,1.8299 z M 1209.9161,1005 1206,1000.6666 l 4.3333,3.9162 c 4.0393,3.6503 4.9462,4.7505 3.9161,4.7505 -0.2294,0 -2.1794,-1.95 -4.3333,-4.3333 z m -1007.24944,1.1632 c 0,-0.2768 1.05,-1.3268 2.33334,-2.3333 2.11474,-1.6585 2.1619,-1.6113 0.50341,0.5034 -1.74183,2.221 -2.83675,2.9273 -2.83675,1.8299 z m 68,-1.3333 c 0,-0.2769 1.05,-1.3269 2.33333,-2.3333 2.11475,-1.6585 2.16191,-1.6114 0.50342,0.5034 -1.74183,2.221 -2.83675,2.9273 -2.83675,1.8299 z M 210,997.33331 c 1.32732,-1.46667 2.7133,-2.66667 3.07997,-2.66667 0.36667,0 -0.41932,1.2 -1.74664,2.66667 -1.32732,1.46666 -2.71331,2.66666 -3.07997,2.66666 -0.36667,0 0.41932,-1.2 1.74664,-2.66666 z m 64.66666,2.16325 c 0,-0.27687 1.05,-1.32687 2.33333,-2.33333 2.11475,-1.6585 2.16191,-1.61134 0.50342,0.50341 -1.74183,2.221 -2.83675,2.92726 -2.83675,1.82992 z m 1004.58274,-3.82992 -3.9161,-4.33333 4.3333,3.91612 c 4.0393,3.65037 4.9462,4.75054 3.9162,4.75054 -0.2295,0 -2.1795,-1.95 -4.3334,-4.33333 z m -80,-2.66667 -3.9161,-4.33333 4.3333,3.91612 c 4.0393,3.65037 4.9462,4.75055 3.9162,4.75055 -0.2295,0 -2.1795,-1.95 -4.3334,-4.33334 z m -920.58274,1.16326 c 0,-0.27687 1.05,-1.32687 2.33333,-2.33334 2.11475,-1.65849 2.16191,-1.61133 0.50342,0.50342 -1.74183,2.221 -2.83675,2.9273 -2.83675,1.82992 z m -65.33333,-1.33334 c 0,-0.27686 1.05,-1.32686 2.33333,-2.33333 2.11475,-1.65849 2.16191,-1.61133 0.50342,0.50341 -1.74183,2.221 -2.83675,2.92731 -2.83675,1.82992 z m 69.33333,-4 c 0,-0.27686 1.05,-1.32686 2.33333,-2.33333 2.11475,-1.65849 2.16191,-1.61133 0.50342,0.50341 -1.74183,2.221 -2.83675,2.92731 -2.83675,1.82992 z m -62,-4.82992 c 1.32732,-1.46666 2.71331,-2.66666 3.07998,-2.66666 0.36666,0 -0.41932,1.2 -1.74664,2.66666 -1.32732,1.46667 -2.71331,2.66667 -3.07998,2.66667 -0.36666,0 0.41932,-1.2 1.74664,-2.66667 z m 967.93724,-3 -5.2706,-5.66666 5.6667,5.2706 c 5.2699,4.9016 6.2793,6.06273 5.2706,6.06273 -0.2179,0 -2.7679,-2.55 -5.6667,-5.66667 z m 78.6455,1.33334 -3.9161,-4.33333 4.3333,3.91611 c 4.0393,3.65038 4.9462,4.75055 3.9162,4.75055 -0.2295,0 -2.1795,-1.95 -4.3334,-4.33333 z m -980.58274,1.16325 c 0,-0.27687 1.05,-1.32687 2.33333,-2.33333 2.11475,-1.6585 2.16191,-1.61134 0.50342,0.50341 -1.74183,2.221 -2.83675,2.92731 -2.83675,1.82992 z M 226,977.33331 c 1.32732,-1.46667 2.7133,-2.66667 3.07997,-2.66667 0.36666,0 -0.41932,1.2 -1.74664,2.66667 -1.32732,1.46667 -2.71331,2.66666 -3.07997,2.66666 -0.36667,0 0.41932,-1.19999 1.74664,-2.66666 z m 1029.9282,-7.66667 -4.5949,-5 5,4.5949 c 2.75,2.52718 5,4.77718 5,5 0,1.01816 -1.1283,0.0589 -5.4051,-4.5949 z m -1024.59487,1 c 1.32732,-1.46666 2.7133,-2.66666 3.07997,-2.66666 0.36667,0 -0.41932,1.2 -1.74664,2.66666 -1.32732,1.46667 -2.71331,2.66667 -3.07997,2.66667 -0.36667,0 0.41932,-1.2 1.74664,-2.66667 z m 945.92817,-2.33333 -4.5949,-5 5,4.59489 c 4.6539,4.27682 5.6131,5.40511 4.5949,5.40511 -0.2228,0 -2.4728,-2.25 -5,-5 z m -940.59484,-4.33333 c 1.32732,-1.46667 2.71331,-2.66667 3.07997,-2.66667 0.36667,0 -0.41932,1.2 -1.74664,2.66667 -1.32732,1.46666 -2.7133,2.66666 -3.07997,2.66666 -0.36667,0 0.41932,-1.2 1.74664,-2.66666 z m 5.33333,-6.66667 c 1.32732,-1.46667 2.71331,-2.66667 3.07998,-2.66667 0.36666,0 -0.41932,1.2 -1.74664,2.66667 -1.32732,1.46667 -2.71331,2.66667 -3.07998,2.66667 -0.36666,0 0.41932,-1.2 1.74664,-2.66667 z m 923.91611,-1.66667 -3.9161,-4.33333 4.3333,3.91612 c 4.0393,3.65037 4.9462,4.75055 3.9161,4.75055 -0.2294,0 -2.1794,-1.95 -4.3333,-4.33334 z m 77.3333,0 -3.9161,-4.33333 4.3333,3.91612 c 4.0393,3.65037 4.9462,4.75055 3.9162,4.75055 -0.2295,0 -2.1795,-1.95 -4.3334,-4.33334 z m -935.24941,-0.17008 c 0,-0.27686 1.05,-1.32686 2.33334,-2.33333 2.11474,-1.65849 2.1619,-1.61133 0.50341,0.50341 -1.74183,2.221 -2.83675,2.92731 -2.83675,1.82992 z m -60.66666,-4.82992 c 1.32732,-1.46666 2.7133,-2.66666 3.07997,-2.66666 0.36667,0 -0.41932,1.2 -1.74664,2.66666 -1.32732,1.46667 -2.71331,2.66667 -3.07997,2.66667 -0.36667,0 0.41932,-1.2 1.74664,-2.66667 z m 64.66666,-0.50341 c 0,-0.27687 1.05,-1.32687 2.33334,-2.33333 2.11474,-1.6585 2.1619,-1.61134 0.50341,0.50341 -1.74183,2.221 -2.83675,2.92731 -2.83675,1.82992 z m 843.24941,-6.49659 -3.9161,-4.33333 4.3333,3.91612 c 4.0393,3.65037 4.9462,4.75055 3.9162,4.75055 -0.2295,0 -2.1795,-1.95 -4.3334,-4.33334 z m 76.6788,-0.66666 -4.5949,-5 5,4.59489 c 4.6539,4.27681 5.6131,5.40511 4.5949,5.40511 -0.2228,0 -2.4728,-2.25 -5,-5 z m -981.26154,3.16325 c 0,-0.27687 1.05,-1.32687 2.33333,-2.33333 2.11475,-1.6585 2.16191,-1.61134 0.50342,0.50341 -1.74183,2.221 -2.83675,2.92731 -2.83675,1.82992 z m 65.33333,-1.33333 c 0,-0.27687 1.05,-1.32687 2.33334,-2.33334 2.11474,-1.65849 2.1619,-1.61133 0.50341,0.50342 -1.74183,2.221 -2.83675,2.9273 -2.83675,1.82992 z m -60,-5.33334 c 0,-0.27686 1.05,-1.32686 2.33334,-2.33333 2.11474,-1.65849 2.1619,-1.61133 0.50341,0.50341 -1.74183,2.221 -2.83675,2.92731 -2.83675,1.82992 z m 66,-2.16325 c 1.32732,-1.46667 2.71331,-2.66667 3.07998,-2.66667 0.36666,0 -0.41932,1.2 -1.74664,2.66667 -1.32732,1.46667 -2.71331,2.66667 -3.07998,2.66667 -0.36666,0 0.41932,-1.2 1.74664,-2.66667 z m 821.24941,-7 -3.9161,-4.33333 4.3333,3.91612 c 4.0393,3.65037 4.9462,4.75054 3.9162,4.75054 -0.2295,0 -2.1795,-1.95 -4.3334,-4.33333 z m 76.6788,-0.66667 -4.5949,-5 5,4.5949 c 2.75,2.52718 5,4.77718 5,5 0,1.01816 -1.1283,0.0589 -5.4051,-4.5949 z m -958.59487,3.16326 c 0,-0.27687 1.05,-1.32687 2.33333,-2.33334 2.11475,-1.65849 2.16191,-1.61133 0.50341,0.50342 -1.74182,2.221 -2.83674,2.9273 -2.83674,1.82992 z m 64,0 c 0,-0.27687 1.05,-1.32687 2.33333,-2.33334 2.11475,-1.65849 2.16191,-1.61133 0.50341,0.50342 -1.74182,2.221 -2.83674,2.9273 -2.83674,1.82992 z m 4,-5.33334 c 0,-0.27686 1.05,-1.32686 2.33333,-2.33333 2.11475,-1.65849 2.16191,-1.61133 0.50341,0.50341 -1.74182,2.221 -2.83674,2.92731 -2.83674,1.82992 z m -62.66667,-1.33333 c 0,-0.27687 1.05,-1.32687 2.33333,-2.33333 2.11475,-1.6585 2.16191,-1.61134 0.50342,0.50341 -1.74183,2.221 -2.83675,2.92731 -2.83675,1.82992 z m 66.66667,-4 c 0,-0.27687 1.05,-1.32687 2.33333,-2.33333 2.11475,-1.6585 2.16191,-1.61134 0.50341,0.50341 -1.74182,2.221 -2.83674,2.92731 -2.83674,1.82992 z m 799.24947,-3.82992 -3.9162,-4.33333 4.3334,3.91612 c 4.0393,3.65037 4.9462,4.75054 3.9161,4.75054 -0.2295,0 -2.1795,-1.95 -4.3333,-4.33333 z m -860.58281,1.16325 c 0,-0.27686 1.05,-1.32686 2.33334,-2.33333 2.11474,-1.65849 2.1619,-1.61133 0.50341,0.50341 -1.74183,2.221 -2.83675,2.92731 -2.83675,1.82992 z m 935.24941,-3.82992 -3.9161,-4.33333 4.3333,3.91612 c 4.0393,3.65037 4.9462,4.75055 3.9162,4.75055 -0.2295,0 -2.1795,-1.95 -4.3334,-4.33334 z m -868.58274,-0.17008 c 0,-0.27686 1.05,-1.32686 2.33333,-2.33333 2.11475,-1.65849 2.16191,-1.61133 0.50342,0.50341 -1.74183,2.221 -2.83675,2.92731 -2.83675,1.82992 z m -61.33333,-2.66666 c 0,-0.27687 1.05,-1.32687 2.33333,-2.33334 2.11475,-1.65849 2.16191,-1.61133 0.50341,0.50342 -1.74182,2.221 -2.83674,2.9273 -2.83674,1.82992 z m 843.24947,-7.82992 -3.9162,-4.33334 4.3334,3.91612 c 4.0393,3.65038 4.9462,4.75055 3.9161,4.75055 -0.2295,0 -2.1795,-1.95 -4.3333,-4.33333 z m -837.91614,1.16325 c 0,-0.27687 1.05,-1.32687 2.33333,-2.33333 2.11475,-1.6585 2.16191,-1.61134 0.50342,0.50341 -1.74183,2.221 -2.83675,2.92731 -2.83675,1.82992 z m 912.58274,-3.82992 -3.9161,-4.33333 4.3333,3.91612 c 4.0393,3.65037 4.9462,4.75054 3.9162,4.75054 -0.2295,0 -2.1795,-1.95 -4.3334,-4.33333 z m -847.24941,1.16325 c 0,-0.27686 1.05,-1.32686 2.33334,-2.33333 2.11474,-1.65849 2.1619,-1.61133 0.50341,0.50341 -1.74183,2.221 -2.83675,2.92731 -2.83675,1.82992 z m -60,-4 c 0,-0.27686 1.05,-1.32686 2.33334,-2.33333 2.11474,-1.65849 2.1619,-1.61133 0.50341,0.50341 -1.74183,2.221 -2.83675,2.92731 -2.83675,1.82992 z m 822.59491,-5.82992 -4.5949,-5 5,4.5949 c 4.6539,4.27681 5.613,5.4051 4.5949,5.4051 -0.2228,0 -2.4728,-2.25 -5,-5 z m -757.26157,3.16326 c 0,-0.27687 1.05,-1.32687 2.33333,-2.33334 2.11475,-1.65849 2.16191,-1.61133 0.50341,0.50342 -1.74182,2.221 -2.83674,2.9273 -2.83674,1.82992 z m -59.33334,-4.82992 c 1.32732,-1.46667 2.71331,-2.66667 3.07998,-2.66667 0.36666,0 -0.41932,1.2 -1.74664,2.66667 -1.32732,1.46666 -2.71331,2.66666 -3.07998,2.66666 -0.36666,0 0.41932,-1.2 1.74664,-2.66666 z m 889.92821,-2.33334 -4.5949,-5 5,4.5949 c 4.6539,4.27681 5.6131,5.4051 4.5949,5.4051 -0.2228,0 -2.4728,-2.25 -5,-5 z m -825.26154,0.49659 c 0,-0.27687 1.05,-1.32687 2.33333,-2.33333 2.11475,-1.6585 2.16191,-1.61134 0.50342,0.50341 -1.74183,2.221 -2.83675,2.92731 -2.83675,1.82992 z m -59.33333,-4.82992 c 1.32732,-1.46667 2.7133,-2.66667 3.07997,-2.66667 0.36667,0 -0.41932,1.2 -1.74664,2.66667 -1.32732,1.46667 -2.71331,2.66667 -3.07997,2.66667 -0.36667,0 0.41932,-1.2 1.74664,-2.66667 z m 64.66666,-1.83675 c 0,-0.27686 1.05,-1.32686 2.33334,-2.33333 2.11474,-1.65849 2.1619,-1.61133 0.50341,0.50341 -1.74183,2.221 -2.83675,2.92731 -2.83675,1.82992 z m 733.91611,-3.82992 -3.9161,-4.33333 4.3333,3.91612 c 4.0393,3.65037 4.9462,4.75055 3.9161,4.75055 -0.2294,0 -2.1794,-1.95 -4.3333,-4.33334 z m 73.3333,-4 -3.9161,-4.33333 4.3333,3.91612 c 4.0393,3.65037 4.9462,4.75055 3.9162,4.75055 -0.2295,0 -2.1795,-1.95 -4.3334,-4.33334 z m -801.91607,1.16326 c 0,-0.27687 1.05,-1.32687 2.33333,-2.33334 2.11475,-1.65849 2.16191,-1.61133 0.50341,0.50342 -1.74182,2.221 -2.83674,2.9273 -2.83674,1.82992 z m 5.33333,-6.66667 c 0,-0.27687 1.05,-1.32687 2.33333,-2.33333 2.11475,-1.6585 2.16191,-1.61134 0.50342,0.50341 -1.74183,2.221 -2.83675,2.92731 -2.83675,1.82992 z m 711.24944,-3.82992 -3.9161,-4.33333 4.3333,3.91612 c 4.0393,3.65037 4.9462,4.75054 3.9161,4.75054 -0.2294,0 -2.1794,-1.95 -4.3333,-4.33333 z m -772.58277,1.16325 c 0,-0.27686 1.05,-1.32686 2.33333,-2.33333 2.11475,-1.65849 2.16191,-1.61133 0.50341,0.50341 -1.74182,2.221 -2.83674,2.92731 -2.83674,1.82992 z m 846.59487,-4.49658 -4.5949,-5 5,4.59489 c 4.6539,4.27681 5.6131,5.40511 4.5949,5.40511 -0.2228,0 -2.4728,-2.25 -5,-5 z m -779.92821,0.49658 c 0,-0.27686 1.05,-1.32686 2.33333,-2.33333 2.11475,-1.65849 2.16191,-1.61133 0.50342,0.50341 -1.74183,2.221 -2.83675,2.92731 -2.83675,1.82992 z m -61.33333,-2.66666 c 0,-0.27687 1.05,-1.32687 2.33333,-2.33334 2.11475,-1.65849 2.16191,-1.61133 0.50342,0.50342 -1.74183,2.221 -2.83675,2.9273 -2.83675,1.82992 z m 756.58274,-6.49659 -3.9161,-4.33333 4.3333,3.91612 c 4.0393,3.65037 4.9462,4.75054 3.9162,4.75054 -0.2295,0 -2.1795,-1.95 -4.3334,-4.33333 z m -689.91608,2.49659 c 0,-0.27687 1.05,-1.32687 2.33334,-2.33334 2.11474,-1.65849 2.1619,-1.61133 0.50341,0.50342 -1.74183,2.221 -2.83675,2.9273 -2.83675,1.82992 z m -61.33333,-2.66667 c 0,-0.27687 1.05,-1.32687 2.33334,-2.33333 2.11474,-1.6585 2.1619,-1.61134 0.50341,0.50341 -1.74183,2.221 -2.83675,2.92731 -2.83675,1.82992 z m 823.92821,-4.49659 -4.5949,-4.99999 5,4.59489 c 2.75,2.52718 5,4.77718 5,5 0,1.01816 -1.1283,0.0589 -5.4051,-4.5949 z M 391.99999,848.8299 c 0,-0.27687 1.05,-1.32687 2.33333,-2.33333 2.11475,-1.6585 2.16191,-1.61134 0.50342,0.50341 -1.74183,2.221 -2.83675,2.9273 -2.83675,1.82992 z m -62.66666,-1.33333 c 0,-0.27687 1.05,-1.32687 2.33333,-2.33334 2.11475,-1.65849 2.16191,-1.61133 0.50341,0.50342 -1.74182,2.221 -2.83674,2.9273 -2.83674,1.82992 z m 735.27057,-5.16326 -5.2706,-5.66666 5.6667,5.2706 c 5.2699,4.9016 6.2793,6.06273 5.2706,6.06273 -0.2179,0 -2.7679,-2.55 -5.6667,-5.66667 z m -667.27058,-0.17008 c 0,-0.27686 1.05,-1.32686 2.33334,-2.33333 2.11474,-1.65849 2.1619,-1.61133 0.50341,0.50341 -1.74183,2.221 -2.83675,2.92731 -2.83675,1.82992 z m 739.27058,-5.16325 -5.2706,-5.66667 5.6667,5.2706 c 5.2699,4.9016 6.2793,6.06274 5.2706,6.06274 -0.2179,0 -2.7679,-2.55 -5.6667,-5.66667 z m -801.93724,3.82992 c 0,-0.27687 1.05,-1.32687 2.33333,-2.33333 2.11475,-1.6585 2.16191,-1.61134 0.50342,0.50341 -1.74183,2.221 -2.83675,2.92731 -2.83675,1.82992 z m 68.66666,-6.16325 c 1.32732,-1.46667 2.71331,-2.66667 3.07998,-2.66667 0.36666,0 -0.41932,1.2 -1.74664,2.66667 -1.32732,1.46666 -2.71331,2.66666 -3.07998,2.66666 -0.36666,0 0.41932,-1.2 1.74664,-2.66666 z m 649.24948,-5.66667 -3.9162,-4.33333 4.3334,3.91612 c 4.0393,3.65037 4.9462,4.75054 3.9161,4.75054 -0.2295,0 -2.1795,-1.95 -4.3333,-4.33333 z m -642.58281,-2.33333 c 1.32732,-1.46667 2.71331,-2.66667 3.07997,-2.66667 0.36667,0 -0.41932,1.2 -1.74664,2.66667 -1.32732,1.46666 -2.7133,2.66666 -3.07997,2.66666 -0.36667,0 0.41932,-1.2 1.74664,-2.66666 z m -64.66666,0.82992 c 0,-0.27687 1.05,-1.32687 2.33333,-2.33334 2.11475,-1.65849 2.16191,-1.61133 0.50341,0.50342 -1.74182,2.221 -2.83674,2.9273 -2.83674,1.82992 z m 779.24947,-3.82992 -3.9162,-4.33334 4.3334,3.91612 c 4.0393,3.65038 4.9462,4.75055 3.9161,4.75055 -0.2295,0 -2.1795,-1.95 -4.3333,-4.33333 z m -709.24948,-3.66667 c 1.32732,-1.46667 2.71331,-2.66667 3.07998,-2.66667 0.36666,0 -0.41932,1.2 -1.74664,2.66667 -1.32732,1.46667 -2.71331,2.66667 -3.07998,2.66667 -0.36666,0 0.41932,-1.2 1.74664,-2.66667 z m 625.92818,-3.66667 -4.5949,-5 5,4.5949 c 4.6539,4.27681 5.6131,5.4051 4.5949,5.4051 -0.2228,0 -2.4728,-2.25 -5,-5 z m -686.59484,-0.83674 c 0,-0.27687 1.05,-1.32687 2.33333,-2.33334 2.11475,-1.65849 2.16191,-1.61133 0.50342,0.50342 -1.74183,2.221 -2.83675,2.9273 -2.83675,1.82992 z m 66,-2.16326 c 1.32732,-1.46666 2.7133,-2.66666 3.07997,-2.66666 0.36667,0 -0.41932,1.2 -1.74664,2.66666 -1.32732,1.46667 -2.71331,2.66667 -3.07997,2.66667 -0.36667,0 0.41932,-1.2 1.74664,-2.66667 z m 691.91614,-3 -3.9162,-4.33333 4.3334,3.91612 c 4.0393,3.65037 4.9462,4.75055 3.9161,4.75055 -0.2295,0 -2.1795,-1.95 -4.3333,-4.33334 z M 359.99999,808.8299 c 0,-0.27687 1.05,-1.32687 2.33334,-2.33333 2.11474,-1.6585 2.1619,-1.61134 0.50341,0.50341 -1.74183,2.221 -2.83675,2.92731 -2.83675,1.82992 z m 669.93721,-5.16325 -5.2706,-5.66667 5.6667,5.2706 c 5.27,4.9016 6.2794,6.06273 5.2706,6.06273 -0.2178,0 -2.7678,-2.55 -5.6667,-5.66666 z m -604.60388,3.82992 c 0,-0.27687 1.05,-1.32687 2.33334,-2.33334 2.11474,-1.65849 2.1619,-1.61133 0.50341,0.50342 -1.74183,2.221 -2.83675,2.9273 -2.83675,1.82992 z m -59.99999,-5.33334 c 0,-0.27686 1.05,-1.32686 2.33333,-2.33333 2.11475,-1.65849 2.16191,-1.61133 0.50341,0.50341 -1.74182,2.221 -2.83674,2.92731 -2.83674,1.82992 z m 67.33333,-3.49658 c 1.32732,-1.46667 2.7133,-2.66667 3.07997,-2.66667 0.36667,0 -0.41932,1.2 -1.74664,2.66667 -1.32732,1.46666 -2.71331,2.66666 -3.07997,2.66666 -0.36667,0 0.41932,-1.2 1.74664,-2.66666 z m 667.91614,-1.66667 -3.9162,-4.33333 4.3334,3.91612 c 4.0393,3.65037 4.9462,4.75054 3.9161,4.75054 -0.2295,0 -2.1795,-1.95 -4.3333,-4.33333 z m -729.91614,-1.50341 c 0,-0.27687 1.05,-1.32687 2.33333,-2.33334 2.11475,-1.65849 2.16191,-1.61133 0.50342,0.50342 -1.74183,2.221 -2.83675,2.9273 -2.83675,1.82992 z m 648.58274,-3.82992 -3.9161,-4.33334 4.3333,3.91612 c 4.0393,3.65038 4.9462,4.75055 3.9162,4.75055 -0.2295,0 -2.1795,-1.95 -4.3334,-4.33333 z m -581.24941,0.33333 c 1.32732,-1.46667 2.71331,-2.66667 3.07997,-2.66667 0.36667,0 -0.41932,1.2 -1.74664,2.66667 -1.32732,1.46667 -2.7133,2.66667 -3.07997,2.66667 -0.36667,0 0.41932,-1.2 1.74664,-2.66667 z m -61.33333,-4 c 1.32732,-1.46667 2.7133,-2.66667 3.07997,-2.66667 0.36667,0 -0.41932,1.2 -1.74664,2.66667 -1.32732,1.46667 -2.7133,2.66667 -3.07997,2.66667 -0.36667,0 0.41932,-1.2 1.74664,-2.66667 z m 66.66666,-2.66667 c 1.32732,-1.46666 2.71331,-2.66666 3.07998,-2.66666 0.36666,0 -0.41932,1.2 -1.74664,2.66666 -1.32732,1.46667 -2.71331,2.66667 -3.07998,2.66667 -0.36666,0 0.41932,-1.2 1.74664,-2.66667 z m 645.24948,-1.66666 -3.9162,-4.33334 4.3334,3.91612 c 4.0393,3.65038 4.9462,4.75055 3.9161,4.75055 -0.2295,0 -2.1795,-1.95 -4.3333,-4.33333 z m -81.9879,-6 -4.5949,-5 5,4.59489 c 4.6539,4.27681 5.613,5.40511 4.5949,5.40511 -0.2228,0 -2.4728,-2.25 -5,-5 z m -558.59491,1.82992 c 0,-0.27687 1.05,-1.32687 2.33333,-2.33334 2.11475,-1.65849 2.16191,-1.61133 0.50342,0.50342 -1.74183,2.221 -2.83675,2.9273 -2.83675,1.82992 z m -62.66667,-2.66667 c 0,-0.27687 1.05,-1.32687 2.33334,-2.33333 2.11474,-1.6585 2.1619,-1.61134 0.50341,0.50341 -1.74183,2.221 -2.83675,2.92731 -2.83675,1.82992 z m 690.59488,-7.16325 -4.5949,-5 5,4.59489 c 4.6539,4.27681 5.6131,5.40511 4.5949,5.40511 -0.2228,0 -2.4728,-2.25 -5,-5 z m -620.59488,1 c 1.32732,-1.46667 2.71331,-2.66667 3.07998,-2.66667 0.36666,0 -0.41932,1.2 -1.74664,2.66667 -1.32732,1.46666 -2.71331,2.66666 -3.07998,2.66666 -0.36666,0 0.41932,-1.2 1.74664,-2.66666 z m -64.66666,-0.50342 c 0,-0.27686 1.05,-1.32686 2.33333,-2.33333 2.11475,-1.65849 2.16191,-1.61133 0.50341,0.50341 -1.74182,2.221 -2.83674,2.92731 -2.83674,1.82992 z m 604.60392,-5.16325 -5.2706,-5.66667 5.66666,5.2706 c 5.26996,4.9016 6.27936,6.06274 5.27056,6.06274 -0.2178,0 -2.7678,-2.55 -5.66662,-5.66667 z m -534.60392,-1 c 1.32732,-1.46667 2.7133,-2.66667 3.07997,-2.66667 0.36667,0 -0.41932,1.2 -1.74664,2.66667 -1.32732,1.46667 -2.71331,2.66667 -3.07997,2.66667 -0.36667,0 0.41932,-1.2 1.74664,-2.66667 z m -64.66667,-0.50341 c 0,-0.27687 1.05,-1.32687 2.33333,-2.33334 2.11475,-1.65849 2.16191,-1.61133 0.50342,0.50342 -1.74183,2.221 -2.83675,2.9273 -2.83675,1.82992 z m 668.60391,-6.49659 -5.2706,-5.66667 5.6667,5.2706 c 5.2699,4.9016 6.2793,6.06274 5.2706,6.06274 -0.2179,0 -2.7679,-2.55 -5.6667,-5.66667 z m -598.60391,0.33333 c 1.32732,-1.46666 2.71331,-2.66666 3.07997,-2.66666 0.36667,0 -0.41932,1.2 -1.74664,2.66666 -1.32732,1.46667 -2.7133,2.66667 -3.07997,2.66667 -0.36667,0 0.41932,-1.2 1.74664,-2.66667 z m -64.66667,-0.50341 c 0,-0.27687 1.05,-1.32687 2.33334,-2.33333 2.11474,-1.6585 2.1619,-1.61134 0.50341,0.50341 -1.74183,2.221 -2.83675,2.92731 -2.83675,1.82992 z m 582.59489,-4.49659 -4.5949,-5 5,4.5949 c 2.75,2.52718 5,4.77718 5,5 0,1.01816 -1.12829,0.0589 -5.4051,-4.5949 z m -576.59489,-3 c 1.32732,-1.46666 2.71331,-2.66666 3.07998,-2.66666 0.36666,0 -0.41932,1.2 -1.74664,2.66666 -1.32732,1.46667 -2.71331,2.66667 -3.07998,2.66667 -0.36666,0 0.41932,-1.2 1.74664,-2.66667 z m 63.33334,2.16326 c 0,-0.27687 1.05,-1.32687 2.33333,-2.33334 2.11475,-1.65849 2.16191,-1.61133 0.50341,0.50342 -1.74182,2.221 -2.83674,2.9273 -2.83674,1.82992 z m 581.91614,-7.82992 -3.9162,-4.33334 4.3334,3.91612 c 4.0393,3.65038 4.9462,4.75055 3.9161,4.75055 -0.2295,0 -2.1795,-1.95 -4.3333,-4.33333 z m -640.58281,-0.17008 c 0,-0.27687 1.05,-1.32687 2.33333,-2.33334 2.11475,-1.65849 2.16191,-1.61133 0.50342,0.50342 -1.74183,2.221 -2.83675,2.9273 -2.83675,1.82992 z m 65.33333,0 c 0,-0.27687 1.05,-1.32687 2.33334,-2.33334 2.11474,-1.65849 2.1619,-1.61133 0.50341,0.50342 -1.74183,2.221 -2.83675,2.9273 -2.83675,1.82992 z m 495.24945,-3.82992 -3.91612,-4.33334 4.33333,3.91612 c 4.03928,3.65038 4.9462,4.75055 3.91612,4.75055 -0.22947,0 -2.17947,-1.95 -4.33333,-4.33333 z m -556.58278,-1.50342 c 0,-0.27686 1.05,-1.32686 2.33333,-2.33333 2.11475,-1.65849 2.16191,-1.61133 0.50342,0.50341 -1.74183,2.221 -2.83675,2.92731 -2.83675,1.82992 z m 66.66667,-1.33333 c 0,-0.27687 1.05,-1.32687 2.33333,-2.33333 2.11475,-1.6585 2.16191,-1.61134 0.50341,0.50341 -1.74182,2.221 -2.83674,2.92731 -2.83674,1.82992 z m 557.93724,-6.49659 -5.2706,-5.66666 5.6667,5.2706 c 5.2699,4.9016 6.2794,6.06273 5.2706,6.06273 -0.2179,0 -2.7679,-2.55 -5.6667,-5.66667 z m -619.27058,1.16326 c 0,-0.27687 1.05,-1.32687 2.33334,-2.33334 2.11474,-1.65849 2.1619,-1.61133 0.50341,0.50342 -1.74183,2.221 -2.83675,2.9273 -2.83675,1.82992 z m 68.66667,-3.49659 c 1.32732,-1.46667 2.71331,-2.66667 3.07997,-2.66667 0.36667,0 -0.41932,1.2 -1.74664,2.66667 -1.32732,1.46667 -2.7133,2.66667 -3.07997,2.66667 -0.36667,0 0.41932,-1.2 1.74664,-2.66667 z m 470.58278,-1.66667 -3.91612,-4.33333 4.33333,3.91612 c 4.03928,3.65037 4.9462,4.75055 3.91612,4.75055 -0.22947,0 -2.17947,-1.95 -4.33333,-4.33334 z M 426.66666,724.8299 c 0,-0.27687 1.05,-1.32687 2.33333,-2.33333 2.11475,-1.6585 2.16191,-1.61134 0.50341,0.50341 -1.74182,2.221 -2.83674,2.92731 -2.83674,1.82992 z m 68.66666,-3.49659 c 1.32732,-1.46666 2.71331,-2.66666 3.07998,-2.66666 0.36666,0 -0.41932,1.2 -1.74664,2.66666 -1.32732,1.46667 -2.71331,2.66667 -3.07998,2.66667 -0.36666,0 0.41932,-1.2 1.74664,-2.66667 z m 533.24948,-4.33333 -3.9162,-4.33333 4.3334,3.91612 c 4.0393,3.65037 4.9462,4.75054 3.9161,4.75054 -0.2295,0 -2.1795,-1.95 -4.3333,-4.33333 z m -596.58281,1.16325 c 0,-0.27686 1.05,-1.32686 2.33333,-2.33333 2.11475,-1.65849 2.16191,-1.61133 0.50342,0.50342 -1.74183,2.22099 -2.83675,2.9273 -2.83675,1.82991 z m 516.60392,-5.16325 -5.2706,-5.66666 5.66667,5.2706 c 5.26995,4.9016 6.27937,6.06273 5.2706,6.06273 -0.21784,0 -2.76784,-2.55 -5.66667,-5.66667 z m -446.60392,0.33334 c 1.32732,-1.46667 2.71331,-2.66667 3.07997,-2.66667 0.36667,0 -0.41932,1.2 -1.74664,2.66667 -1.32732,1.46666 -2.7133,2.66666 -3.07997,2.66666 -0.36667,0 0.41932,-1.2 1.74664,-2.66666 z m -64,-2.66667 c 1.32732,-1.46667 2.71331,-2.66667 3.07997,-2.66667 0.36667,0 -0.41932,1.2 -1.74664,2.66667 -1.32732,1.46667 -2.7133,2.66667 -3.07997,2.66667 -0.36667,0 0.41932,-1.2 1.74664,-2.66667 z m 69.33333,-4 c 1.32732,-1.46667 2.71331,-2.66667 3.07998,-2.66667 0.36666,0 -0.41932,1.2 -1.74664,2.66667 -1.32732,1.46667 -2.71331,2.66667 -3.07998,2.66667 -0.36666,0 0.41932,-1.2 1.74664,-2.66667 z m 509.24948,-3 -3.9162,-4.33333 4.3334,3.91612 c 4.0393,3.65037 4.9462,4.75054 3.9161,4.75054 -0.2295,0 -2.1795,-1.95 -4.3333,-4.33333 z m -573.24948,0.33333 c 1.32732,-1.46666 2.71331,-2.66666 3.07998,-2.66666 0.36666,0 -0.41932,1.2 -1.74664,2.66666 -1.32732,1.46667 -2.71331,2.66667 -3.07998,2.66667 -0.36666,0 0.41932,-1.2 1.74664,-2.66667 z m 493.92822,-3.66666 -4.59489,-5 5,4.59489 c 4.65389,4.27681 5.61305,5.40511 4.59489,5.40511 -0.22281,0 -2.47281,-2.25 -5,-5 z m -424.59488,-0.33334 c 1.32732,-1.46666 2.7133,-2.66666 3.07997,-2.66666 0.36667,0 -0.41932,1.2 -1.74664,2.66666 -1.32732,1.46667 -2.71331,2.66667 -3.07997,2.66667 -0.36667,0 0.41932,-1.2 1.74664,-2.66667 z m -66,-0.50341 c 0,-0.27687 1.05,-1.32687 2.33333,-2.33333 2.11475,-1.6585 2.16191,-1.61134 0.50341,0.50341 -1.74182,2.221 -2.83674,2.92731 -2.83674,1.82992 z m 557.91614,-9.16325 -3.9162,-4.33334 4.3334,3.91612 c 4.0393,3.65038 4.9462,4.75055 3.9161,4.75055 -0.2295,0 -2.1795,-1.95 -4.3333,-4.33333 z m -552.58281,2.49658 c 0,-0.27686 1.05,-1.32686 2.33333,-2.33333 2.11475,-1.65849 2.16191,-1.61133 0.50342,0.50341 -1.74183,2.221 -2.83675,2.92731 -2.83675,1.82992 z m 66.66667,0 c 0,-0.27686 1.05,-1.32686 2.33333,-2.33333 2.11475,-1.65849 2.16191,-1.61133 0.50341,0.50341 -1.74182,2.221 -2.83674,2.92731 -2.83674,1.82992 z m 406.59488,-5.82992 -4.59489,-5 5,4.5949 c 4.65389,4.27681 5.61305,5.4051 4.59489,5.4051 -0.22281,0 -2.47281,-2.25 -5,-5 z m -467.92822,-0.83674 c 0,-0.27687 1.05,-1.32687 2.33334,-2.33334 2.11474,-1.65849 2.1619,-1.61133 0.50341,0.50342 -1.74183,2.221 -2.83675,2.9273 -2.83675,1.82992 z m 66.66667,0 c 0,-0.27687 1.05,-1.32687 2.33333,-2.33334 2.11475,-1.65849 2.16191,-1.61133 0.50342,0.50342 -1.74183,2.221 -2.83675,2.9273 -2.83675,1.82992 z m 469.91611,-7.82992 -3.91612,-4.33334 4.33333,3.91612 c 2.38333,2.15387 4.33333,4.10387 4.33333,4.33334 0,1.03008 -1.10017,0.1232 -4.75054,-3.91612 z m -531.24944,1.16325 c 0,-0.27687 1.05,-1.32687 2.33333,-2.33333 2.11475,-1.6585 2.16191,-1.61134 0.50341,0.50341 -1.74182,2.221 -2.83674,2.92731 -2.83674,1.82992 z m 68.66666,-2.16325 c 1.32732,-1.46667 2.71331,-2.66667 3.07997,-2.66667 0.36667,0 -0.41932,1.2 -1.74664,2.66667 -1.32732,1.46666 -2.7133,2.66666 -3.07997,2.66666 -0.36666,0 0.41932,-1.2 1.74664,-2.66666 z m 382.60393,-3 -5.2706,-5.66667 5.66666,5.2706 c 3.11667,2.89883 5.66667,5.44883 5.66667,5.66667 0,1.00877 -1.16113,-6.6e-4 -6.06273,-5.2706 z m -445.27059,-2.33334 c 1.32732,-1.46666 2.7133,-2.66666 3.07997,-2.66666 0.36667,0 -0.41932,1.2 -1.74664,2.66666 -1.32732,1.46667 -2.71331,2.66667 -3.07997,2.66667 -0.36667,0 0.41932,-1.2 1.74664,-2.66667 z m 69.33333,-2.66666 c 1.32732,-1.46667 2.7133,-2.66667 3.07997,-2.66667 0.36667,0 -0.41932,1.2 -1.74664,2.66667 -1.32732,1.46666 -2.71331,2.66666 -3.07997,2.66666 -0.36667,0 0.41932,-1.2 1.74664,-2.66666 z m 443.26155,-5 -4.59489,-5 5,4.59489 c 4.65389,4.27681 5.61305,5.40511 4.59489,5.40511 -0.22281,0 -2.47281,-2.25 -5,-5 z m -507.26155,1 c 1.32732,-1.46667 2.71331,-2.66667 3.07997,-2.66667 0.36667,0 -0.41932,1.2 -1.74664,2.66667 -1.32732,1.46666 -2.7133,2.66666 -3.07997,2.66666 -0.36667,0 0.41932,-1.2 1.74664,-2.66666 z m 427.93726,-4.33334 -5.2706,-5.66666 5.66666,5.2706 c 3.11667,2.89882 5.66667,5.44882 5.66667,5.66666 0,1.00878 -1.16113,-6.5e-4 -6.06273,-5.2706 z m -358.60393,1.66667 c 1.32732,-1.46667 2.71331,-2.66667 3.07997,-2.66667 0.36667,0 -0.41932,1.2 -1.74664,2.66667 -1.32732,1.46667 -2.7133,2.66667 -3.07997,2.66667 -0.36667,0 0.41932,-1.2 1.74664,-2.66667 z m -66,-1.83675 c 0,-0.27686 1.05,-1.32686 2.33334,-2.33333 2.11474,-1.65849 2.1619,-1.61133 0.50341,0.50341 -1.74183,2.221 -2.83675,2.92731 -2.83675,1.82992 z m 71.33333,-4.82992 c 1.32732,-1.46666 2.71331,-2.66666 3.07998,-2.66666 0.36666,0 -0.41932,1.2 -1.74664,2.66666 -1.32732,1.46667 -2.71331,2.66667 -3.07998,2.66667 -0.36666,0 0.41932,-1.2 1.74664,-2.66667 z m 419.93726,-5.66666 -5.2706,-5.66667 5.66667,5.2706 c 3.11667,2.89883 5.66667,5.44883 5.66667,5.66667 0,1.00877 -1.16114,-6.6e-4 -6.06274,-5.2706 z m -485.93725,3.82992 c 0,-0.27687 1.05,-1.32687 2.33333,-2.33334 2.11475,-1.65849 2.16191,-1.61133 0.50341,0.50342 -1.74182,2.221 -2.83674,2.9273 -2.83674,1.82992 z m 407.24944,-6.49659 -3.91612,-4.33333 4.33333,3.91612 c 2.38334,2.15386 4.33334,4.10386 4.33334,4.33333 0,1.03008 -1.10018,0.1232 -4.75055,-3.91612 z m -334.58278,0.33333 c 1.32732,-1.46666 2.71331,-2.66666 3.07997,-2.66666 0.36667,0 -0.41932,1.2 -1.74664,2.66666 -1.32732,1.46667 -2.7133,2.66667 -3.07997,2.66667 -0.36667,0 0.41932,-1.2 1.74664,-2.66667 z m -67.33333,-0.50341 c 0,-0.27687 1.05,-1.32687 2.33333,-2.33333 2.11475,-1.6585 2.16191,-1.61134 0.50342,0.50341 -1.74183,2.221 -2.83675,2.92731 -2.83675,1.82992 z m 72,-5.33333 c 0,-0.27687 1.05,-1.32687 2.33333,-2.33334 2.11475,-1.65849 2.16191,-1.61133 0.50341,0.50342 -1.74182,2.221 -2.83674,2.9273 -2.83674,1.82992 z m 396.58278,-5.16326 -3.91612,-4.33333 4.33333,3.91612 c 2.38333,2.15387 4.33333,4.10387 4.33333,4.33333 0,1.03008 -1.10017,0.1232 -4.75054,-3.91612 z m -77.9879,-2 -4.59489,-5 5,4.5949 c 4.65389,4.27681 5.61305,5.4051 4.59489,5.4051 -0.22281,0 -2.47281,-2.25 -5,-5 z m -379.26155,-1.66666 c 1.32732,-1.46667 2.71331,-2.66667 3.07998,-2.66667 0.36666,0 -0.41932,1.2 -1.74664,2.66667 -1.32732,1.46666 -2.71331,2.66666 -3.07998,2.66666 -0.36666,0 0.41932,-1.2 1.74664,-2.66666 z m 68,0 c 1.32732,-1.46667 2.71331,-2.66667 3.07997,-2.66667 0.36667,0 -0.41932,1.2 -1.74664,2.66667 -1.32732,1.46666 -2.7133,2.66666 -3.07997,2.66666 -0.36667,0 0.41932,-1.2 1.74664,-2.66666 z m -64.66666,-4.50342 c 0,-0.27686 1.05,-1.32686 2.33333,-2.33333 2.11475,-1.65849 2.16191,-1.61133 0.50341,0.50341 -1.74182,2.221 -2.83674,2.92731 -2.83674,1.82992 z m 71.33333,-3.49658 c 1.32732,-1.46667 2.7133,-2.66667 3.07997,-2.66667 0.36667,0 -0.41932,1.2 -1.74664,2.66667 -1.32732,1.46666 -2.71331,2.66666 -3.07997,2.66666 -0.36667,0 0.41932,-1.2 1.74664,-2.66666 z m 370.58278,-1.66667 -3.91612,-4.33333 4.33333,3.91612 c 2.38333,2.15386 4.33333,4.10386 4.33333,4.33333 0,1.03008 -1.10017,0.1232 -4.75054,-3.91612 z m -78.66667,-2.66667 -3.91612,-4.33333 4.33333,3.91612 c 2.38334,2.15387 4.33334,4.10387 4.33334,4.33333 0,1.03008 -1.10018,0.1232 -4.75055,-3.91612 z m -357.91611,1.16326 c 0,-0.27687 1.05,-1.32687 2.33333,-2.33334 2.11475,-1.65849 2.16191,-1.61133 0.50342,0.50342 -1.74183,2.221 -2.83675,2.9273 -2.83675,1.82992 z m 71.33333,-3.49659 c 1.32732,-1.46667 2.71331,-2.66667 3.07997,-2.66667 0.36667,0 -0.41932,1.2 -1.74664,2.66667 -1.32732,1.46667 -2.7133,2.66667 -3.07997,2.66667 -0.36667,0 0.41932,-1.2 1.74664,-2.66667 z m -66,-3.17008 c 0,-0.27687 1.05,-1.32687 2.33334,-2.33333 2.11474,-1.6585 2.1619,-1.61134 0.50341,0.50341 -1.74183,2.221 -2.83675,2.92731 -2.83675,1.82992 z m 420.58278,-3.82992 -3.91612,-4.33333 4.33333,3.91612 c 2.38334,2.15386 4.33334,4.10386 4.33334,4.33333 0,1.03008 -1.10018,0.1232 -4.75055,-3.91612 z m -349.91611,1.16325 c 0,-0.27686 1.05,-1.32686 2.33333,-2.33333 2.11475,-1.65849 2.16191,-1.61133 0.50341,0.50341 -1.74182,2.221 -2.83674,2.92731 -2.83674,1.82992 z m 269.91611,-5.16325 -3.91612,-4.33333 4.33333,3.91612 c 4.03928,3.65037 4.9462,4.75054 3.91612,4.75054 -0.22946,0 -2.17946,-1.95 -4.33333,-4.33333 z m -335.24944,1.16325 c 0,-0.27686 1.05,-1.32686 2.33333,-2.33333 2.11475,-1.65849 2.16191,-1.61133 0.50341,0.50341 -1.74182,2.221 -2.83674,2.92731 -2.83674,1.82992 z m 71.99999,-4 c 0,-0.27686 1.05,-1.32686 2.33334,-2.33333 2.11474,-1.65849 2.1619,-1.61133 0.50341,0.50341 -1.74183,2.221 -2.83675,2.92731 -2.83675,1.82992 z m -67.99999,-1.33333 c 0,-0.27687 1.05,-1.32687 2.33333,-2.33333 2.11475,-1.6585 2.16191,-1.61134 0.50341,0.50341 -1.74182,2.221 -2.83674,2.92731 -2.83674,1.82992 z m 399.24944,-5.16325 -3.91612,-4.33334 4.33333,3.91612 c 2.38334,2.15387 4.33334,4.10387 4.33334,4.33334 0,1.03008 -1.10018,0.1232 -4.75055,-3.91612 z m -79.32123,-3.33334 -4.59489,-5 5,4.5949 c 4.65389,4.27681 5.61305,5.4051 4.59489,5.4051 -0.22281,0 -2.47281,-2.25 -5,-5 z m -314.59488,1.82992 c 0,-0.27686 1.05,-1.32686 2.33333,-2.33333 2.11475,-1.65849 2.16191,-1.61133 0.50342,0.50341 -1.74183,2.221 -2.83675,2.92731 -2.83675,1.82992 z m 69.33333,0 c 0,-0.27686 1.05,-1.32686 2.33333,-2.33333 2.11475,-1.65849 2.16191,-1.61133 0.50342,0.50341 -1.74183,2.221 -2.83675,2.92731 -2.83675,1.82992 z m 6.66667,-8.16325 c 1.72233,-1.83333 3.4315,-3.33333 3.79817,-3.33333 0.36667,0 -0.74251,1.5 -2.46484,3.33333 -1.72233,1.83333 -3.43151,3.33333 -3.79817,3.33333 -0.36667,0 0.7425,-1.5 2.46484,-3.33333 z m -70.66667,1.49659 c 0,-0.27687 1.05,-1.32687 2.33333,-2.33334 2.11475,-1.65849 2.16191,-1.61133 0.50342,0.50342 -1.74183,2.221 -2.83675,2.9273 -2.83675,1.82992 z m 375.92822,-5.82992 -4.59489,-5 5,4.59489 c 4.65389,4.27681 5.61305,5.40511 4.59489,5.40511 -0.22281,0 -2.47281,-2.25 -5,-5 z m -78.0121,-2 -3.91612,-4.33333 4.33333,3.91612 c 2.38333,2.15386 4.33333,4.10386 4.33333,4.33333 0,1.03008 -1.10017,0.1232 -4.75054,-3.91612 z m -292.58279,1.16325 c 0,-0.27686 1.05,-1.32686 2.33334,-2.33333 2.11474,-1.65849 2.1619,-1.61133 0.50341,0.50341 -1.74183,2.221 -2.83675,2.92731 -2.83675,1.82992 z m 71.33334,-2.16325 c 1.32732,-1.46667 2.7133,-2.66667 3.07997,-2.66667 0.36667,0 -0.41932,1.2 -1.74664,2.66667 -1.32732,1.46667 -2.71331,2.66667 -3.07997,2.66667 -0.36667,0 0.41932,-1.2 1.74664,-2.66667 z m -66,-4.50341 c 0,-0.27687 1.05,-1.32687 2.33333,-2.33334 2.11475,-1.65849 2.16191,-1.61133 0.50341,0.50342 -1.74182,2.221 -2.83674,2.9273 -2.83674,1.82992 z m 72.66666,-3.49659 c 1.32732,-1.46667 2.71331,-2.66667 3.07998,-2.66667 0.36666,0 -0.41932,1.2 -1.74664,2.66667 -1.32732,1.46667 -2.71331,2.66667 -3.07998,2.66667 -0.36666,0 0.41932,-1.2 1.74664,-2.66667 z m 281.24945,-1.66667 -3.91612,-4.33333 4.33333,3.91612 c 4.03928,3.65037 4.9462,4.75055 3.91612,4.75055 -0.22946,0 -2.17946,-1.95 -4.33333,-4.33334 z m -78.64552,-2.66666 -5.2706,-5.66667 5.66667,5.2706 c 3.11667,2.89883 5.66667,5.44883 5.66667,5.66667 0,1.00877 -1.16114,-6.6e-4 -6.06274,-5.2706 z m -197.93726,-1.50342 c 0,-0.27686 1.05,-1.32686 2.33333,-2.33333 2.11475,-1.65849 2.16191,-1.61133 0.50342,0.50341 -1.74183,2.221 -2.83675,2.92731 -2.83675,1.82992 z m -68,-2.66666 c 0,-0.27687 1.05,-1.32687 2.33333,-2.33334 2.11475,-1.65849 2.16191,-1.61133 0.50342,0.50342 -1.74183,2.221 -2.83675,2.9273 -2.83675,1.82992 z m 332.60393,-6.49659 -5.2706,-5.66667 5.66666,5.2706 c 5.26995,4.9016 6.27938,6.06274 5.2706,6.06274 -0.21784,0 -2.76784,-2.55 -5.66666,-5.66667 z m -257.2706,0.33333 c 1.32732,-1.46666 2.71331,-2.66666 3.07998,-2.66666 0.36666,0 -0.41932,1.2 -1.74664,2.66666 -1.32732,1.46667 -2.71331,2.66667 -3.07998,2.66667 -0.36666,0 0.41932,-1.2 1.74664,-2.66667 z m 177.92823,-3.66666 -4.5949,-5 5,4.59489 c 4.6539,4.27681 5.61306,5.40511 4.5949,5.40511 -0.22282,0 -2.47282,-2.25 -5,-5 z m -247.92823,3.16325 c 0,-0.27687 1.05,-1.32687 2.33334,-2.33333 2.11474,-1.6585 2.1619,-1.61134 0.50341,0.50341 -1.74183,2.221 -2.83675,2.92731 -2.83675,1.82992 z m 76.66667,-7.49659 c 1.32732,-1.46666 2.71331,-2.66666 3.07997,-2.66666 0.36667,0 -0.41932,1.2 -1.74664,2.66666 -1.32732,1.46667 -2.7133,2.66667 -3.07997,2.66667 -0.36667,0 0.41932,-1.2 1.74664,-2.66667 z m -71.33333,0.82992 c 0,-0.27686 1.05,-1.32686 2.33333,-2.33333 2.11475,-1.65849 2.16191,-1.61133 0.50341,0.50341 -1.74182,2.221 -2.83674,2.92731 -2.83674,1.82992 z m 309.26155,-7.16325 -4.59489,-5 5,4.59489 c 4.65389,4.27682 5.61305,5.40511 4.59489,5.40511 -0.22281,0 -2.47281,-2.25 -5,-5 z m -78.0121,-2 -3.91612,-4.33333 4.33333,3.91612 c 2.38333,2.15386 4.33333,4.10386 4.33333,4.33333 0,1.03008 -1.10017,0.1232 -4.75054,-3.91612 z m -225.91612,2.49659 c 0,-0.27687 1.05,-1.32687 2.33333,-2.33334 2.11475,-1.65849 2.16191,-1.61133 0.50342,0.50342 -1.74183,2.221 -2.83675,2.9273 -2.83675,1.82992 z m 72.80793,-2.366 c 1.38898,-1.94484 2.79207,-3.27818 3.11799,-2.96296 0.32593,0.31521 -0.81049,1.90645 -2.52539,3.53608 l -3.118,2.96296 z m -68.80793,-2.96734 c 0,-0.27686 1.05,-1.32686 2.33333,-2.33333 2.11475,-1.65849 2.16191,-1.61133 0.50342,0.50341 -1.74183,2.221 -2.83675,2.92731 -2.83675,1.82992 z m 289.87331,-6.49658 -2.53998,-3 3,2.53998 c 1.65,1.39699 3,2.74699 3,3 0,1.067 -1.07306,0.27927 -3.46002,-2.53998 z m -216.43471,-3.11111 c 0.064,-1.55327 0.37992,-1.8692 0.80555,-0.80556 0.38516,0.96249 0.3378,2.11251 -0.1052,2.55556 -0.44306,0.44305 -0.75819,-0.34445 -0.7003,-1.75 z m 214.60223,-1.22223 c 0,-0.73333 0.58162,-2.23333 1.2925,-3.33333 0.71088,-1.1 1.29249,-1.4 1.29249,-0.66667 0,0.73334 -0.58161,2.23334 -1.29249,3.33334 -0.71088,1.1 -1.2925,1.4 -1.2925,0.66666 z m -76.04083,-4.66666 c -1.20172,-0.77662 -1.36618,-1.30066 -0.41203,-1.31292 0.87339,-0.0107 1.9588,0.57958 2.41203,1.31292 1.02306,1.65537 0.56149,1.65537 -2,0 z m -8.33334,-2.21638 c 0.91667,-0.36988 2.41667,-0.36988 3.33334,0 0.91666,0.36988 0.16666,0.67252 -1.66667,0.67252 -1.83333,0 -2.58333,-0.30264 -1.66667,-0.67252 z m -121.33333,-1.33333 c 0.91667,-0.36988 2.41667,-0.36988 3.33334,0 0.91666,0.36988 0.16666,0.67252 -1.66667,0.67252 -1.83333,0 -2.58333,-0.30264 -1.66667,-0.67252 z m 112,0 c 0.91667,-0.36988 2.41667,-0.36988 3.33333,0 0.91667,0.36988 0.16667,0.67252 -1.66666,0.67252 -1.83334,0 -2.58334,-0.30264 -1.66667,-0.67252 z m 96.4386,-1.22807 c 0.064,-1.55326 0.37992,-1.8692 0.80554,-0.80556 0.38516,0.9625 0.3378,2.11251 -0.1052,2.55556 -0.44305,0.44306 -0.75818,-0.34445 -0.70029,-1.75 z M 667.02536,519.076 c 1.29729,-0.33805 3.09729,-0.31583 4,0.0495 0.90271,0.36524 -0.15871,0.64182 -2.35871,0.61465 -2.2,-0.0272 -2.93858,-0.326 -1.64129,-0.66405 z m 90.66666,0 c 1.2973,-0.33805 3.0973,-0.31583 4,0.0495 0.90271,0.36524 -0.1587,0.64182 -2.3587,0.61465 -2.2,-0.0272 -2.93859,-0.326 -1.6413,-0.66405 z m -77.3587,-1.32845 c 1.28333,-0.33536 3.38333,-0.33536 4.66666,0 1.28334,0.33537 0.23334,0.60977 -2.33333,0.60977 -2.56666,0 -3.61666,-0.2744 -2.33333,-0.60977 z m 64,0 c 1.28333,-0.33536 3.38333,-0.33536 4.66666,0 1.28334,0.33537 0.23334,0.60977 -2.33333,0.60977 -2.56667,0 -3.61667,-0.2744 -2.33333,-0.60977 z m -39.93454,-1.40794 c 6.45268,-0.24494 16.65268,-0.24369 22.66667,0.003 6.014,0.24647 0.73453,0.44688 -11.73213,0.44535 -12.46667,-10e-4 -17.3872,-0.2032 -10.93454,-0.44814 z M 576.66665,503.99999 c 1.32732,-1.46667 2.71331,-2.66667 3.07998,-2.66667 0.36666,0 -0.41932,1.2 -1.74664,2.66667 -1.32732,1.46666 -2.71331,2.66666 -3.07998,2.66666 -0.36666,0 0.41932,-1.2 1.74664,-2.66666 z m 280.49658,-3.66667 c -1.65849,-2.11475 -1.61133,-2.16191 0.50342,-0.50341 2.221,1.74182 2.9273,2.83674 1.82992,2.83674 -0.27687,0 -1.32687,-1.05 -2.33334,-2.33333 z m -275.82991,0.42716 c 0,-0.36667 1.2,-1.30889 2.66667,-2.09383 1.46666,-0.78493 2.66666,-1.12716 2.66666,-0.76049 0,0.36667 -1.2,1.30889 -2.66666,2.09383 -1.46667,0.78493 -2.66667,1.12716 -2.66667,0.76049 z m 18.41667,-8.33797 c 0.96249,-0.38516 2.1125,-0.3378 2.55556,0.1052 0.44305,0.44305 -0.34446,0.75818 -1.75,0.70029 -1.55327,-0.064 -1.8692,-0.37992 -0.80556,-0.80555 z m 10.66666,-2.66667 c 0.9625,-0.38516 2.11251,-0.3378 2.55556,0.1052 0.44306,0.44305 -0.34445,0.75819 -1.75,0.70029 -1.55326,-0.064 -1.8692,-0.37992 -0.80556,-0.80554 z m 217.33333,0 c 0.9625,-0.38516 2.11251,-0.3378 2.55556,0.1052 0.44306,0.44305 -0.34445,0.75819 -1.75,0.70029 -1.55326,-0.064 -1.8692,-0.37992 -0.80556,-0.80554 z m -6.66666,-1.33333 c 0.96249,-0.38516 2.1125,-0.3378 2.55556,0.1052 0.44305,0.44305 -0.34446,0.75818 -1.75,0.70029 -1.55327,-0.064 -1.8692,-0.37992 -0.80556,-0.80555 z m -197.41667,-1.30556 c 0.91667,-0.36988 2.41667,-0.36988 3.33334,0 0.91666,0.36988 0.16666,0.67252 -1.66667,0.67252 -1.83333,0 -2.58333,-0.30264 -1.66667,-0.67252 z m 187.35871,-0.0409 c 1.29729,-0.33805 3.09729,-0.31582 4,0.0495 0.9027,0.36524 -0.15871,0.64183 -2.35871,0.61465 -2.2,-0.0272 -2.93859,-0.326 -1.64129,-0.66405 z m -177.94204,-1.32017 c 0.96249,-0.38516 2.11251,-0.3378 2.55556,0.1052 0.44305,0.44305 -0.34445,0.75819 -1.75,0.70029 -1.55327,-0.064 -1.8692,-0.37992 -0.80556,-0.80554 z m 167.27537,-0.0133 c 1.29729,-0.33806 3.09729,-0.31583 4,0.0495 0.90271,0.36524 -0.15871,0.64183 -2.35871,0.61466 -2.2,-0.0272 -2.93858,-0.326 -1.64129,-0.66406 z m -157.3587,-1.3283 c 1.28333,-0.33536 3.38333,-0.33536 4.66666,0 1.28334,0.33538 0.23334,0.60978 -2.33333,0.60978 -2.56667,0 -3.61667,-0.2744 -2.33333,-0.60978 z m 142.01554,-0.0239 c 1.65855,-0.31892 4.05855,-0.30682 5.33333,0.0269 1.27479,0.33372 -0.0823,0.59467 -3.01554,0.57987 -2.93334,-0.0148 -3.97634,-0.28786 -2.31779,-0.60678 z M 659.6822,483.05701 c 1.65855,-0.31892 4.05855,-0.30681 5.33333,0.0269 1.27479,0.33372 -0.0823,0.59466 -3.01554,0.57986 -2.93334,-0.0148 -3.97634,-0.28785 -2.31779,-0.60677 z m 105.31778,0.003 c 1.65,-0.31781 4.35,-0.31781 6,0 1.65,0.3178 0.3,0.57783 -3,0.57783 -3.3,0 -4.65,-0.26003 -3,-0.57783 z m -71.41204,-1.38805 c 9.30672,-0.22888 24.90672,-0.2295 34.66667,-0.001 9.75996,0.22812 2.14537,0.41539 -16.92129,0.41615 -19.06667,7.6e-4 -27.05208,-0.18588 -17.74538,-0.41476 z m 20.96536,-11.99703 -14.11333,-0.42637 -0.886,-148.95712 C 699.06666,238.3647 698.66766,133.17384 698.6673,86.533655 L 698.66665,1.7326472 710.87148,0.86632359 C 717.58414,0.38984562 726.4538,0 730.58184,0 h 7.50553 l -0.45721,233.66666 c -0.25147,128.51666 -0.7023,234.41666 -1.00184,235.33333 -0.29956,0.91666 -2.21347,1.53924 -4.25316,1.38349 -2.03968,-0.15575 -10.05951,-0.47504 -17.82186,-0.70955 z"
         id="path973" />
      <path
         style="fill:#7b0b18;stroke-width:1.33333"
         d="m 15.308542,1302.2141 c -8.3215452,-3.7753 -15.29367017,-15.118 -15.29367017,-24.8808 0,-6.3157 2.73516427,-13.1453 8.90171597,-22.2269 18.5927422,-27.3822 66.3288262,-89.015 135.5197522,-174.9719 81.52947,-101.28511 166.0614,-207.26278 280.87628,-352.13452 36.90538,-46.56666 70.22412,-88.56666 74.04165,-93.33333 48.8935,-61.04969 79.40957,-100.74754 78.8319,-102.5511 -0.37266,-1.16356 -1.59068,-4.51556 -2.70669,-7.4489 -4.77451,-12.54936 -1.55459,-19.92594 11.48473,-26.31068 22.77826,-11.15341 62.32723,-15.86948 130.36911,-15.54598 97.70305,0.4645 143.19809,9.02904 147.30563,27.73058 0.44448,2.0237 0.1268,6.32995 -0.70602,9.56943 -2.82058,10.97176 -3.47311,9.88209 24.73372,41.30348 14.66666,16.33813 27.28109,30.35388 28.03206,31.1461 0.75098,0.79222 11.81696,13.1404 24.59111,27.4404 12.77415,14.3 26.25971,29.30436 29.96793,33.34303 7.86044,8.56088 7.96439,8.67628 94.86825,105.32782 90.7079,100.8822 289.5982,322.03127 376.9258,419.10937 39.472,43.8791 72.333,81.2682 73.0243,83.0868 2.0621,5.4235 1.4129,17.9945 -1.2295,23.8111 -5.3489,11.7742 -20.8382,19.7092 -32.3973,16.5967 -3.1379,-0.845 -6.6761,-2.2274 -7.8629,-3.0722 -2.1798,-1.5515 -11.6654,-11.7181 -31.336,-33.5857 -25.6144,-28.4751 -36.916,-41.0801 -52.56,-58.6218 -9.1536,-10.264 -16.9536,-18.9618 -17.3334,-19.3285 -1.054,-1.0178 -16.6817,-18.5083 -83.9883,-94 -33.9988,-38.1333 -64.8654,-72.6423 -68.5924,-76.6866 -3.727,-4.0443 -10.7398,-11.8443 -15.5841,-17.33331 -9.56,-10.8325 -106.7598,-119.54585 -112.5256,-125.8545 -0.7333,-0.80239 -6.1312,-6.85888 -11.9953,-13.45888 -5.8641,-6.6 -15.8064,-17.7 -22.0941,-24.66666 -6.2876,-6.96667 -42.8649,-47.76667 -81.28285,-90.66667 -70.30026,-78.50188 -90.45973,-100.9526 -100.56964,-112 -3.01996,-3.3 -16.23881,-18 -29.37521,-32.66666 -13.1364,-14.66667 -30.81402,-34.34455 -39.28361,-43.72863 -12.17532,-13.48993 -15.96373,-18.63792 -18.09556,-24.58958 -3.14052,-8.76782 -2.25219,-8.3871 -27.30368,-11.7016 -26.63496,-3.524 -55.76687,-4.00383 -83.01317,-1.36728 -32.26385,3.12208 -30.39696,2.38588 -32.98659,13.00817 -1.4652,6.01008 -3.65113,10.63753 -6.8922,14.59025 -2.61056,3.18378 -12.47781,15.16215 -21.92725,26.61863 -54.05187,65.53242 -108.2899,131.91354 -181.80086,222.50337 -65.21131,80.36191 -102.55576,127.69033 -146.76316,185.99999 -24.46293,32.26666 -53.53845,70.06666 -64.61228,83.99996 -40.32105,50.7329 -93.47688,119.051 -128.004475,164.5167 -38.991154,51.3434 -51.829613,67.3724 -56.792307,70.9061 -5.388063,3.8367 -18.325858,4.9557 -24.565816,2.1247 z"
         id="path971" />
    </g>
  </g>
</svg>
