<?xml version="1.0" encoding="UTF-8" standalone="no"?>
<svg
   version="1.2"
   width="126.11993mm"
   height="20.253mm"
   viewBox="0 0 71.769204 11.525076"
   id="svg298"
   sodipodi:docname="mitte-des-taktes.svg"
   xmlns:inkscape="http://www.inkscape.org/namespaces/inkscape"
   xmlns:sodipodi="http://sodipodi.sourceforge.net/DTD/sodipodi-0.dtd"
   xmlns:xlink="http://www.w3.org/1999/xlink"
   xmlns="http://www.w3.org/2000/svg"
   xmlns:svg="http://www.w3.org/2000/svg">
  <defs
     id="defs302" />
  <sodipodi:namedview
     id="namedview300"
     pagecolor="#ffffff"
     bordercolor="#000000"
     borderopacity="0.25"
     inkscape:showpageshadow="2"
     inkscape:pageopacity="0.0"
     inkscape:pagecheckerboard="0"
     inkscape:deskcolor="#d1d1d1"
     inkscape:document-units="mm"
     showgrid="false" />
  <style
     type="text/css"
     id="style2"><![CDATA[
tspan { white-space: pre; }
]]></style>
  <g
     id="g446">
    <g
       transform="translate(7.0854351e-7,7.5000001)"
       id="g6">
      <line
         stroke-linejoin="round"
         stroke-linecap="round"
         stroke-width="0.1"
         stroke="currentColor"
         x1="0.050000001"
         y1="0"
         x2="63.707199"
         y2="0"
         id="line4" />
    </g>
    <g
       transform="translate(7.0854351e-7,6.5000001)"
       id="g10">
      <line
         stroke-linejoin="round"
         stroke-linecap="round"
         stroke-width="0.1"
         stroke="currentColor"
         x1="0.050000001"
         y1="0"
         x2="63.707199"
         y2="0"
         id="line8" />
    </g>
    <g
       transform="translate(7.0854351e-7,5.5000001)"
       id="g14">
      <line
         stroke-linejoin="round"
         stroke-linecap="round"
         stroke-width="0.1"
         stroke="currentColor"
         x1="0.050000001"
         y1="0"
         x2="63.707199"
         y2="0"
         id="line12" />
    </g>
    <g
       transform="translate(7.0854351e-7,4.5000001)"
       id="g18">
      <line
         stroke-linejoin="round"
         stroke-linecap="round"
         stroke-width="0.1"
         stroke="currentColor"
         x1="0.050000001"
         y1="0"
         x2="63.707199"
         y2="0"
         id="line16" />
    </g>
    <g
       transform="translate(7.0854351e-7,3.5000001)"
       id="g22">
      <line
         stroke-linejoin="round"
         stroke-linecap="round"
         stroke-width="0.1"
         stroke="currentColor"
         x1="0.050000001"
         y1="0"
         x2="63.707199"
         y2="0"
         id="line20" />
    </g>
    <g
       transform="translate(-8.5358993,1.5000001)"
       id="g26">
      <rect
         x="68.366699"
         y="-0.1"
         width="1.8052"
         height="0.2"
         ry="0.1"
         fill="currentColor"
         id="rect24" />
    </g>
    <g
       transform="translate(-8.5358993,2.5000001)"
       id="g30">
      <rect
         x="68.215698"
         y="-0.1"
         width="1.9563"
         height="0.2"
         ry="0.1"
         fill="currentColor"
         id="rect28" />
    </g>
    <g
       transform="translate(-8.5358993,2.5000001)"
       id="g34">
      <rect
         x="64.511497"
         y="-0.1"
         width="1.9563"
         height="0.2"
         ry="0.1"
         fill="currentColor"
         id="rect32" />
    </g>
    <g
       transform="translate(-8.5358993,2.5000001)"
       id="g38">
      <rect
         x="60.807301"
         y="-0.1"
         width="1.9563"
         height="0.2"
         ry="0.1"
         fill="currentColor"
         id="rect36" />
    </g>
    <g
       transform="translate(-8.5358993,8.5000001)"
       id="g42">
      <rect
         x="24.5893"
         y="-0.1"
         width="1.8052"
         height="0.2"
         ry="0.1"
         fill="currentColor"
         id="rect40" />
    </g>
    <g
       transform="translate(-8.5358993,8.5000001)"
       id="g46">
      <rect
         x="21.084101"
         y="-0.1"
         width="1.9563"
         height="0.2"
         ry="0.1"
         fill="currentColor"
         id="rect44" />
    </g>
    <g
       transform="translate(-8.5358993,9.5000001)"
       id="g50">
      <rect
         x="21.084101"
         y="-0.1"
         width="1.9563"
         height="0.2"
         ry="0.1"
         fill="currentColor"
         id="rect48" />
    </g>
    <g
       transform="translate(-8.5358993,8.5000001)"
       id="g54">
      <rect
         x="16.6779"
         y="-0.1"
         width="1.9563"
         height="0.2"
         ry="0.1"
         fill="currentColor"
         id="rect52" />
    </g>
    <g
       transform="translate(-8.5358993,9.5000001)"
       id="g58">
      <rect
         x="16.6779"
         y="-0.1"
         width="1.9563"
         height="0.2"
         ry="0.1"
         fill="currentColor"
         id="rect56" />
    </g>
    <g
       transform="translate(51.364601,5.5000001)"
       id="g62">
      <rect
         x="0"
         y="-2"
         width="0.19"
         height="4"
         ry="0.0000"
         fill="currentColor"
         id="rect60" />
    </g>
    <g
       transform="translate(36.741501,5.5000001)"
       id="g66">
      <rect
         x="0"
         y="-2"
         width="0.19"
         height="4"
         ry="0.0000"
         fill="currentColor"
         id="rect64" />
    </g>
    <g
       transform="translate(21.723601,5.5000001)"
       id="g70">
      <rect
         x="0"
         y="-2"
         width="0.19"
         height="4"
         ry="0.0000"
         fill="currentColor"
         id="rect68" />
    </g>
    <g
       transform="translate(63.567201,5.5000001)"
       id="g74">
      <rect
         x="0"
         y="-2"
         width="0.19"
         height="4"
         ry="0.0000"
         fill="currentColor"
         id="rect72" />
    </g>
    <a
       style="color:inherit"
       xlink:href="textedit://D:/Jakob%20Krueger/Downloads/test.ly:8:6:7"
       id="a80"
       transform="translate(-17.071699,-6.6905999)">
      <g
         transform="translate(63.4146,11.6906)"
         id="g78">
        <path
           transform="scale(0.004,-0.004)"
           d="m 218,136 c 55,0 108,-28 108,-89 0,-71 -55,-121 -102,-149 -35,-21 -75,-34 -116,-34 -55,0 -108,28 -108,89 0,71 55,121 102,149 35,21 75,34 116,34 z"
           fill="currentColor"
           id="path76" />
      </g>
    </a>
    <g
       transform="translate(46.407901,5.5000001)"
       id="g84">
      <rect
         x="-0.064999998"
         y="-0.31380001"
         width="0.13"
         height="3.1098001"
         ry="0.039999999"
         fill="currentColor"
         id="rect82" />
    </g>
    <g
       transform="translate(44.892901,5.0000001)"
       id="g88">
      <path
         transform="scale(0.004,-0.004)"
         d="m 0,119 c 0,8 5,15 13,18 l 46,17 v 158 c 0,10 8,19 18,19 10,0 19,-9 19,-19 V 167 l 83,31 v 158 c 0,10 9,19 19,19 10,0 18,-9 18,-19 V 211 l 32,12 c 2,1 5,1 7,1 11,0 20,-9 20,-20 v -60 c 0,-8 -5,-16 -13,-19 L 216,109 V -51 l 32,11 c 2,1 5,1 7,1 11,0 20,-9 20,-20 v -60 c 0,-8 -5,-15 -13,-18 l -46,-17 v -158 c 0,-10 -8,-19 -18,-19 -10,0 -19,9 -19,19 v 145 l -83,-31 v -158 c 0,-10 -9,-19 -19,-19 -10,0 -18,9 -18,19 v 145 l -32,-12 c -2,-1 -5,-1 -7,-1 -11,0 -20,9 -20,20 v 60 c 0,8 5,16 13,19 l 46,16 V 51 L 27,40 C 25,39 22,39 20,39 9,39 0,48 0,59 Z M 179,95 96,65 V -95 l 83,30 z"
         fill="currentColor"
         id="path86" />
    </g>
    <a
       style="color:inherit"
       xlink:href="textedit://D:/Jakob%20Krueger/Downloads/test.ly:8:11:12"
       id="a94"
       transform="translate(-17.071699,-6.6905999)">
      <g
         transform="translate(66.1688,10.6906)"
         id="g92">
        <path
           transform="scale(0.004,-0.004)"
           d="m 218,136 c 55,0 108,-28 108,-89 0,-71 -55,-121 -102,-149 -35,-21 -75,-34 -116,-34 -55,0 -108,28 -108,89 0,71 55,121 102,149 35,21 75,34 116,34 z"
           fill="currentColor"
           id="path90" />
      </g>
    </a>
    <g
       transform="translate(49.162101,5.5000001)"
       id="g98">
      <rect
         x="-0.064999998"
         y="-1.3138"
         width="0.13"
         height="3.5178001"
         ry="0.039999999"
         fill="currentColor"
         id="rect96" />
    </g>
    <a
       style="color:inherit"
       xlink:href="textedit://D:/Jakob%20Krueger/Downloads/test.ly:9:3:4"
       id="a104"
       transform="translate(-17.071699,-6.6905999)">
      <g
         transform="translate(69.6691,9.1906)"
         id="g102">
        <path
           transform="scale(0.004,-0.004)"
           d="m 218,136 c 55,0 108,-28 108,-89 0,-71 -55,-121 -102,-149 -35,-21 -75,-34 -116,-34 -55,0 -108,28 -108,89 0,71 55,121 102,149 35,21 75,34 116,34 z"
           fill="currentColor"
           id="path100" />
      </g>
    </a>
    <g
       transform="translate(46.342901,8.3100001)"
       id="g108">
      <polygon
         stroke-linejoin="round"
         stroke-linecap="round"
         stroke-width="0.08"
         fill="currentColor"
         stroke="currentColor"
         points="2.8442,-0.82 2.8442,-0.42 0.04,0.2 0.04,-0.2 "
         id="polygon106" />
    </g>
    <g
       transform="translate(31.752601,5.0000001)"
       id="g112">
      <path
         transform="scale(0.004,-0.004)"
         d="m 0,119 c 0,8 5,15 13,18 l 46,17 v 158 c 0,10 8,19 18,19 10,0 19,-9 19,-19 V 167 l 83,31 v 158 c 0,10 9,19 19,19 10,0 18,-9 18,-19 V 211 l 32,12 c 2,1 5,1 7,1 11,0 20,-9 20,-20 v -60 c 0,-8 -5,-16 -13,-19 L 216,109 V -51 l 32,11 c 2,1 5,1 7,1 11,0 20,-9 20,-20 v -60 c 0,-8 -5,-15 -13,-18 l -46,-17 v -158 c 0,-10 -8,-19 -18,-19 -10,0 -19,9 -19,19 v 145 l -83,-31 v -158 c 0,-10 -9,-19 -19,-19 -10,0 -18,9 -18,19 v 145 l -32,-12 c -2,-1 -5,-1 -7,-1 -11,0 -20,9 -20,20 v 60 c 0,8 5,16 13,19 l 46,16 V 51 L 27,40 C 25,39 22,39 20,39 9,39 0,48 0,59 Z M 179,95 96,65 V -95 l 83,30 z"
         fill="currentColor"
         id="path110" />
    </g>
    <a
       style="color:inherit"
       xlink:href="textedit://D:/Jakob%20Krueger/Downloads/test.ly:8:3:4"
       id="a118"
       transform="translate(-17.071699,-6.6905999)">
      <g
         transform="translate(58.3579,12.6906)"
         id="g116">
        <path
           transform="scale(0.004,-0.004)"
           d="m 314,65 c 0,24 -21,41 -42,41 -4,0 -8,0 -12,-1 C 229,96 182,65 145,41 108,17 61,-12 41,-37 34,-45 31,-55 31,-65 c 0,-24 21,-41 42,-41 4,0 8,0 12,1 31,9 77,40 114,64 37,24 84,53 104,78 7,8 11,18 11,28 z m -52,71 c 46,0 82,-21 82,-71 0,-19 -4,-39 -10,-57 -12,-37 -32,-72 -64,-94 -53,-36 -113,-50 -187,-50 -46,0 -83,21 -83,71 0,19 5,39 11,57 12,37 31,72 63,94 53,36 114,50 188,50 z"
           fill="currentColor"
           id="path114" />
      </g>
    </a>
    <a
       style="color:inherit"
       xlink:href="textedit://D:/Jakob%20Krueger/Downloads/test.ly:7:3:4"
       id="a128"
       transform="translate(-17.071699,-6.6905999)">
      <g
         transform="translate(54.8898,12.1906)"
         id="g122">
        <path
           transform="scale(0.004,-0.004)"
           d="m 150,477 c -28,0 -57,-9 -57,-33 0,-22 35,-25 35,-47 0,-32 -25,-58 -57,-58 -32,0 -58,26 -58,58 0,64 67,103 137,103 91,0 169,-33 169,-114 0,-43 -4,-82 -42,-100 -9,-4 -14,-12 -14,-21 0,-9 5,-18 14,-22 41,-19 56,-57 56,-103 C 333,48 254,0 154,0 75,0 0,42 0,113 c 0,36 30,66 66,66 36,0 65,-30 65,-66 0,-25 -40,-28 -40,-53 0,-27 32,-37 63,-37 49,0 63,61 63,117 v 16 c 0,54 -2,94 -50,94 H 87 c -10,0 -14,8 -14,15 0,7 4,14 14,14 h 80 c 49,0 50,43 50,99 v 8 c 0,54 -18,91 -67,91 z"
           fill="currentColor"
           id="path120" />
      </g>
      <g
         transform="translate(54.7532,14.2066)"
         id="g126">
        <path
           transform="scale(0.004,-0.004)"
           d="m 196,117 h 117 c 0,-48 27,-94 72,-94 8,0 12,-5 12,-11 C 397,6 393,0 385,0 341,0 298,13 254,13 210,13 167,0 123,0 c -8,0 -12,6 -12,12 0,6 4,11 12,11 45,0 73,46 73,94 z m 8,190 c 22,14 44,29 60,50 11,15 19,33 27,50 2,4 5,6 9,6 6,0 13,-5 13,-14 V 154 h 72 c 10,0 15,-7 15,-14 0,-7 -5,-15 -15,-15 h -72 v -8 H 196 v 8 H 29 c -23,0 -31,14 -31,23 0,3 1,5 2,6 80,93 138,207 138,330 0,10 7,19 16,16 23,-7 47,-13 71,-13 24,0 48,6 71,13 14,4 23,-9 17,-16 L 29,154 h 167 v 131 c 0,8 1,17 8,22 z"
           fill="currentColor"
           id="path124" />
      </g>
    </a>
    <g
       transform="translate(42.598601,5.5000001)"
       id="g132">
      <rect
         x="-0.064999998"
         y="-3"
         width="0.13"
         height="3.2409999"
         ry="0.039999999"
         fill="currentColor"
         id="rect130" />
    </g>
    <g
       transform="translate(58.555801,1.5000001)"
       id="g136">
      <path
         transform="scale(0.004,-0.004)"
         d="m 0,119 c 0,8 5,15 13,18 l 46,17 v 158 c 0,10 8,19 18,19 10,0 19,-9 19,-19 V 167 l 83,31 v 158 c 0,10 9,19 19,19 10,0 18,-9 18,-19 V 211 l 32,12 c 2,1 5,1 7,1 11,0 20,-9 20,-20 v -60 c 0,-8 -5,-16 -13,-19 L 216,109 V -51 l 32,11 c 2,1 5,1 7,1 11,0 20,-9 20,-20 v -60 c 0,-8 -5,-15 -13,-18 l -46,-17 v -158 c 0,-10 -8,-19 -18,-19 -10,0 -19,9 -19,19 v 145 l -83,-31 v -158 c 0,-10 -9,-19 -19,-19 -10,0 -18,9 -18,19 v 145 l -32,-12 c -2,-1 -5,-1 -7,-1 -11,0 -20,9 -20,20 v 60 c 0,8 5,16 13,19 l 46,16 V 51 L 27,40 C 25,39 22,39 20,39 9,39 0,48 0,59 Z M 179,95 96,65 V -95 l 83,30 z"
         fill="currentColor"
         id="path134" />
    </g>
    <a
       style="color:inherit"
       xlink:href="textedit://D:/Jakob%20Krueger/Downloads/test.ly:3:6:7"
       id="a142"
       transform="translate(-17.071699,-6.6905999)">
      <g
         transform="translate(25.5398,12.1906)"
         id="g140">
        <path
           stroke-width="0.08"
           stroke-linejoin="round"
           stroke-linecap="round"
           stroke="currentColor"
           fill="currentColor"
           d="m 0.8521,4.75 c 0.785,0.7765 3.2211,0.7765 4.0062,0 v 0 c -0.7851,0.6565 -3.2212,0.6565 -4.0062,0 z"
           id="path138" />
      </g>
    </a>
    <g
       transform="translate(14.048501,5.3100001)"
       id="g146">
      <polygon
         stroke-linejoin="round"
         stroke-linecap="round"
         stroke-width="0.08"
         fill="currentColor"
         stroke="currentColor"
         points="6.1984,-0.82 6.1984,-0.42 0.04,0.2 0.04,-0.2 "
         id="polygon144" />
    </g>
    <a
       style="color:inherit"
       xlink:href="textedit://D:/Jakob%20Krueger/Downloads/test.ly:4:8:9"
       id="a152"
       transform="translate(-17.071699,-6.6905999)">
      <g
         transform="translate(43.5895,12.1906)"
         id="g150">
        <path
           stroke-width="0.08"
           stroke-linejoin="round"
           stroke-linecap="round"
           stroke="currentColor"
           fill="currentColor"
           d="m 0.8521,1.225 c 0.5181,0.5998 1.6493,0.5998 2.1674,0 v 0 c -0.5181,0.4798 -1.6493,0.4798 -2.1674,0 z"
           id="path148" />
      </g>
    </a>
    <g
       transform="translate(52.662401,5.5000001)"
       id="g156">
      <rect
         x="-0.064999998"
         y="-2.8138001"
         width="0.13"
         height="3.3138001"
         ry="0.039999999"
         fill="currentColor"
         id="rect154" />
    </g>
    <a
       style="color:inherit"
       xlink:href="textedit://D:/Jakob%20Krueger/Downloads/test.ly:9:6:7"
       id="a162"
       transform="translate(-17.071699,-6.6905999)">
      <g
         transform="translate(73.3733,9.1906)"
         id="g160">
        <path
           transform="scale(0.004,-0.004)"
           d="m 218,136 c 55,0 108,-28 108,-89 0,-71 -55,-121 -102,-149 -35,-21 -75,-34 -116,-34 -55,0 -108,28 -108,89 0,71 55,121 102,149 35,21 75,34 116,34 z"
           fill="currentColor"
           id="path158" />
      </g>
    </a>
    <g
       transform="translate(56.366601,5.5000001)"
       id="g166">
      <rect
         x="-0.064999998"
         y="-2.8138001"
         width="0.13"
         height="3.3138001"
         ry="0.039999999"
         fill="currentColor"
         id="rect164" />
    </g>
    <a
       style="color:inherit"
       xlink:href="textedit://D:/Jakob%20Krueger/Downloads/test.ly:9:8:9"
       id="a172"
       transform="translate(-17.071699,-6.6905999)">
      <g
         transform="translate(77.0775,8.1906)"
         id="g170">
        <path
           transform="scale(0.004,-0.004)"
           d="m 218,136 c 55,0 108,-28 108,-89 0,-71 -55,-121 -102,-149 -35,-21 -75,-34 -116,-34 -55,0 -108,28 -108,89 0,71 55,121 102,149 35,21 75,34 116,34 z"
           fill="currentColor"
           id="path168" />
      </g>
    </a>
    <g
       transform="translate(60.070801,5.5000001)"
       id="g176">
      <rect
         x="-0.064999998"
         y="-3.8138001"
         width="0.13"
         height="3.8138001"
         ry="0.039999999"
         fill="currentColor"
         id="rect174" />
    </g>
    <g
       transform="translate(14.113501,5.5000001)"
       id="g180">
      <rect
         x="-0.064999998"
         y="-0.1965"
         width="0.13"
         height="4.0103002"
         ry="0.039999999"
         fill="currentColor"
         id="rect178" />
    </g>
    <a
       style="color:inherit"
       xlink:href="textedit://D:/Jakob%20Krueger/Downloads/test.ly:3:10:11"
       id="a186"
       transform="translate(-17.071699,-6.6905999)">
      <g
         transform="translate(33.3002,15.1906)"
         id="g184">
        <path
           transform="scale(0.004,-0.004)"
           d="m 218,136 c 55,0 108,-28 108,-89 0,-71 -55,-121 -102,-149 -35,-21 -75,-34 -116,-34 -55,0 -108,28 -108,89 0,71 55,121 102,149 35,21 75,34 116,34 z"
           fill="currentColor"
           id="path182" />
      </g>
    </a>
    <g
       transform="translate(17.467701,5.5000001)"
       id="g190">
      <rect
         x="-0.064999998"
         y="-0.5298"
         width="0.13"
         height="3.3436"
         ry="0.039999999"
         fill="currentColor"
         id="rect188" />
    </g>
    <a
       style="color:inherit"
       xlink:href="textedit://D:/Jakob%20Krueger/Downloads/test.ly:3:8:9"
       id="a196"
       transform="translate(-17.071699,-6.6905999)">
      <g
         transform="translate(29.946,16.1906)"
         id="g194">
        <path
           transform="scale(0.004,-0.004)"
           d="m 218,136 c 55,0 108,-28 108,-89 0,-71 -55,-121 -102,-149 -35,-21 -75,-34 -116,-34 -55,0 -108,28 -108,89 0,71 55,121 102,149 35,21 75,34 116,34 z"
           fill="currentColor"
           id="path192" />
      </g>
    </a>
    <g
       transform="translate(14.778501,8.5000001)"
       id="g200">
      <path
         transform="scale(0.004,-0.004)"
         d="m 0,119 c 0,8 5,15 13,18 l 46,17 v 158 c 0,10 8,19 18,19 10,0 19,-9 19,-19 V 167 l 83,31 v 158 c 0,10 9,19 19,19 10,0 18,-9 18,-19 V 211 l 32,12 c 2,1 5,1 7,1 11,0 20,-9 20,-20 v -60 c 0,-8 -5,-16 -13,-19 L 216,109 V -51 l 32,11 c 2,1 5,1 7,1 11,0 20,-9 20,-20 v -60 c 0,-8 -5,-15 -13,-18 l -46,-17 v -158 c 0,-10 -8,-19 -18,-19 -10,0 -19,9 -19,19 v 145 l -83,-31 v -158 c 0,-10 -9,-19 -19,-19 -10,0 -18,9 -18,19 v 145 l -32,-12 c -2,-1 -5,-1 -7,-1 -11,0 -20,9 -20,20 v 60 c 0,8 5,16 13,19 l 46,16 V 51 L 27,40 C 25,39 22,39 20,39 9,39 0,48 0,59 Z M 179,95 96,65 V -95 l 83,30 z"
         fill="currentColor"
         id="path198" />
    </g>
    <a
       style="color:inherit"
       xlink:href="textedit://D:/Jakob%20Krueger/Downloads/test.ly:3:14:15"
       id="a206"
       transform="translate(-17.071699,-6.6905999)">
      <g
         transform="translate(36.0544,14.1906)"
         id="g204">
        <path
           transform="scale(0.004,-0.004)"
           d="m 218,136 c 55,0 108,-28 108,-89 0,-71 -55,-121 -102,-149 -35,-21 -75,-34 -116,-34 -55,0 -108,28 -108,89 0,71 55,121 102,149 35,21 75,34 116,34 z"
           fill="currentColor"
           id="path202" />
      </g>
    </a>
    <g
       transform="translate(20.221901,5.5000001)"
       id="g210">
      <rect
         x="-0.064999998"
         y="-0.8035"
         width="0.13"
         height="2.6173"
         ry="0.039999999"
         fill="currentColor"
         id="rect208" />
    </g>
    <a
       style="color:inherit"
       xlink:href="textedit://D:/Jakob%20Krueger/Downloads/test.ly:3:3:4"
       id="a216"
       transform="translate(-17.071699,-6.6905999)">
      <g
         transform="translate(25.5398,16.1906)"
         id="g214">
        <path
           transform="scale(0.004,-0.004)"
           d="m 218,136 c 55,0 108,-28 108,-89 0,-71 -55,-121 -102,-149 -35,-21 -75,-34 -116,-34 -55,0 -108,28 -108,89 0,71 55,121 102,149 35,21 75,34 116,34 z"
           fill="currentColor"
           id="path212" />
      </g>
    </a>
    <g
       transform="translate(0.80000071,6.5000001)"
       id="g220">
      <path
         transform="scale(0.004,-0.004)"
         d="m 266,-635 h -6 c -108,0 -195,88 -195,197 0,58 53,103 112,103 54,0 95,-47 95,-103 0,-52 -43,-95 -95,-95 -11,0 -21,2 -31,6 26,-39 68,-65 117,-65 h 4 z m 195,432 c 68,24 113,95 113,164 0,90 -66,179 -173,190 24,-116 46,-231 60,-354 z M 74,28 c 0,-135 129,-247 264,-247 28,0 55,2 82,6 C 406,-86 383,32 357,151 278,143 233,90 233,32 c 0,-44 25,-91 81,-123 5,-5 7,-10 7,-15 0,-11 -10,-22 -22,-22 -3,0 -6,1 -9,2 -80,43 -117,115 -117,185 0,88 58,174 160,197 -14,58 -29,117 -46,175 C 180,310 74,188 74,28 Z M 335,-262 C 147,-262 2,-90 2,112 c 0,177 131,306 248,441 -19,62 -37,125 -45,190 -6,52 -7,104 -7,156 0,115 55,224 149,292 6,5 14,5 20,0 71,-84 133,-245 133,-358 0,-143 -86,-255 -180,-364 21,-68 39,-138 56,-207 4,0 9,1 13,1 155,0 256,-128 256,-261 0,-76 -33,-154 -107,-210 -22,-17 -47,-28 -73,-36 3,-35 5,-70 5,-105 0,-19 -1,-39 -2,-58 -7,-119 -88,-225 -202,-228 l 1,43 c 93,2 153,92 159,191 1,18 2,37 2,55 0,31 -1,61 -4,92 -29,-5 -58,-8 -89,-8 z m 93,1178 c 0,55 -4,79 -20,129 -99,-48 -162,-149 -162,-259 0,-74 18,-133 36,-194 80,97 146,198 146,324 z"
         fill="currentColor"
         id="path218" />
    </g>
    <g
       transform="translate(5.0512007,5.5000001)"
       id="g224">
      <path
         transform="scale(0.004,-0.004)"
         d="m 170,259 c -51,0 -53,-43 -53,-100 v -18 -18 c 0,-57 2,-100 53,-100 57,0 61,51 61,118 0,67 -4,118 -61,118 z m -53,7 c 15,10 33,16 53,16 101,0 170,-46 170,-141 C 340,46 271,0 170,0 58,0 0,124 0,250 c 0,128 72,250 190,250 70,0 136,-39 136,-103 0,-36 -29,-66 -65,-66 -36,0 -66,30 -66,66 0,24 40,25 40,49 0,20 -23,31 -45,31 -66,0 -75,-65 -75,-139 0,-24 2,-48 2,-72 z"
         fill="currentColor"
         id="path222" />
    </g>
    <g
       transform="translate(5.0000007,7.5000001)"
       id="g228">
      <path
         transform="scale(0.004,-0.004)"
         d="m 261,287 c 25,30 44,64 44,103 0,54 -55,87 -114,87 -46,0 -73,-36 -73,-71 0,-21 10,-42 31,-54 z m 31,-18 C 346,238 372,190 372,144 372,71 306,0 183,0 89,0 0,54 0,140 c 0,50 36,87 72,123 -37,28 -55,66 -55,103 0,68 60,134 174,134 80,0 157,-39 157,-110 0,-46 -25,-86 -56,-121 z M 103,244 C 72,214 44,183 44,140 44,71 110,23 183,23 c 54,0 86,42 86,83 0,24 -10,48 -35,62 z"
         fill="currentColor"
         id="path226" />
    </g>
    <g
       transform="translate(10.222301,9.0000001)"
       id="g232">
      <path
         transform="scale(0.004,-0.004)"
         d="M 0,0 C 0,31 25,56 56,56 87,56 112,31 112,0 112,-31 87,-56 56,-56 25,-56 0,-31 0,0 Z"
         fill="currentColor"
         id="path230" />
    </g>
    <g
       transform="translate(9.7073007,5.5000001)"
       id="g236">
      <rect
         x="-0.064999998"
         y="0"
         width="0.13"
         height="3.8138001"
         ry="0.039999999"
         fill="currentColor"
         id="rect234" />
    </g>
    <a
       style="color:inherit"
       xlink:href="textedit://D:/Jakob%20Krueger/Downloads/test.ly:4:10:11"
       id="a242"
       transform="translate(-17.071699,-6.6905999)">
      <g
         transform="translate(46.1569,12.6906)"
         id="g240">
        <path
           transform="scale(0.004,-0.004)"
           d="m 218,136 c 55,0 108,-28 108,-89 0,-71 -55,-121 -102,-149 -35,-21 -75,-34 -116,-34 -55,0 -108,28 -108,89 0,71 55,121 102,149 35,21 75,34 116,34 z"
           fill="currentColor"
           id="path238" />
      </g>
    </a>
    <a
       style="color:inherit"
       xlink:href="textedit://D:/Jakob%20Krueger/Downloads/test.ly:4:6:7"
       id="a248"
       transform="translate(-17.071699,-6.6905999)">
      <g
         transform="translate(43.5895,12.6906)"
         id="g246">
        <path
           transform="scale(0.004,-0.004)"
           d="m 218,136 c 55,0 108,-28 108,-89 0,-71 -55,-121 -102,-149 -35,-21 -75,-34 -116,-34 -55,0 -108,28 -108,89 0,71 55,121 102,149 35,21 75,34 116,34 z"
           fill="currentColor"
           id="path244" />
      </g>
    </a>
    <g
       transform="translate(27.757001,5.5000001)"
       id="g252">
      <rect
         x="-0.064999998"
         y="-3"
         width="0.13"
         height="3.3138001"
         ry="0.039999999"
         fill="currentColor"
         id="rect250" />
    </g>
    <g
       transform="translate(27.822001,2.5400001)"
       id="g256">
      <path
         transform="scale(0.004,-0.004)"
         d="M 0,0 V -250 H -16 V 0 Z m 0,0 c 0,-197 207,-336 207,-533 0,-71 -15,-141 -41,-207 -5,-8 -13,-12 -20,-12 -13,0 -26,11 -23,27 26,61 42,126 42,192 0,103 -94,208 -165,283 z"
         fill="currentColor"
         id="path254" />
    </g>
    <g
       transform="translate(30.324401,5.5000001)"
       id="g260">
      <rect
         x="-0.064999998"
         y="-3"
         width="0.13"
         height="3.3138001"
         ry="0.039999999"
         fill="currentColor"
         id="rect258" />
    </g>
    <g
       transform="translate(30.389401,2.5400001)"
       id="g264">
      <path
         transform="scale(0.004,-0.004)"
         d="M 0,0 V -250 H -16 V 0 Z m 0,0 c 0,-197 207,-336 207,-533 0,-71 -15,-141 -41,-207 -5,-8 -13,-12 -20,-12 -13,0 -26,11 -23,27 26,61 42,126 42,192 0,103 -94,208 -165,283 z"
         fill="currentColor"
         id="path262" />
    </g>
    <a
       style="color:inherit"
       xlink:href="textedit://D:/Jakob%20Krueger/Downloads/test.ly:4:12:13"
       id="a270"
       transform="translate(-17.071699,-6.6905999)">
      <g
         transform="translate(50.2743,11.6906)"
         id="g268">
        <path
           transform="scale(0.004,-0.004)"
           d="m 218,136 c 55,0 108,-28 108,-89 0,-71 -55,-121 -102,-149 -35,-21 -75,-34 -116,-34 -55,0 -108,28 -108,89 0,71 55,121 102,149 35,21 75,34 116,34 z"
           fill="currentColor"
           id="path266" />
      </g>
    </a>
    <g
       transform="translate(33.267601,5.5000001)"
       id="g274">
      <rect
         x="-0.064999998"
         y="-0.31380001"
         width="0.13"
         height="3.3138001"
         ry="0.039999999"
         fill="currentColor"
         id="rect272" />
    </g>
    <g
       transform="translate(24.052801,5.5000001)"
       id="g278">
      <rect
         x="-0.064999998"
         y="-3"
         width="0.13"
         height="3.3138001"
         ry="0.039999999"
         fill="currentColor"
         id="rect276" />
    </g>
    <a
       style="color:inherit"
       xlink:href="textedit://D:/Jakob%20Krueger/Downloads/test.ly:4:3:4"
       id="a284"
       transform="translate(-17.071699,-6.6905999)">
      <g
         transform="translate(39.8853,12.6906)"
         id="g282">
        <path
           transform="scale(0.004,-0.004)"
           d="m 218,136 c 55,0 108,-28 108,-89 0,-71 -55,-121 -102,-149 -35,-21 -75,-34 -116,-34 -55,0 -108,28 -108,89 0,71 55,121 102,149 35,21 75,34 116,34 z"
           fill="currentColor"
           id="path280" />
      </g>
    </a>
  </g>
</svg>
