<?xml version="1.0" encoding="UTF-8" standalone="no"?>
<svg
   version="1.2"
   width="134.48468mm"
   height="15.106999mm"
   viewBox="0 0 76.529212 8.596717"
   id="svg845"
   sodipodi:docname="punktierte-pausen-2.svg"
   xmlns:inkscape="http://www.inkscape.org/namespaces/inkscape"
   xmlns:sodipodi="http://sodipodi.sourceforge.net/DTD/sodipodi-0.dtd"
   xmlns:xlink="http://www.w3.org/1999/xlink"
   xmlns="http://www.w3.org/2000/svg"
   xmlns:svg="http://www.w3.org/2000/svg">
  <defs
     id="defs849" />
  <sodipodi:namedview
     id="namedview847"
     pagecolor="#ffffff"
     bordercolor="#000000"
     borderopacity="0.25"
     inkscape:showpageshadow="2"
     inkscape:pageopacity="0.0"
     inkscape:pagecheckerboard="0"
     inkscape:deskcolor="#d1d1d1"
     inkscape:document-units="mm"
     showgrid="false" />
  <style
     type="text/css"
     id="style531"><![CDATA[
tspan { white-space: pre; }
]]></style>
  <g
     id="g410">
    <g
       transform="translate(7.0854351e-7,5.779)"
       id="g535">
      <line
         stroke-linejoin="round"
         stroke-linecap="round"
         stroke-width="0.1"
         stroke="currentColor"
         x1="0.050000001"
         y1="0"
         x2="76.479202"
         y2="0"
         id="line533" />
    </g>
    <g
       transform="translate(7.0854351e-7,4.779)"
       id="g539">
      <line
         stroke-linejoin="round"
         stroke-linecap="round"
         stroke-width="0.1"
         stroke="currentColor"
         x1="0.050000001"
         y1="0"
         x2="76.479202"
         y2="0"
         id="line537" />
    </g>
    <g
       transform="translate(7.0854351e-7,3.779)"
       id="g543">
      <line
         stroke-linejoin="round"
         stroke-linecap="round"
         stroke-width="0.1"
         stroke="currentColor"
         x1="0.050000001"
         y1="0"
         x2="76.479202"
         y2="0"
         id="line541" />
    </g>
    <g
       transform="translate(7.0854351e-7,2.779)"
       id="g547">
      <line
         stroke-linejoin="round"
         stroke-linecap="round"
         stroke-width="0.1"
         stroke="currentColor"
         x1="0.050000001"
         y1="0"
         x2="76.479202"
         y2="0"
         id="line545" />
    </g>
    <g
       transform="translate(7.0854351e-7,1.779)"
       id="g551">
      <line
         stroke-linejoin="round"
         stroke-linecap="round"
         stroke-width="0.1"
         stroke="currentColor"
         x1="0.050000001"
         y1="0"
         x2="76.479202"
         y2="0"
         id="line549" />
    </g>
    <g
       transform="translate(58.782201,3.779)"
       id="g555">
      <rect
         x="0"
         y="-2"
         width="0.19"
         height="4"
         ry="0.0000"
         fill="currentColor"
         id="rect553" />
    </g>
    <g
       transform="translate(25.830801,3.779)"
       id="g559">
      <rect
         x="0"
         y="-2"
         width="0.19"
         height="4"
         ry="0.0000"
         fill="currentColor"
         id="rect557" />
    </g>
    <g
       transform="translate(51.592201,3.779)"
       id="g563">
      <rect
         x="0"
         y="-2"
         width="0.19"
         height="4"
         ry="0.0000"
         fill="currentColor"
         id="rect561" />
    </g>
    <g
       transform="translate(15.168101,3.779)"
       id="g567">
      <rect
         x="0"
         y="-2"
         width="0.19"
         height="4"
         ry="0.0000"
         fill="currentColor"
         id="rect565" />
    </g>
    <g
       transform="translate(69.057501,3.779)"
       id="g571">
      <rect
         x="0"
         y="-2"
         width="0.19"
         height="4"
         ry="0.0000"
         fill="currentColor"
         id="rect569" />
    </g>
    <g
       transform="translate(40.947501,3.779)"
       id="g575">
      <rect
         x="0"
         y="-2"
         width="0.19"
         height="4"
         ry="0.0000"
         fill="currentColor"
         id="rect573" />
    </g>
    <g
       transform="translate(76.339201,3.779)"
       id="g579">
      <rect
         x="0"
         y="-2"
         width="0.19"
         height="4"
         ry="0.0000"
         fill="currentColor"
         id="rect577" />
    </g>
    <g
       transform="translate(-8.5358993,6.779)"
       id="g583">
      <rect
         x="74.086502"
         y="-0.1"
         width="1.9563"
         height="0.2"
         ry="0.1"
         fill="currentColor"
         id="rect581" />
    </g>
    <g
       transform="translate(-8.5358993,6.779)"
       id="g587">
      <rect
         x="71.084297"
         y="-0.1"
         width="1.9563"
         height="0.2"
         ry="0.1"
         fill="currentColor"
         id="rect585" />
    </g>
    <g
       transform="translate(-8.5358993,6.779)"
       id="g591">
      <rect
         x="68.082001"
         y="-0.1"
         width="1.9563"
         height="0.2"
         ry="0.1"
         fill="currentColor"
         id="rect589" />
    </g>
    <g
       transform="translate(-8.5358993,7.779)"
       id="g595">
      <rect
         x="68.082001"
         y="-0.1"
         width="1.9563"
         height="0.2"
         ry="0.1"
         fill="currentColor"
         id="rect593" />
    </g>
    <g
       transform="translate(-8.5358993,6.779)"
       id="g599">
      <rect
         x="46.9245"
         y="-0.1"
         width="1.9062999"
         height="0.2"
         ry="0.1"
         fill="currentColor"
         id="rect597" />
    </g>
    <g
       transform="translate(-8.5358993,6.779)"
       id="g603">
      <rect
         x="44.918201"
         y="-0.1"
         width="1.9062999"
         height="0.2"
         ry="0.1"
         fill="currentColor"
         id="rect601" />
    </g>
    <g
       transform="translate(-8.5358993,6.779)"
       id="g607">
      <rect
         x="35.1306"
         y="-0.1"
         width="1.9563"
         height="0.2"
         ry="0.1"
         fill="currentColor"
         id="rect605" />
    </g>
    <g
       transform="translate(-8.5358993,6.779)"
       id="g611">
      <rect
         x="29.617901"
         y="-0.1"
         width="1.9563"
         height="0.2"
         ry="0.1"
         fill="currentColor"
         id="rect609" />
    </g>
    <a
       style="color:inherit"
       xlink:href="textedit://D:/Jakob%20Krueger/Downloads/test.ly:10:3:4"
       id="a617"
       transform="translate(-17.071699,-7.9116)">
      <g
         transform="translate(70.7539,11.6906)"
         id="g615">
        <path
           transform="scale(0.004,-0.004)"
           d="M 365,0 H 10 C 4,0 0,4 0,10 v 136 c 0,6 4,10 10,10 h 355 c 6,0 10,-4 10,-10 V 10 C 375,4 371,0 365,0 Z"
           fill="currentColor"
           id="path613" />
      </g>
    </a>
    <g
       transform="translate(37.882601,3.779)"
       id="g621">
      <polygon
         stroke-linejoin="round"
         stroke-linecap="round"
         stroke-width="0.08"
         fill="currentColor"
         stroke="currentColor"
         points="2.0463,-0.2 2.0463,0.2 0.04,0.2 0.04,-0.2 "
         id="polygon619" />
    </g>
    <g
       transform="translate(37.882601,4.589)"
       id="g625">
      <polygon
         stroke-linejoin="round"
         stroke-linecap="round"
         stroke-width="0.08"
         fill="currentColor"
         stroke="currentColor"
         points="1.125,-0.2 1.125,0.2 0.04,0.2 0.04,-0.2 "
         id="polygon623" />
    </g>
    <g
       transform="translate(55.632201,3.279)"
       id="g629">
      <path
         transform="scale(0.004,-0.004)"
         d="M 0,0 C 0,31 25,56 56,56 87,56 112,31 112,0 112,-31 87,-56 56,-56 25,-56 0,-31 0,0 Z"
         fill="currentColor"
         id="path627" />
    </g>
    <a
       style="color:inherit"
       xlink:href="textedit://D:/Jakob%20Krueger/Downloads/test.ly:6:19:20"
       id="a635"
       transform="translate(-17.071699,-7.9116)">
      <g
         transform="translate(55.7364,14.6906)"
         id="g633">
        <path
           transform="scale(0.004,-0.004)"
           d="m 218,136 c 55,0 108,-28 108,-89 0,-71 -55,-121 -102,-149 -35,-21 -75,-34 -116,-34 -55,0 -108,28 -108,89 0,71 55,121 102,149 35,21 75,34 116,34 z"
           fill="currentColor"
           id="path631" />
      </g>
    </a>
    <g
       transform="translate(39.903901,3.779)"
       id="g639">
      <rect
         x="-0.064999998"
         y="0"
         width="0.13"
         height="2.8138001"
         ry="0.039999999"
         fill="currentColor"
         id="rect637" />
    </g>
    <a
       style="color:inherit"
       xlink:href="textedit://D:/Jakob%20Krueger/Downloads/test.ly:9:3:4"
       id="a645"
       transform="translate(-17.071699,-7.9116)">
      <g
         transform="translate(63.5639,11.6906)"
         id="g643">
        <path
           transform="scale(0.004,-0.004)"
           d="M 365,0 H 10 C 4,0 0,4 0,10 v 136 c 0,6 4,10 10,10 h 355 c 6,0 10,-4 10,-10 V 10 C 375,4 371,0 365,0 Z"
           fill="currentColor"
           id="path641" />
      </g>
    </a>
    <g
       transform="translate(37.947601,3.779)"
       id="g649">
      <rect
         x="-0.064999998"
         y="0"
         width="0.13"
         height="2.8138001"
         ry="0.039999999"
         fill="currentColor"
         id="rect647" />
    </g>
    <a
       style="color:inherit"
       xlink:href="textedit://D:/Jakob%20Krueger/Downloads/test.ly:8:3:4"
       id="a659"
       transform="translate(-17.071699,-7.9116)">
      <g
         transform="translate(59.0957,11.6906)"
         id="g653">
        <path
           transform="scale(0.004,-0.004)"
           d="m 150,477 c -28,0 -57,-9 -57,-33 0,-22 35,-25 35,-47 0,-32 -25,-58 -57,-58 -32,0 -58,26 -58,58 0,64 67,103 137,103 91,0 169,-33 169,-114 0,-43 -4,-82 -42,-100 -9,-4 -14,-12 -14,-21 0,-9 5,-18 14,-22 41,-19 56,-57 56,-103 C 333,48 254,0 154,0 75,0 0,42 0,113 c 0,36 30,66 66,66 36,0 65,-30 65,-66 0,-25 -40,-28 -40,-53 0,-27 32,-37 63,-37 49,0 63,61 63,117 v 16 c 0,54 -2,94 -50,94 H 87 c -10,0 -14,8 -14,15 0,7 4,14 14,14 h 80 c 49,0 50,43 50,99 v 8 c 0,54 -18,91 -67,91 z"
           fill="currentColor"
           id="path651" />
      </g>
      <g
         transform="translate(58.9592,13.7066)"
         id="g657">
        <path
           transform="scale(0.004,-0.004)"
           d="m 196,117 h 117 c 0,-48 27,-94 72,-94 8,0 12,-5 12,-11 C 397,6 393,0 385,0 341,0 298,13 254,13 210,13 167,0 123,0 c -8,0 -12,6 -12,12 0,6 4,11 12,11 45,0 73,46 73,94 z m 8,190 c 22,14 44,29 60,50 11,15 19,33 27,50 2,4 5,6 9,6 6,0 13,-5 13,-14 V 154 h 72 c 10,0 15,-7 15,-14 0,-7 -5,-15 -15,-15 h -72 v -8 H 196 v 8 H 29 c -23,0 -31,14 -31,23 0,3 1,5 2,6 80,93 138,207 138,330 0,10 7,19 16,16 23,-7 47,-13 71,-13 24,0 48,6 71,13 14,4 23,-9 17,-16 L 29,154 h 167 v 131 c 0,8 1,17 8,22 z"
           fill="currentColor"
           id="path655" />
      </g>
    </a>
    <g
       transform="translate(48.442201,3.279)"
       id="g663">
      <path
         transform="scale(0.004,-0.004)"
         d="M 0,0 C 0,31 25,56 56,56 87,56 112,31 112,0 112,-31 87,-56 56,-56 25,-56 0,-31 0,0 Z"
         fill="currentColor"
         id="path661" />
    </g>
    <a
       style="color:inherit"
       xlink:href="textedit://D:/Jakob%20Krueger/Downloads/test.ly:6:17:18"
       id="a669"
       transform="translate(-17.071699,-7.9116)">
      <g
         transform="translate(53.7801,14.6906)"
         id="g667">
        <path
           transform="scale(0.004,-0.004)"
           d="m 218,136 c 55,0 108,-28 108,-89 0,-71 -55,-121 -102,-149 -35,-21 -75,-34 -116,-34 -55,0 -108,28 -108,89 0,71 55,121 102,149 35,21 75,34 116,34 z"
           fill="currentColor"
           id="path665" />
      </g>
    </a>
    <g
       transform="translate(72.974901,6.279)"
       id="g673">
      <path
         transform="scale(0.004,-0.004)"
         d="M 0,0 C 0,31 25,56 56,56 87,56 112,31 112,0 112,-31 87,-56 56,-56 25,-56 0,-31 0,0 Z"
         fill="currentColor"
         id="path671" />
    </g>
    <g
       transform="translate(72.459901,3.779)"
       id="g677">
      <rect
         x="-0.064999998"
         y="-1"
         width="0.13"
         height="3.2409999"
         ry="0.039999999"
         fill="currentColor"
         id="rect675" />
    </g>
    <g
       transform="translate(22.582301,3.779)"
       id="g681">
      <polygon
         stroke-linejoin="round"
         stroke-linecap="round"
         stroke-width="0.08"
         fill="currentColor"
         stroke="currentColor"
         points="2.1942,-0.39 2.1942,0.01 0.04,0.2 0.04,-0.2 "
         id="polygon679" />
    </g>
    <g
       transform="translate(28.095001,3.589)"
       id="g685">
      <polygon
         stroke-linejoin="round"
         stroke-linecap="round"
         stroke-width="0.08"
         fill="currentColor"
         stroke="currentColor"
         points="4.2984,-0.82 4.2984,-0.42 0.04,0.2 0.04,-0.2 "
         id="polygon683" />
    </g>
    <g
       transform="translate(61.111401,3.779)"
       id="g689">
      <rect
         x="-0.064999998"
         y="0"
         width="0.13"
         height="3.8138001"
         ry="0.039999999"
         fill="currentColor"
         id="rect687" />
    </g>
    <a
       style="color:inherit"
       xlink:href="textedit://D:/Jakob%20Krueger/Downloads/test.ly:11:3:4"
       id="a695"
       transform="translate(-17.071699,-7.9116)">
      <g
         transform="translate(76.9439,15.6906)"
         id="g693">
        <path
           transform="scale(0.004,-0.004)"
           d="m 218,136 c 55,0 108,-28 108,-89 0,-71 -55,-121 -102,-149 -35,-21 -75,-34 -116,-34 -55,0 -108,28 -108,89 0,71 55,121 102,149 35,21 75,34 116,34 z"
           fill="currentColor"
           id="path691" />
      </g>
    </a>
    <a
       style="color:inherit"
       xlink:href="textedit://D:/Jakob%20Krueger/Downloads/test.ly:11:6:7"
       id="a701"
       transform="translate(-17.071699,-7.9116)">
      <g
         transform="translate(79.9462,15.1906)"
         id="g699">
        <path
           transform="scale(0.004,-0.004)"
           d="m 218,136 c 55,0 108,-28 108,-89 0,-71 -55,-121 -102,-149 -35,-21 -75,-34 -116,-34 -55,0 -108,28 -108,89 0,71 55,121 102,149 35,21 75,34 116,34 z"
           fill="currentColor"
           id="path697" />
      </g>
    </a>
    <g
       transform="translate(64.113701,3.779)"
       id="g705">
      <rect
         x="-0.064999998"
         y="0"
         width="0.13"
         height="3.3138001"
         ry="0.039999999"
         fill="currentColor"
         id="rect703" />
    </g>
    <a
       style="color:inherit"
       xlink:href="textedit://D:/Jakob%20Krueger/Downloads/test.ly:11:8:9"
       id="a711"
       transform="translate(-17.071699,-7.9116)">
      <g
         transform="translate(82.9484,14.6906)"
         id="g709">
        <path
           transform="scale(0.004,-0.004)"
           d="m 218,136 c 55,0 108,-28 108,-89 0,-71 -55,-121 -102,-149 -35,-21 -75,-34 -116,-34 -55,0 -108,28 -108,89 0,71 55,121 102,149 35,21 75,34 116,34 z"
           fill="currentColor"
           id="path707" />
      </g>
    </a>
    <g
       transform="translate(67.115901,3.779)"
       id="g715">
      <rect
         x="-0.064999998"
         y="-0.5"
         width="0.13"
         height="3.3138001"
         ry="0.039999999"
         fill="currentColor"
         id="rect713" />
    </g>
    <a
       style="color:inherit"
       xlink:href="textedit://D:/Jakob%20Krueger/Downloads/test.ly:12:3:4"
       id="a721"
       transform="translate(-17.071699,-7.9116)">
      <g
         transform="translate(88.2192,14.1906)"
         id="g719">
        <path
           transform="scale(0.004,-0.004)"
           d="m 314,65 c 0,24 -21,41 -42,41 -4,0 -8,0 -12,-1 C 229,96 182,65 145,41 108,17 61,-12 41,-37 34,-45 31,-55 31,-65 c 0,-24 21,-41 42,-41 4,0 8,0 12,1 31,9 77,40 114,64 37,24 84,53 104,78 7,8 11,18 11,28 z m -52,71 c 46,0 82,-21 82,-71 0,-19 -4,-39 -10,-57 -12,-37 -32,-72 -64,-94 -53,-36 -113,-50 -187,-50 -46,0 -83,21 -83,71 0,19 5,39 11,57 12,37 31,72 63,94 53,36 114,50 188,50 z"
           fill="currentColor"
           id="path717" />
      </g>
    </a>
    <g
       transform="translate(17.658101,3.279)"
       id="g725">
      <path
         transform="scale(0.004,-0.004)"
         d="M 0,0 C 0,31 25,56 56,56 87,56 112,31 112,0 112,-31 87,-56 56,-56 25,-56 0,-31 0,0 Z"
         fill="currentColor"
         id="path723" />
    </g>
    <a
       style="color:inherit"
       xlink:href="textedit://D:/Jakob%20Krueger/Downloads/test.ly:5:3:4"
       id="a731"
       transform="translate(-17.071699,-7.9116)">
      <g
         transform="translate(33.3298,11.6906)"
         id="g729">
        <path
           transform="scale(0.004,-0.004)"
           d="m -23,-116 c 0,28 11,42 40,42 33,0 78,-13 119,-31 L 4,53 c -7,9 -10,17 -10,25 0,34 50,66 87,99 25,22 37,52 37,83 0,24 -8,49 -25,69 l -35,42 c -3,3 -4,7 -4,10 0,9 9,15 17,15 4,0 8,-1 11,-5 L 233,211 c 7,-9 10,-17 10,-25 0,-34 -50,-66 -87,-99 -25,-22 -37,-52 -37,-83 0,-24 7,-49 24,-69 l 84,-99 c 3,-3 4,-7 4,-10 0,-9 -8,-16 -16,-16 -4,0 -9,2 -12,6 -18,21 -63,38 -97,38 -41,0 -53,-26 -53,-67 0,-35 11,-74 28,-94 7,-8 -5,-19 -12,-11 -45,54 -92,148 -92,202 z"
           fill="currentColor"
           id="path727" />
      </g>
    </a>
    <a
       style="color:inherit"
       xlink:href="textedit://D:/Jakob%20Krueger/Downloads/test.ly:5:7:8"
       id="a737"
       transform="translate(-17.071699,-7.9116)">
      <g
         transform="translate(36.6798,11.6906)"
         id="g735">
        <path
           transform="scale(0.004,-0.004)"
           d="M 72,-250 189,76 C 155,64 120,54 84,54 38,54 -3,87 -3,133 c 0,40 33,72 73,72 25,0 48,-15 56,-39 10,-28 6,-59 35,-59 16,0 54,48 61,63 6,12 23,12 28,0 L 127,-250 c -8,-7 -17,-10 -27,-10 -10,0 -20,3 -28,10 z"
           fill="currentColor"
           id="path733" />
      </g>
    </a>
    <a
       style="color:inherit"
       xlink:href="textedit://D:/Jakob%20Krueger/Downloads/test.ly:5:10:11"
       id="a743"
       transform="translate(-17.071699,-7.9116)">
      <g
         transform="translate(38.4798,14.6906)"
         id="g741">
        <path
           transform="scale(0.004,-0.004)"
           d="m 218,136 c 55,0 108,-28 108,-89 0,-71 -55,-121 -102,-149 -35,-21 -75,-34 -116,-34 -55,0 -108,28 -108,89 0,71 55,121 102,149 35,21 75,34 116,34 z"
           fill="currentColor"
           id="path739" />
      </g>
    </a>
    <a
       style="color:inherit"
       xlink:href="textedit://D:/Jakob%20Krueger/Downloads/test.ly:4:3:4"
       id="a749"
       transform="translate(-17.071699,-7.9116)">
      <g
         transform="translate(25.5398,11.6906)"
         id="g747">
        <path
           transform="scale(0.004,-0.004)"
           d="m -23,-116 c 0,28 11,42 40,42 33,0 78,-13 119,-31 L 4,53 c -7,9 -10,17 -10,25 0,34 50,66 87,99 25,22 37,52 37,83 0,24 -8,49 -25,69 l -35,42 c -3,3 -4,7 -4,10 0,9 9,15 17,15 4,0 8,-1 11,-5 L 233,211 c 7,-9 10,-17 10,-25 0,-34 -50,-66 -87,-99 -25,-22 -37,-52 -37,-83 0,-24 7,-49 24,-69 l 84,-99 c 3,-3 4,-7 4,-10 0,-9 -8,-16 -16,-16 -4,0 -9,2 -12,6 -18,21 -63,38 -97,38 -41,0 -53,-26 -53,-67 0,-35 11,-74 28,-94 7,-8 -5,-19 -12,-11 -45,54 -92,148 -92,202 z"
           fill="currentColor"
           id="path745" />
      </g>
    </a>
    <g
       transform="translate(0.80000071,4.779)"
       id="g753">
      <path
         transform="scale(0.004,-0.004)"
         d="m 266,-635 h -6 c -108,0 -195,88 -195,197 0,58 53,103 112,103 54,0 95,-47 95,-103 0,-52 -43,-95 -95,-95 -11,0 -21,2 -31,6 26,-39 68,-65 117,-65 h 4 z m 195,432 c 68,24 113,95 113,164 0,90 -66,179 -173,190 24,-116 46,-231 60,-354 z M 74,28 c 0,-135 129,-247 264,-247 28,0 55,2 82,6 C 406,-86 383,32 357,151 278,143 233,90 233,32 c 0,-44 25,-91 81,-123 5,-5 7,-10 7,-15 0,-11 -10,-22 -22,-22 -3,0 -6,1 -9,2 -80,43 -117,115 -117,185 0,88 58,174 160,197 -14,58 -29,117 -46,175 C 180,310 74,188 74,28 Z M 335,-262 C 147,-262 2,-90 2,112 c 0,177 131,306 248,441 -19,62 -37,125 -45,190 -6,52 -7,104 -7,156 0,115 55,224 149,292 6,5 14,5 20,0 71,-84 133,-245 133,-358 0,-143 -86,-255 -180,-364 21,-68 39,-138 56,-207 4,0 9,1 13,1 155,0 256,-128 256,-261 0,-76 -33,-154 -107,-210 -22,-17 -47,-28 -73,-36 3,-35 5,-70 5,-105 0,-19 -1,-39 -2,-58 -7,-119 -88,-225 -202,-228 l 1,43 c 93,2 153,92 159,191 1,18 2,37 2,55 0,31 -1,61 -4,92 -29,-5 -58,-8 -89,-8 z m 93,1178 c 0,55 -4,79 -20,129 -99,-48 -162,-149 -162,-259 0,-74 18,-133 36,-194 80,97 146,198 146,324 z"
         fill="currentColor"
         id="path751" />
    </g>
    <g
       transform="translate(5.0512007,3.779)"
       id="g757">
      <path
         transform="scale(0.004,-0.004)"
         d="m 170,259 c -51,0 -53,-43 -53,-100 v -18 -18 c 0,-57 2,-100 53,-100 57,0 61,51 61,118 0,67 -4,118 -61,118 z m -53,7 c 15,10 33,16 53,16 101,0 170,-46 170,-141 C 340,46 271,0 170,0 58,0 0,124 0,250 c 0,128 72,250 190,250 70,0 136,-39 136,-103 0,-36 -29,-66 -65,-66 -36,0 -66,30 -66,66 0,24 40,25 40,49 0,20 -23,31 -45,31 -66,0 -75,-65 -75,-139 0,-24 2,-48 2,-72 z"
         fill="currentColor"
         id="path755" />
    </g>
    <g
       transform="translate(5.0000007,5.779)"
       id="g761">
      <path
         transform="scale(0.004,-0.004)"
         d="m 261,287 c 25,30 44,64 44,103 0,54 -55,87 -114,87 -46,0 -73,-36 -73,-71 0,-21 10,-42 31,-54 z m 31,-18 C 346,238 372,190 372,144 372,71 306,0 183,0 89,0 0,54 0,140 c 0,50 36,87 72,123 -37,28 -55,66 -55,103 0,68 60,134 174,134 80,0 157,-39 157,-110 0,-46 -25,-86 -56,-121 z M 103,244 C 72,214 44,183 44,140 44,71 110,23 183,23 c 54,0 86,42 86,83 0,24 -10,48 -35,62 z"
         fill="currentColor"
         id="path759" />
    </g>
    <g
       transform="translate(9.8681007,3.279)"
       id="g765">
      <path
         transform="scale(0.004,-0.004)"
         d="M 0,0 C 0,31 25,56 56,56 87,56 112,31 112,0 112,-31 87,-56 56,-56 25,-56 0,-31 0,0 Z"
         fill="currentColor"
         id="path763" />
    </g>
    <g
       transform="translate(22.647301,3.779)"
       id="g769">
      <rect
         x="-0.064999998"
         y="-0.0055"
         width="0.13"
         height="2.8192999"
         ry="0.039999999"
         fill="currentColor"
         id="rect767" />
    </g>
    <a
       style="color:inherit"
       xlink:href="textedit://D:/Jakob%20Krueger/Downloads/test.ly:4:7:8"
       id="a775"
       transform="translate(-17.071699,-7.9116)">
      <g
         transform="translate(28.8898,11.6906)"
         id="g773">
        <path
           transform="scale(0.004,-0.004)"
           d="m -23,-116 c 0,28 11,42 40,42 33,0 78,-13 119,-31 L 4,53 c -7,9 -10,17 -10,25 0,34 50,66 87,99 25,22 37,52 37,83 0,24 -8,49 -25,69 l -35,42 c -3,3 -4,7 -4,10 0,9 9,15 17,15 4,0 8,-1 11,-5 L 233,211 c 7,-9 10,-17 10,-25 0,-34 -50,-66 -87,-99 -25,-22 -37,-52 -37,-83 0,-24 7,-49 24,-69 l 84,-99 c 3,-3 4,-7 4,-10 0,-9 -8,-16 -16,-16 -4,0 -9,2 -12,6 -18,21 -63,38 -97,38 -41,0 -53,-26 -53,-67 0,-35 11,-74 28,-94 7,-8 -5,-19 -12,-11 -45,54 -92,148 -92,202 z"
           fill="currentColor"
           id="path771" />
      </g>
    </a>
    <g
       transform="translate(13.218101,3.279)"
       id="g779">
      <path
         transform="scale(0.004,-0.004)"
         d="M 0,0 C 0,31 25,56 56,56 87,56 112,31 112,0 112,-31 87,-56 56,-56 25,-56 0,-31 0,0 Z"
         fill="currentColor"
         id="path777" />
    </g>
    <a
       style="color:inherit"
       xlink:href="textedit://D:/Jakob%20Krueger/Downloads/test.ly:6:8:9"
       id="a785"
       transform="translate(-17.071699,-7.9116)">
      <g
         transform="translate(48.2009,13.6906)"
         id="g783">
        <path
           transform="scale(0.004,-0.004)"
           d="m 218,136 c 55,0 108,-28 108,-89 0,-71 -55,-121 -102,-149 -35,-21 -75,-34 -116,-34 -55,0 -108,28 -108,89 0,71 55,121 102,149 35,21 75,34 116,34 z"
           fill="currentColor"
           id="path781" />
      </g>
    </a>
    <a
       style="color:inherit"
       xlink:href="textedit://D:/Jakob%20Krueger/Downloads/test.ly:6:6:7"
       id="a791"
       transform="translate(-17.071699,-7.9116)">
      <g
         transform="translate(46.0967,14.1906)"
         id="g789">
        <path
           transform="scale(0.004,-0.004)"
           d="m 218,136 c 55,0 108,-28 108,-89 0,-71 -55,-121 -102,-149 -35,-21 -75,-34 -116,-34 -55,0 -108,28 -108,89 0,71 55,121 102,149 35,21 75,34 116,34 z"
           fill="currentColor"
           id="path787" />
      </g>
    </a>
    <g
       transform="translate(30.264201,3.779)"
       id="g795">
      <rect
         x="-0.064999998"
         y="-0.5"
         width="0.13"
         height="2.8138001"
         ry="0.039999999"
         fill="currentColor"
         id="rect793" />
    </g>
    <a
       style="color:inherit"
       xlink:href="textedit://D:/Jakob%20Krueger/Downloads/test.ly:5:12:13"
       id="a801"
       transform="translate(-17.071699,-7.9116)">
      <g
         transform="translate(40.584,14.1906)"
         id="g799">
        <path
           transform="scale(0.004,-0.004)"
           d="m 218,136 c 55,0 108,-28 108,-89 0,-71 -55,-121 -102,-149 -35,-21 -75,-34 -116,-34 -55,0 -108,28 -108,89 0,71 55,121 102,149 35,21 75,34 116,34 z"
           fill="currentColor"
           id="path797" />
      </g>
    </a>
    <g
       transform="translate(32.368401,3.779)"
       id="g805">
      <rect
         x="-0.064999998"
         y="-0.80070001"
         width="0.13"
         height="2.6145"
         ry="0.039999999"
         fill="currentColor"
         id="rect803" />
    </g>
    <a
       style="color:inherit"
       xlink:href="textedit://D:/Jakob%20Krueger/Downloads/test.ly:6:10:11"
       id="a811"
       transform="translate(-17.071699,-7.9116)">
      <g
         transform="translate(50.3051,11.6906)"
         id="g809">
        <path
           transform="scale(0.004,-0.004)"
           d="M 72,-250 189,76 C 155,64 120,54 84,54 38,54 -3,87 -3,133 c 0,40 33,72 73,72 25,0 48,-15 56,-39 10,-28 6,-59 35,-59 16,0 54,48 61,63 6,12 23,12 28,0 L 127,-250 c -8,-7 -17,-10 -27,-10 -10,0 -20,3 -28,10 z"
           fill="currentColor"
           id="path807" />
      </g>
    </a>
    <a
       style="color:inherit"
       xlink:href="textedit://D:/Jakob%20Krueger/Downloads/test.ly:6:13:14"
       id="a817"
       transform="translate(-17.071699,-7.9116)">
      <g
         transform="translate(52.1051,11.6906)"
         id="g815">
        <path
           transform="scale(0.004,-0.004)"
           d="m 66,-500 101,327 c -34,-12 -70,-23 -106,-23 -46,0 -87,33 -87,79 0,40 32,72 72,72 25,0 49,-15 57,-39 10,-28 5,-59 34,-59 16,0 55,51 60,68 L 243,76 C 209,64 175,54 139,54 93,54 52,87 52,133 c 0,40 33,72 73,72 25,0 48,-15 56,-39 10,-28 5,-59 34,-59 15,0 50,49 57,63 6,12 23,12 28,0 L 121,-500 c -8,-7 -17,-10 -27,-10 -10,0 -20,3 -28,10 z"
           fill="currentColor"
           id="path813" />
      </g>
    </a>
    <a
       style="color:inherit"
       xlink:href="textedit://D:/Jakob%20Krueger/Downloads/test.ly:6:3:4"
       id="a823"
       transform="translate(-17.071699,-7.9116)">
      <g
         transform="translate(43.9925,14.6906)"
         id="g821">
        <path
           transform="scale(0.004,-0.004)"
           d="m 218,136 c 55,0 108,-28 108,-89 0,-71 -55,-121 -102,-149 -35,-21 -75,-34 -116,-34 -55,0 -108,28 -108,89 0,71 55,121 102,149 35,21 75,34 116,34 z"
           fill="currentColor"
           id="path819" />
      </g>
    </a>
    <g
       transform="translate(28.160001,3.779)"
       id="g827">
      <rect
         x="-0.064999998"
         y="-0.19930001"
         width="0.13"
         height="3.0130999"
         ry="0.039999999"
         fill="currentColor"
         id="rect825" />
    </g>
    <g
       transform="translate(24.751501,3.779)"
       id="g831">
      <rect
         x="-0.064999998"
         y="-0.18449999"
         width="0.13"
         height="2.4983001"
         ry="0.039999999"
         fill="currentColor"
         id="rect829" />
    </g>
  </g>
</svg>
