<?xml version="1.0" encoding="UTF-8" standalone="no"?>
<svg
   version="1.2"
   width="126.11993mm"
   height="15.106999mm"
   viewBox="0 0 71.769204 8.596717"
   id="svg166"
   sodipodi:docname="punktierte-pausen.svg"
   xmlns:inkscape="http://www.inkscape.org/namespaces/inkscape"
   xmlns:sodipodi="http://sodipodi.sourceforge.net/DTD/sodipodi-0.dtd"
   xmlns:xlink="http://www.w3.org/1999/xlink"
   xmlns="http://www.w3.org/2000/svg"
   xmlns:svg="http://www.w3.org/2000/svg">
  <defs
     id="defs170" />
  <sodipodi:namedview
     id="namedview168"
     pagecolor="#ffffff"
     bordercolor="#000000"
     borderopacity="0.25"
     inkscape:showpageshadow="2"
     inkscape:pageopacity="0.0"
     inkscape:pagecheckerboard="0"
     inkscape:deskcolor="#d1d1d1"
     inkscape:document-units="mm"
     showgrid="false" />
  <style
     type="text/css"
     id="style2"><![CDATA[
tspan { white-space: pre; }
]]></style>
  <g
     id="g260">
    <g
       transform="translate(7.0854351e-7,5.779)"
       id="g6">
      <line
         stroke-linejoin="round"
         stroke-linecap="round"
         stroke-width="0.1"
         stroke="currentColor"
         x1="0.050000001"
         y1="0"
         x2="41.937901"
         y2="0"
         id="line4" />
    </g>
    <g
       transform="translate(7.0854351e-7,4.779)"
       id="g10">
      <line
         stroke-linejoin="round"
         stroke-linecap="round"
         stroke-width="0.1"
         stroke="currentColor"
         x1="0.050000001"
         y1="0"
         x2="41.937901"
         y2="0"
         id="line8" />
    </g>
    <g
       transform="translate(7.0854351e-7,3.779)"
       id="g14">
      <line
         stroke-linejoin="round"
         stroke-linecap="round"
         stroke-width="0.1"
         stroke="currentColor"
         x1="0.050000001"
         y1="0"
         x2="41.937901"
         y2="0"
         id="line12" />
    </g>
    <g
       transform="translate(7.0854351e-7,2.779)"
       id="g18">
      <line
         stroke-linejoin="round"
         stroke-linecap="round"
         stroke-width="0.1"
         stroke="currentColor"
         x1="0.050000001"
         y1="0"
         x2="41.937901"
         y2="0"
         id="line16" />
    </g>
    <g
       transform="translate(7.0854351e-7,1.779)"
       id="g22">
      <line
         stroke-linejoin="round"
         stroke-linecap="round"
         stroke-width="0.1"
         stroke="currentColor"
         x1="0.050000001"
         y1="0"
         x2="41.937901"
         y2="0"
         id="line20" />
    </g>
    <g
       transform="translate(41.797801,3.779)"
       id="g26">
      <rect
         x="0"
         y="-2"
         width="0.19"
         height="4"
         ry="0.0000"
         fill="currentColor"
         id="rect24" />
    </g>
    <g
       transform="translate(22.372601,3.779)"
       id="g30">
      <rect
         x="0"
         y="-2"
         width="0.19"
         height="4"
         ry="0.0000"
         fill="currentColor"
         id="rect28" />
    </g>
    <g
       transform="translate(-8.5358993,6.779)"
       id="g34">
      <rect
         x="37.2225"
         y="-0.1"
         width="1.9563"
         height="0.2"
         ry="0.1"
         fill="currentColor"
         id="rect32" />
    </g>
    <g
       transform="translate(-8.5358993,6.779)"
       id="g38">
      <rect
         x="25.3598"
         y="-0.1"
         width="1.9563"
         height="0.2"
         ry="0.1"
         fill="currentColor"
         id="rect36" />
    </g>
    <g
       transform="translate(35.323401,3.779)"
       id="g42">
      <rect
         x="-0.064999998"
         y="-1.2723"
         width="0.13"
         height="3.0861001"
         ry="0.039999999"
         fill="currentColor"
         id="rect40" />
    </g>
    <a
       style="color:inherit"
       xlink:href="textedit://D:/Jakob%20Krueger/Downloads/test.ly:4:13:14"
       id="a48"
       transform="translate(-17.071699,-7.9116)">
      <g
         transform="translate(51.1559,13.6906)"
         id="g46">
        <path
           transform="scale(0.004,-0.004)"
           d="m 218,136 c 55,0 108,-28 108,-89 0,-71 -55,-121 -102,-149 -35,-21 -75,-34 -116,-34 -55,0 -108,28 -108,89 0,71 55,121 102,149 35,21 75,34 116,34 z"
           fill="currentColor"
           id="path44" />
      </g>
    </a>
    <g
       transform="translate(32.819201,3.779)"
       id="g52">
      <rect
         x="-0.064999998"
         y="-1.0069"
         width="0.13"
         height="3.3206999"
         ry="0.039999999"
         fill="currentColor"
         id="rect50" />
    </g>
    <a
       style="color:inherit"
       xlink:href="textedit://D:/Jakob%20Krueger/Downloads/test.ly:4:11:12"
       id="a58"
       transform="translate(-17.071699,-7.9116)">
      <g
         transform="translate(48.6517,14.1906)"
         id="g56">
        <path
           transform="scale(0.004,-0.004)"
           d="m 218,136 c 55,0 108,-28 108,-89 0,-71 -55,-121 -102,-149 -35,-21 -75,-34 -116,-34 -55,0 -108,28 -108,89 0,71 55,121 102,149 35,21 75,34 116,34 z"
           fill="currentColor"
           id="path54" />
      </g>
    </a>
    <g
       transform="translate(30.316801,3.319)"
       id="g62">
      <path
         transform="scale(0.004,-0.004)"
         d="M 0,0 V -250 H -16 V 0 Z m 0,0 c 0,-197 207,-336 207,-533 0,-71 -15,-141 -41,-207 -5,-8 -13,-12 -20,-12 -13,0 -26,11 -23,27 26,61 42,126 42,192 0,103 -94,208 -165,283 z"
         fill="currentColor"
         id="path60" />
    </g>
    <g
       transform="translate(32.754201,2.779)"
       id="g66">
      <polygon
         stroke-linejoin="round"
         stroke-linecap="round"
         stroke-width="0.08"
         fill="currentColor"
         stroke="currentColor"
         points="7.6026,-1.01 7.6026,-0.61 0.04,0.2 0.04,-0.2 "
         id="polygon64" />
    </g>
    <g
       transform="translate(30.251801,3.779)"
       id="g70">
      <rect
         x="-0.064999998"
         y="-0.5"
         width="0.13"
         height="3.3138001"
         ry="0.039999999"
         fill="currentColor"
         id="rect68" />
    </g>
    <a
       style="color:inherit"
       xlink:href="textedit://D:/Jakob%20Krueger/Downloads/test.ly:4:9:10"
       id="a76"
       transform="translate(-17.071699,-7.9116)">
      <g
         transform="translate(46.0843,14.6906)"
         id="g74">
        <path
           transform="scale(0.004,-0.004)"
           d="m 218,136 c 55,0 108,-28 108,-89 0,-71 -55,-121 -102,-149 -35,-21 -75,-34 -116,-34 -55,0 -108,28 -108,89 0,71 55,121 102,149 35,21 75,34 116,34 z"
           fill="currentColor"
           id="path72" />
      </g>
    </a>
    <a
       style="color:inherit"
       xlink:href="textedit://D:/Jakob%20Krueger/Downloads/test.ly:4:6:7"
       id="a82"
       transform="translate(-17.071699,-7.9116)">
      <g
         transform="translate(43.8843,11.6906)"
         id="g80">
        <path
           transform="scale(0.004,-0.004)"
           d="M 72,-250 189,76 C 155,64 120,54 84,54 38,54 -3,87 -3,133 c 0,40 33,72 73,72 25,0 48,-15 56,-39 10,-28 6,-59 35,-59 16,0 54,48 61,63 6,12 23,12 28,0 L 127,-250 c -8,-7 -17,-10 -27,-10 -10,0 -20,3 -28,10 z"
           fill="currentColor"
           id="path78" />
      </g>
    </a>
    <g
       transform="translate(18.324201,3.779)"
       id="g86">
      <polygon
         stroke-linejoin="round"
         stroke-linecap="round"
         stroke-width="0.08"
         fill="currentColor"
         stroke="currentColor"
         points="2.5942,-0.39 2.5942,0.01 0.04,0.2 0.04,-0.2 "
         id="polygon84" />
    </g>
    <g
       transform="translate(40.331801,3.779)"
       id="g90">
      <rect
         x="-0.064999998"
         y="-1.8031"
         width="0.13"
         height="2.6169"
         ry="0.039999999"
         fill="currentColor"
         id="rect88" />
    </g>
    <a
       style="color:inherit"
       xlink:href="textedit://D:/Jakob%20Krueger/Downloads/test.ly:4:17:18"
       id="a96"
       transform="translate(-17.071699,-7.9116)">
      <g
         transform="translate(56.1643,12.6906)"
         id="g94">
        <path
           transform="scale(0.004,-0.004)"
           d="m 218,136 c 55,0 108,-28 108,-89 0,-71 -55,-121 -102,-149 -35,-21 -75,-34 -116,-34 -55,0 -108,28 -108,89 0,71 55,121 102,149 35,21 75,34 116,34 z"
           fill="currentColor"
           id="path92" />
      </g>
    </a>
    <g
       transform="translate(37.827601,3.779)"
       id="g100">
      <rect
         x="-0.064999998"
         y="-1.5377001"
         width="0.13"
         height="2.8515"
         ry="0.039999999"
         fill="currentColor"
         id="rect98" />
    </g>
    <a
       style="color:inherit"
       xlink:href="textedit://D:/Jakob%20Krueger/Downloads/test.ly:4:15:16"
       id="a106"
       transform="translate(-17.071699,-7.9116)">
      <g
         transform="translate(53.6601,13.1906)"
         id="g104">
        <path
           transform="scale(0.004,-0.004)"
           d="m 218,136 c 55,0 108,-28 108,-89 0,-71 -55,-121 -102,-149 -35,-21 -75,-34 -116,-34 -55,0 -108,28 -108,89 0,71 55,121 102,149 35,21 75,34 116,34 z"
           fill="currentColor"
           id="path102" />
      </g>
    </a>
    <g
       transform="translate(18.389201,3.779)"
       id="g110">
      <rect
         x="-0.064999998"
         y="-0.0046999999"
         width="0.13"
         height="2.8185"
         ry="0.039999999"
         fill="currentColor"
         id="rect108" />
    </g>
    <a
       style="color:inherit"
       xlink:href="textedit://D:/Jakob%20Krueger/Downloads/test.ly:3:6:7"
       id="a116"
       transform="translate(-17.071699,-7.9116)">
      <g
         transform="translate(30.8717,11.6906)"
         id="g114">
        <path
           transform="scale(0.004,-0.004)"
           d="m -23,-116 c 0,28 11,42 40,42 33,0 78,-13 119,-31 L 4,53 c -7,9 -10,17 -10,25 0,34 50,66 87,99 25,22 37,52 37,83 0,24 -8,49 -25,69 l -35,42 c -3,3 -4,7 -4,10 0,9 9,15 17,15 4,0 8,-1 11,-5 L 233,211 c 7,-9 10,-17 10,-25 0,-34 -50,-66 -87,-99 -25,-22 -37,-52 -37,-83 0,-24 7,-49 24,-69 l 84,-99 c 3,-3 4,-7 4,-10 0,-9 -8,-16 -16,-16 -4,0 -9,2 -12,6 -18,21 -63,38 -97,38 -41,0 -53,-26 -53,-67 0,-35 11,-74 28,-94 7,-8 -5,-19 -12,-11 -45,54 -92,148 -92,202 z"
           fill="currentColor"
           id="path112" />
      </g>
    </a>
    <a
       style="color:inherit"
       xlink:href="textedit://D:/Jakob%20Krueger/Downloads/test.ly:3:9:10"
       id="a122"
       transform="translate(-17.071699,-7.9116)">
      <g
         transform="translate(34.2217,14.6906)"
         id="g120">
        <path
           transform="scale(0.004,-0.004)"
           d="m 218,136 c 55,0 108,-28 108,-89 0,-71 -55,-121 -102,-149 -35,-21 -75,-34 -116,-34 -55,0 -108,28 -108,89 0,71 55,121 102,149 35,21 75,34 116,34 z"
           fill="currentColor"
           id="path118" />
      </g>
    </a>
    <g
       transform="translate(5.0000007,3.779)"
       id="g126">
      <path
         transform="scale(0.004,-0.004)"
         d="m 359,27 c -49,0 -75,42 -75,75 0,38 27,77 72,77 4,0 9,0 14,-1 -28,37 -72,59 -120,59 C 144,237 137,164 137,51 V 0 -51 c 0,-113 7,-187 113,-187 80,0 139,70 158,151 2,7 7,10 12,10 6,0 13,-4 13,-12 0,-94 -105,-174 -183,-174 -68,0 -137,21 -184,70 C 17,-142 0,-71 0,0 c 0,71 17,142 66,193 47,49 116,69 184,69 87,0 160,-63 175,-149 1,-5 1,-10 1,-14 0,-40 -30,-72 -67,-72 z"
         fill="currentColor"
         id="path124" />
    </g>
    <g
       transform="translate(0.80000071,4.779)"
       id="g130">
      <path
         transform="scale(0.004,-0.004)"
         d="m 266,-635 h -6 c -108,0 -195,88 -195,197 0,58 53,103 112,103 54,0 95,-47 95,-103 0,-52 -43,-95 -95,-95 -11,0 -21,2 -31,6 26,-39 68,-65 117,-65 h 4 z m 195,432 c 68,24 113,95 113,164 0,90 -66,179 -173,190 24,-116 46,-231 60,-354 z M 74,28 c 0,-135 129,-247 264,-247 28,0 55,2 82,6 C 406,-86 383,32 357,151 278,143 233,90 233,32 c 0,-44 25,-91 81,-123 5,-5 7,-10 7,-15 0,-11 -10,-22 -22,-22 -3,0 -6,1 -9,2 -80,43 -117,115 -117,185 0,88 58,174 160,197 -14,58 -29,117 -46,175 C 180,310 74,188 74,28 Z M 335,-262 C 147,-262 2,-90 2,112 c 0,177 131,306 248,441 -19,62 -37,125 -45,190 -6,52 -7,104 -7,156 0,115 55,224 149,292 6,5 14,5 20,0 71,-84 133,-245 133,-358 0,-143 -86,-255 -180,-364 21,-68 39,-138 56,-207 4,0 9,1 13,1 155,0 256,-128 256,-261 0,-76 -33,-154 -107,-210 -22,-17 -47,-28 -73,-36 3,-35 5,-70 5,-105 0,-19 -1,-39 -2,-58 -7,-119 -88,-225 -202,-228 l 1,43 c 93,2 153,92 159,191 1,18 2,37 2,55 0,31 -1,61 -4,92 -29,-5 -58,-8 -89,-8 z m 93,1178 c 0,55 -4,79 -20,129 -99,-48 -162,-149 -162,-259 0,-74 18,-133 36,-194 80,97 146,198 146,324 z"
         fill="currentColor"
         id="path128" />
    </g>
    <a
       style="color:inherit"
       xlink:href="textedit://D:/Jakob%20Krueger/Downloads/test.ly:3:3:4"
       id="a136"
       transform="translate(-17.071699,-7.9116)">
      <g
         transform="translate(25.7717,11.6906)"
         id="g134">
        <path
           transform="scale(0.004,-0.004)"
           d="M 365,0 H 10 C 4,0 0,4 0,10 v 136 c 0,6 4,10 10,10 h 355 c 6,0 10,-4 10,-10 V 10 C 375,4 371,0 365,0 Z"
           fill="currentColor"
           id="path132" />
      </g>
    </a>
    <a
       style="color:inherit"
       xlink:href="textedit://D:/Jakob%20Krueger/Downloads/test.ly:4:3:4"
       id="a142"
       transform="translate(-17.071699,-7.9116)">
      <g
         transform="translate(40.5343,11.6906)"
         id="g140">
        <path
           transform="scale(0.004,-0.004)"
           d="m -23,-116 c 0,28 11,42 40,42 33,0 78,-13 119,-31 L 4,53 c -7,9 -10,17 -10,25 0,34 50,66 87,99 25,22 37,52 37,83 0,24 -8,49 -25,69 l -35,42 c -3,3 -4,7 -4,10 0,9 9,15 17,15 4,0 8,-1 11,-5 L 233,211 c 7,-9 10,-17 10,-25 0,-34 -50,-66 -87,-99 -25,-22 -37,-52 -37,-83 0,-24 7,-49 24,-69 l 84,-99 c 3,-3 4,-7 4,-10 0,-9 -8,-16 -16,-16 -4,0 -9,2 -12,6 -18,21 -63,38 -97,38 -41,0 -53,-26 -53,-67 0,-35 11,-74 28,-94 7,-8 -5,-19 -12,-11 -45,54 -92,148 -92,202 z"
           fill="currentColor"
           id="path138" />
      </g>
    </a>
    <a
       style="color:inherit"
       xlink:href="textedit://D:/Jakob%20Krueger/Downloads/test.ly:3:12:13"
       id="a148"
       transform="translate(-17.071699,-7.9116)">
      <g
         transform="translate(36.7259,14.1906)"
         id="g146">
        <path
           transform="scale(0.004,-0.004)"
           d="m 218,136 c 55,0 108,-28 108,-89 0,-71 -55,-121 -102,-149 -35,-21 -75,-34 -116,-34 -55,0 -108,28 -108,89 0,71 55,121 102,149 35,21 75,34 116,34 z"
           fill="currentColor"
           id="path144" />
      </g>
    </a>
    <g
       transform="translate(20.893401,3.779)"
       id="g152">
      <rect
         x="-0.064999998"
         y="-0.18529999"
         width="0.13"
         height="2.4991"
         ry="0.039999999"
         fill="currentColor"
         id="rect150" />
    </g>
  </g>
</svg>
